<?xml version="1.0" encoding="UTF-8"?><svg id="_レイヤー_2" xmlns="http://www.w3.org/2000/svg" viewBox="0 0 167.04 69.25"><defs><style>.cls-1{fill:#fff;}</style></defs><g id="_layout"><path class="cls-1" d="M16.88.59l6.25,15.87L29.47.59h7.35l-11.1,26.07h-5.28L9.5.59h7.39Z"/><path class="cls-1" d="M48.27.59v26.07h-6.76V.59h6.76Z"/><path class="cls-1" d="M57.41,18.84c1.45,1.37,3.64,2.66,5.98,2.66,1.37,0,2.19-.43,2.62-.9.39-.39.66-.98.66-1.64,0-.51-.2-1.09-.74-1.56-.67-.59-1.68-.86-3.36-1.37l-1.76-.55c-1.09-.35-2.7-.94-3.75-2.11-1.33-1.45-1.49-3.28-1.49-4.61,0-3.21,1.25-5.16,2.38-6.29,1.33-1.33,3.52-2.46,6.69-2.46,2.58,0,5.59.82,8.05,2.11l-2.7,5.28c-2.03-1.6-3.56-1.76-4.46-1.76-.66,0-1.56.16-2.23.78-.39.39-.67.82-.67,1.41,0,.47.08.82.35,1.17.2.23.67.7,2.27,1.17l2.07.62c1.64.51,3.36,1.09,4.73,2.58,1.33,1.41,1.68,2.85,1.68,4.65,0,2.38-.59,4.69-2.46,6.57-2.23,2.23-4.93,2.66-7.7,2.66-1.64,0-3.21-.16-5.12-.86-.43-.16-2.07-.78-3.95-2.07l2.89-5.47Z"/><path class="cls-1" d="M86.72.59v15.44c0,1.09.04,2.78,1.33,4.03.78.74,2.03,1.25,3.21,1.25s2.38-.47,3.13-1.13c1.56-1.37,1.53-3.29,1.53-4.73V.59h6.76v14.97c0,2.74-.12,5.59-2.93,8.44-2.19,2.23-4.93,3.24-8.6,3.24-4.1,0-7.04-1.41-8.64-3.13-2.27-2.46-2.54-5.79-2.54-8.56V.59h6.76Z"/><path class="cls-1" d="M126,22.28h-9.46l-1.76,4.38h-7.15L117.64.59h7.39l9.81,26.07h-7.23l-1.6-4.38ZM124.21,17.12l-2.93-8.44-2.85,8.44h5.79Z"/><path class="cls-1" d="M146.56.59v20.33h8.13v5.75h-14.89V.59h6.76Z"/><path class="cls-1" d="M19.9,67.96c-2.7.98-4.18,1.29-5.86,1.29-4.54,0-7.94-1.8-10.09-3.91-2.54-2.54-3.95-6.1-3.95-9.5,0-3.71,1.6-7.23,3.95-9.62,2.31-2.35,5.79-4.06,9.85-4.06,1.25,0,3.28.2,6.1,1.33v8.09c-2.19-2.7-4.77-2.85-5.9-2.85-1.96,0-3.44.59-4.69,1.72-1.6,1.49-2.27,3.52-2.27,5.36s.74,3.79,2.11,5.08c1.13,1.06,2.93,1.8,4.85,1.8,1.02,0,3.52-.12,5.9-2.74v8.01Z"/><path class="cls-1" d="M32.91,52.32h9.77v-9.73h6.8v26.07h-6.8v-10.55h-9.77v10.55h-6.76v-26.07h6.76v9.73Z"/><path class="cls-1" d="M72.82,64.28h-9.46l-1.76,4.38h-7.15l10.01-26.07h7.39l9.81,26.07h-7.23l-1.6-4.38ZM71.02,59.12l-2.93-8.44-2.85,8.44h5.79Z"/><path class="cls-1" d="M86.61,68.66v-26.07h6.76l12.47,15.95v-15.95h6.76v26.07h-6.76l-12.47-15.95v15.95h-6.76Z"/><path class="cls-1" d="M132.53,53.88h13.45c0,5.16-1.06,8.84-4.18,11.73-2.74,2.54-5.86,3.28-9.19,3.28-4.69,0-7.9-1.72-10.01-3.87-1.96-1.96-3.75-5.12-3.75-9.42s1.64-7.54,3.91-9.77c2.15-2.15,5.51-3.83,10.12-3.83,2.42,0,5.04.55,7.04,1.76,2.03,1.25,3.71,3.32,4.65,5.36l-6.45,2.66c-.47-1.21-1.21-2.07-1.88-2.62-1.13-.94-2.35-1.29-3.64-1.29-1.6,0-3.25.59-4.46,1.8-1.52,1.52-2.27,3.95-2.27,5.98,0,2.38.86,4.34,2.07,5.63,1.25,1.33,2.78,1.99,4.77,1.99,1.17,0,2.54-.2,3.75-1.21.63-.51,1.37-1.45,1.6-2.89h-5.55v-5.28Z"/><path class="cls-1" d="M167.04,48.33h-8.05v4.34h7.62v5.75h-7.62v4.5h8.05v5.75h-14.82v-26.07h14.82v5.75Z"/></g></svg>