<?xml version="1.0" encoding="UTF-8"?>
<svg id="_レイヤー_2" data-name="レイヤー 2" xmlns="http://www.w3.org/2000/svg" viewBox="0 0 983.94 145.14">
  <defs>
    <style>
      .cls-1 {
        fill: #dc0000;
        stroke: #dc0000;
        stroke-miterlimit: 10;
        stroke-width: .78px;
      }
    </style>
  </defs>
  <g id="_layout">
    <g>
      <path class="cls-1" d="M25.87,41.9c0,4.39.23,12.7.23,13.23,0,1.59-.45,1.89-2.19,1.89h-4.76c-1.74,0-2.19-.3-2.19-1.89,0-.53.23-8.85.23-13.23V13.93c0-1.89-.38-2.27-2.27-2.27h-2.34c-3.18,0-9.68.23-10.21.23-1.59,0-1.89-.45-1.89-2.19v-4.16c0-1.74.3-2.19,1.89-2.19.53,0,7.41.15,10.96.15h16.48c3.55,0,10.43-.15,10.96-.15,1.59,0,1.89.45,1.89,2.19v4.16c0,1.74-.3,2.19-1.89,2.19-.53,0-7.03-.23-10.21-.23h-2.42c-1.89,0-2.27.38-2.27,2.27v27.97Z"/>
      <path class="cls-1" d="M86.28,43.79c-1.36,3.25-2.95,6.96-4.54,11.11-.68,1.81-1.06,2.12-3.02,2.12h-3.17c-1.97,0-2.34-.3-3.1-2.12-1.59-4.16-3.1-7.79-4.46-11.04l-10.74-25.25c-1.74-4.01-3.4-7.86-5.82-13.08-.23-.53-.38-.98-.38-1.29,0-.6.53-.76,1.74-.76h5.82c1.97,0,2.34.3,3.02,2.12,1.81,4.91,3.33,8.54,4.69,12.02l10.13,24.57c.23.6.53.91.83.91s.53-.3.83-.91l10.06-24.42c1.44-3.63,2.95-7.26,4.69-12.17.68-1.81,1.06-2.12,3.02-2.12h5.59c1.21,0,1.66.15,1.66.76,0,.3-.15.68-.38,1.29-2.42,5.22-4.16,9.22-5.75,13l-10.74,25.25Z"/>
      <path class="cls-1" d="M155.3,6.29c2.5,0,5.44,0,7.86-.38.3-.08.61-.08.98-.08,1.13,0,1.89.98,2.8,1.97s2.8,3.02,2.8,4.39c0,.83-1.06,1.59-1.66,2.04-.45.38-6.12,6.28-7.03,7.26-2.65,2.72-6.58,6.58-9.38,9.07-.53.45-1.06,1.06-1.81,1.06-1.29,0-5.52-3.33-5.52-4.61,0-.76,1.36-1.81,1.89-2.27,1.36-1.21,9.75-8.62,9.75-9.68s-1.66-.91-2.34-.91h-32.44c-3.48,0-6.88.23-10.28.23-1.97,0-2.04-.83-2.04-3.86v-1.51c0-1.97.15-2.87,1.89-2.87,3.48,0,6.96.15,10.43.15h34.1ZM142.07,18.39c.53.08,1.59.08,1.59.91,0,.3-.23.53-.45.76-.98,1.06-1.29,4.01-1.51,5.44-2.19,13.84-6.88,23.44-18.15,32.13-.6.45-1.66,1.36-2.49,1.36-1.29,0-6.2-3.93-6.2-5.29,0-.68.76-.98,1.81-1.66,8.01-4.99,13.53-12.85,15.8-22,1.06-4.08,1.21-7.11,1.21-11.27,0-.6,0-.98.76-.98.98,0,6.5.45,7.64.6Z"/>
      <path class="cls-1" d="M219.79,39.78c3.02,0,6.05-.15,9.07-.15,2.5,0,2.42.68,2.42,4.61,0,2.49,0,3.93-2.12,3.93-3.1,0-6.28-.15-9.38-.15h-34.78c-3.1,0-6.28.15-9.38.15-2.12,0-2.12-1.44-2.12-4.01,0-3.86-.08-4.54,2.42-4.54,3.02,0,6.05.15,9.07.15h34.78ZM212.23,7.88c3.25,0,6.5-.15,9.75-.15,1.97,0,2.12.76,2.12,4.23,0,2.95.08,4.31-2.27,4.31-3.17,0-6.35-.15-9.53-.15h-19.81c-3.18,0-6.35.15-9.53.15-2.34,0-2.27-1.36-2.27-4.38,0-3.48.23-4.16,2.12-4.16,3.25,0,6.5.15,9.75.15h19.66Z"/>
      <path class="cls-1" d="M272.48,21.26c2.42-4.61,5.52-12.02,6.12-17.09.08-.6.15-1.66.83-1.66s4.16,1.29,5.29,1.74c1.44.53,4.01,1.44,4.01,2.27,0,.45-.45.76-.83.98-1.13.76-1.29,1.36-1.74,2.65-1.89,5.44-4.54,11.42-7.26,16.48-.23.45-.45.83-.45,1.36,0,.98.68,1.51,1.44,2.12.98.76,5.59,4.39,5.59,5.37,0,1.36-3.48,6.12-4.91,6.12-.76,0-1.44-.68-1.89-1.13-.98-1.06-4.01-4.16-5.29-4.16-.91,0-1.36.6-1.89,1.21-3.93,4.84-8.32,8.85-13.46,12.4-1.81,1.29-10.36,6.5-12.17,6.5-1.66,0-5.37-4.61-5.37-5.67,0-.91,1.21-1.36,2.19-1.74.23-.08.45-.15.6-.23,8.09-3.33,15.27-8.47,20.94-15.12.45-.53,1.21-1.36,1.21-2.12,0-.68-.38-1.21-.98-1.51-2.57-1.44-6.2-2.57-9-3.55-.76-.23-1.59-.6-1.59-1.51,0-.83,1.89-6.05,3.86-6.05,1.81,0,9.15,3.33,11.11,4.31.45.15.68.3,1.13.3,1.51,0,1.89-1.21,2.5-2.27Z"/>
      <path class="cls-1" d="M345.28,23.53c3.48,0,8.39-.23,9.38-.23,2.04,0,2.12.6,2.12,4.76,0,2.42-.08,3.86-2.04,3.86-3.18,0-6.35-.15-9.45-.15h-34.78c-3.1,0-6.28.15-9.45.15-1.97,0-2.04-1.44-2.04-3.78,0-4.23.15-4.84,2.12-4.84.98,0,6.2.23,9.38.23h34.78Z"/>
      <path class="cls-1" d="M370.45,16.72c.98,0,8.09,4.38,9.38,5.22,2.04,1.21,5.9,3.33,5.9,4.54,0,1.36-3.02,5.82-4.54,5.82-.53,0-1.29-.53-1.74-.83-4.23-3.02-7.56-5.07-12.02-7.64-.53-.3-1.29-.6-1.29-1.29,0-1.21,2.87-5.82,4.31-5.82ZM372.95,49.16c2.04-.45,6.88-2.19,9-3.02,7.33-2.95,13.31-6.2,18.83-11.87,6.12-6.43,9.98-14.59,12.93-22.83.3-.76.6-1.81,1.59-1.81,1.13,0,5.67,4.16,5.67,5.67,0,.53-.6,1.89-.98,2.95-.15.53-.38.91-.45,1.21-3.02,7.48-8.17,15.65-13.99,21.4-7.03,6.88-16.63,11.95-25.86,15.27-1.81.68-1.97.83-2.87,2.19-.15.23-.45.45-.76.45-.83,0-1.44-1.66-1.89-2.57-.83-1.81-1.66-3.63-2.5-5.44-.08-.15-.15-.45-.15-.68,0-.6.98-.76,1.44-.91ZM387.47,5c1.59,1.13,4.31,3.02,5.67,4.16.45.38.83.76.83,1.29,0,1.36-3.18,5.59-4.54,5.59-.6,0-1.44-.6-1.89-.98-3.55-2.87-7.26-5.59-11.11-8.01-.53-.3-1.29-.76-1.29-1.44,0-1.06,3.25-5.22,4.61-5.22.91,0,4.54,2.5,6.58,3.86.53.3.91.6,1.13.76Z"/>
      <path class="cls-1" d="M455.81,16.87c1.44,0,2.95-.08,4.46-.08,3.63,0,4.16,1.13,4.16,4.23,0,1.13-.08,2.65-.08,4.39v23.29c0,1.59.08,3.25.08,4.84,0,2.42-.68,2.57-3.33,2.57-3.02,0-3.4-.15-3.78-1.66-.15-.83-.76-.83-2.34-.83h-17.77c-2.65,0-5.75.08-7.49.08s-1.81-1.29-1.81-4.08c0-1.36-.08-2.95,1.66-2.95,1.36,0,4.84.15,7.56.15h18.45c.98,0,1.74-.76,1.74-1.74v-4.76c0-.91-.76-1.74-1.74-1.74h-17.69c-2.65,0-5.97.15-7.56.15-1.81,0-1.66-1.59-1.66-4.08,0-1.44-.15-2.87,1.66-2.87,1.66,0,4.84.15,7.48.15h17.77c.98,0,1.74-.76,1.74-1.74v-4.76c0-.98-.76-1.81-1.74-1.81h-18.3c-2.27,0-5.52.15-7.41.15-1.74,0-1.81-1.21-1.81-3.33s-.15-3.7,1.66-3.7c1.44,0,4.99.15,7.49.15h18.6Z"/>
      <path class="cls-1" d="M529.45,20.65c0,1.29-3.02,4.23-4.01,5.22-12.25,12.63-25.1,21.09-41.05,28.5-2.5,1.21-2.57,1.29-3.18,2.57-.15.3-.38.45-.76.45-.83,0-2.42-3.02-2.95-3.93-.45-.76-2.27-3.78-2.27-4.54,0-.83,1.36-.98,2.34-1.29,16.71-4.91,35.61-19.2,46.35-32.89.3-.38.76-.83,1.29-.83,1.51,0,4.23,5.6,4.23,6.73ZM490.43,8.18c.98.68,4.61,3.18,4.61,4.31,0,1.74-3.55,5.82-4.99,5.82-.6,0-2.04-1.13-3.02-2.04-2.12-1.89-7.33-5.37-10.06-7.03-.6-.38-1.21-.76-1.21-1.44,0-1.13,3.02-5.97,4.76-5.97,1.21,0,8.47,5.29,9.9,6.35Z"/>
      <path class="cls-1" d="M24.13,131.13c3.86,0,10.96-.15,11.49-.15,1.59,0,1.89.45,1.89,2.19v3.55c0,1.74-.3,2.19-1.89,2.19-.53,0-7.64-.15-11.49-.15h-9.83c-3.86,0-10.96.15-11.49.15-1.59,0-1.89-.45-1.89-2.19v-1.36c0-1.97.23-2.5,1.81-3.71,1.36-.98,2.57-2.04,3.86-3.18,13.61-11.95,21.47-19.51,21.47-26.92,0-4.91-3.4-8.32-9.6-8.32-4.54,0-8.47,2.19-11.04,4.99-.68.76-1.13,1.06-1.59,1.06-.38,0-.83-.38-1.51-1.06l-3.02-3.25c-.6-.68-.91-1.13-.91-1.59,0-.53.38-.98,1.06-1.66,4.31-4.08,10.58-6.88,17.77-6.88,11.49,0,17.92,6.8,17.92,15.5,0,10.66-8.54,19.2-20.11,29.26-.6.53-.83.83-.83,1.06,0,.3.45.45,1.36.45h6.58Z"/>
      <path class="cls-1" d="M89.04,110.87c0,17.99-10.36,28.5-22.98,28.5s-21.7-9.15-21.7-26.39c0-15.5,7.94-28.05,22.83-28.05,11.87,0,21.85,8.69,21.85,25.93ZM53.21,113.22c0,11.79,5.22,18.07,12.85,18.07,8.09,0,14.14-7.79,14.14-20.11s-5.52-17.77-13-17.77c-9.6,0-13.99,9.15-13.99,19.81Z"/>
      <path class="cls-1" d="M116.41,131.13c3.86,0,10.96-.15,11.49-.15,1.59,0,1.89.45,1.89,2.19v3.55c0,1.74-.3,2.19-1.89,2.19-.53,0-7.64-.15-11.49-.15h-9.83c-3.86,0-10.96.15-11.49.15-1.59,0-1.89-.45-1.89-2.19v-1.36c0-1.97.23-2.5,1.81-3.71,1.36-.98,2.57-2.04,3.86-3.18,13.61-11.95,21.47-19.51,21.47-26.92,0-4.91-3.4-8.32-9.6-8.32-4.54,0-8.47,2.19-11.04,4.99-.68.76-1.13,1.06-1.59,1.06-.38,0-.83-.38-1.51-1.06l-3.02-3.25c-.6-.68-.91-1.13-.91-1.59,0-.53.38-.98,1.06-1.66,4.31-4.08,10.58-6.88,17.77-6.88,11.49,0,17.92,6.8,17.92,15.5,0,10.66-8.54,19.2-20.11,29.26-.6.53-.83.83-.83,1.06,0,.3.45.45,1.36.45h6.58Z"/>
      <path class="cls-1" d="M148.08,107.24c2.57-1.66,7.48-3.25,12.17-3.25,8.92,0,17.01,5.14,17.01,16.18,0,11.87-9.15,19.28-20.87,19.28-12.93,0-20.34-8.62-20.34-21.09,0-10.74,3.71-19.13,9.53-25.1,4.84-4.91,13.91-8.39,21.25-8.39,1.51,0,1.81.38,1.81,2.12v3.93c0,1.97-.3,2.27-2.27,2.5-6.5.6-11.87,3.02-15.88,7.03-2.12,2.12-4.39,6.05-4.39,7.33,0,.23.15.3.3.3.3,0,.91-.3,1.66-.83ZM146.65,115.26c-1.89,1.36-2.04,2.5-2.04,4.08,0,7.48,4.76,12.55,12.17,12.55s11.87-5.07,11.87-11.04c0-5.29-3.86-9.38-10.51-9.38-3.86,0-8.17,1.29-11.49,3.78Z"/>
      <path class="cls-1" d="M223.84,99.45c0,1.44.6,1.97,2.12,2.12h6.05c2.65,0,5.22-.23,7.86-.23,1.89,0,1.89.83,1.89,3.86s-.08,3.7-1.89,3.7c-2.65,0-5.22-.15-7.86-.15h-6.05c-1.51,0-2.12.6-2.12,2.12v6.73c0,1.51.6,2.12,2.12,2.12h12.48c3.18,0,6.35-.15,9.53-.15,1.89,0,1.81.91,1.81,3.78s.08,3.78-1.81,3.78c-3.18,0-6.35-.15-9.53-.15h-12.48c-1.51,0-2.12.6-2.12,2.12v2.12c0,3.71.23,7.33.23,10.96,0,2.49-.98,2.49-4.39,2.49s-4.31,0-4.31-2.42c0-3.7.23-7.33.23-11.04v-2.12c0-1.51-.6-2.12-2.12-2.12h-18.75c-3.18,0-6.35.15-9.53.15-1.89,0-1.81-.83-1.81-3.71,0-3.02-.08-3.86,1.81-3.86,2.42,0,4.91.23,7.41.15,1.36,0,1.89-.76,1.89-2.12v-7.18c0-1.89-.08-3.7-.08-5.59,0-2.65,1.13-3.4,3.7-3.4,1.81,0,3.63.15,5.44.15h9.9c1.51-.15,2.12-.68,2.12-2.12v-5.75c0-1.51-.6-2.12-2.12-2.12h-9.98c-1.66,0-2.12.3-3.18,1.59-2.95,4.54-6.5,8.69-10.36,12.48-.6.6-1.59,1.66-2.49,1.66-1.51,0-5.07-3.55-5.07-4.99,0-.76,1.36-1.81,1.89-2.27,6.96-5.9,12.63-14.37,15.5-22.98.23-.68.45-1.06,1.06-1.06.83,0,6.2,1.66,7.33,2.04.53.15,1.29.38,1.29,1.06,0,.53-.68.83-1.13.98-1.21.38-1.13.6-1.89,2.19-.08.3-.15.45-.15.76,0,.83.6,1.06,1.36,1.13h27.45c3.1,0,6.12-.23,9.22-.23,1.89,0,1.81.98,1.81,3.93s.08,3.86-1.81,3.86c-3.1,0-6.12-.15-9.22-.15h-9.15c-1.51,0-2.12.6-2.12,2.12v5.75ZM204.1,108.75c-1.29.15-1.97.83-2.12,2.12v6.73c.15,1.36.83,1.97,2.12,2.12h9.38c1.36-.15,1.97-.76,2.12-2.12v-6.73c-.15-1.29-.76-1.97-2.12-2.12h-9.38Z"/>
      <path class="cls-1" d="M277.36,123.8c0,4.38.23,12.32.23,13.23,0,1.59-.45,1.89-2.19,1.89h-4.69c-1.74,0-2.19-.3-2.19-1.89,0-.91.23-8.85.23-13.23v-26.46c0-1.29-.23-1.81-.91-1.81-.3,0-.68.08-1.21.3-2.27.83-4.84,1.89-6.8,2.8-.6.3-1.06.45-1.44.45-.68,0-.98-.53-1.36-1.66l-1.44-3.78c-.23-.6-.3-1.06-.3-1.44,0-.68.45-1.06,1.74-1.44,3.63-1.13,8.24-2.87,11.79-4.46,1.59-.68,2.72-.91,4.46-.91h2.04c1.74,0,2.19.3,2.19,1.89,0,1.13-.15,8.85-.15,13.23v23.29Z"/>
      <path class="cls-1" d="M331.87,121.53c0-1.51-.6-2.12-2.12-2.12h-22.23c-1.44,0-2.19.53-2.42,1.97-1.06,6.35-3.1,12.4-6.5,17.84-.91,1.44-2.95,4.84-4.76,4.84-1.44,0-5.52-2.72-5.52-4.54,0-.68.6-1.29,1.06-1.81,7.41-9,8.54-20.87,8.54-32.06v-15.35c0-2.42-.15-4.84-.15-7.26,0-3.1,1.44-3.93,4.31-3.93,2.27,0,4.54.15,6.8.15h20.04c2.27,0,4.54-.15,6.8-.15,2.95,0,4.39.76,4.39,3.93,0,2.42-.15,4.84-.15,7.26v38.56c0,1.89.15,3.78.15,5.67,0,2.87-.15,5.44-2.5,7.33-2.95,2.34-7.41,2.5-11.04,2.5-1.51,0-3.48-.08-4.01-1.81-.38-1.13-.68-3.4-.68-4.54s.38-1.89,1.66-1.89c1.13,0,2.72.15,4.01.15,3.93,0,4.31-.91,4.31-4.61v-10.13ZM329.75,95.75c1.29-.15,1.97-.83,2.12-2.12v-4.76c-.15-1.29-.83-1.97-2.12-2.12h-21.62c-1.29.15-1.97.83-2.12,2.12v4.76c.15,1.29.83,1.97,2.12,2.12h21.62ZM308.05,112.23h21.7c1.51,0,2.12-.6,2.12-2.12v-5.07c0-1.44-.6-2.04-2.12-2.04h-21.62c-1.44,0-2.12.6-2.12,2.04v.23c0,1.66.08,3.33,0,4.91.08,1.44.53,2.04,2.04,2.04Z"/>
      <path class="cls-1" d="M380.01,110.04c0,.23.38.45,1.13.68,6.05,2.04,8.69,6.5,8.69,11.95,0,8.39-6.2,16.78-22.68,16.78-5.52,0-10.74-1.13-14.14-2.72-1.13-.53-1.59-.98-1.59-1.74,0-.38.08-.83.3-1.36l1.29-3.7c.38-1.06.68-1.59,1.29-1.59.3,0,.76.23,1.44.6,2.72,1.66,6.88,2.95,11.72,2.95,8.92,0,13.38-4.61,13.38-9.38,0-5.22-4.39-7.86-14.14-7.86-1.66,0-4.31.08-5.07.08-1.97,0-2.27-.3-2.27-2.19v-3.4c0-1.97.3-2.27,2.27-2.27.83,0,2.87.08,4.31.08,9.15,0,12.55-3.25,12.55-7.41s-3.71-6.65-9.53-6.65c-4.16,0-7.86,1.21-10.59,2.95-.68.45-1.13.68-1.51.68-.53,0-.91-.45-1.36-1.51l-1.66-3.48c-.3-.68-.45-1.13-.45-1.51,0-.68.45-1.06,1.51-1.59,4.01-2.12,9.3-3.55,14.97-3.55,12.4,0,17.46,6.28,17.46,13.08,0,4.16-1.66,8.77-6.35,11.27-.61.3-.98.6-.98.83Z"/>
      <path class="cls-1" d="M436.42,138.09h-23.06c-1.21,0-1.74.53-1.74,1.74v.76c0,2.12-.76,2.12-4.31,2.12-3.25,0-4.31,0-4.31-2.04,0-3.18.23-6.35.23-9.45v-38.03c0-2.42-.15-4.76-.15-7.18,0-3.02,1.21-3.93,4.16-3.93,2.19,0,4.38.15,6.65.15h22.08c2.19,0,4.39-.15,6.58-.15,2.87,0,4.16.76,4.16,3.86,0,2.42-.15,4.84-.15,7.26v37.88c0,3.18.23,6.28.23,9.45,0,2.12-.91,2.04-4.31,2.04s-4.31,0-4.31-2.04c0-.23,0-.45.08-.68-.08-1.21-.61-1.74-1.81-1.74ZM436.26,105.88c1.29-.15,1.97-.83,2.12-2.12v-12.1c-.15-1.29-.83-1.97-2.12-2.12h-22.76c-1.29.15-1.97.83-2.12,2.12v12.1c.15,1.29.83,1.97,2.12,2.12h22.76ZM411.39,128.49c.15,1.29.83,1.97,2.12,2.12h22.76c1.29-.15,1.97-.83,2.12-2.12v-13.31c-.15-1.29-.83-1.97-2.12-2.12h-22.76c-1.29.15-1.97.83-2.12,2.12v13.31Z"/>
      <path class="cls-1" d="M470.12,143.85c-.45.23-.85.4-1.13.4-.51,0-.85-.34-1.3-1.02-5.22-7.65-7.99-16.67-7.99-25.52s2.78-17.8,7.99-25.46c.45-.68.79-1.02,1.3-1.02.28,0,.68.17,1.13.4l1.64.79c.74.34,1.08.68,1.08,1.08,0,.28-.17.62-.51,1.08-4.25,6.29-7.31,14.29-7.31,23.13s3.06,16.84,7.31,23.13c.34.51.51.85.51,1.13,0,.4-.34.74-1.08,1.08l-1.64.79Z"/>
      <path class="cls-1" d="M497.6,110.05c0-1.08-.45-1.53-1.53-1.53h-8.39c-2.15,0-4.37.11-6.58.11-1.42,0-1.36-.62-1.36-2.89s-.06-2.95,1.36-2.95c2.21,0,4.42.11,6.58.11h8.39c1.08,0,1.53-.45,1.53-1.59v-9.58c0-1.42,0-2.89-.17-4.03-.06-.17-.06-.34-.06-.51,0-.74.51-.85,1.08-.85.85,0,4.48.28,5.56.4.45.06,1.36.06,1.36.74,0,.51-.4.68-.85,1.02-.62.4-.68,1.42-.68,3.18v9.64c0,1.13.45,1.59,1.59,1.59h8.39c2.21,0,4.42-.11,6.63-.11,1.36,0,1.36.57,1.36,2.95s0,2.89-1.36,2.89c-2.21,0-4.42-.11-6.63-.11h-8.39c-1.13,0-1.59.45-1.59,1.53v17.18c0,1.13.45,1.59,1.59,1.59h12.3c2.21,0,4.42-.11,6.69-.11,1.42,0,1.36.57,1.36,2.89s0,2.95-1.36,2.95c-2.21,0-4.48-.17-6.69-.17h-34.13c-2.21,0-4.48.17-6.69.17-1.42,0-1.36-.62-1.36-2.95s-.06-2.89,1.36-2.89c2.27,0,4.48.11,6.69.11h12.47c1.08,0,1.53-.45,1.53-1.59v-17.18Z"/>
      <path class="cls-1" d="M528.52,141.98c0-.28.17-.62.51-1.13,4.25-6.29,7.31-14.29,7.31-23.13s-3.06-16.84-7.31-23.13c-.34-.45-.51-.79-.51-1.08,0-.4.34-.74,1.08-1.08l1.64-.79c.45-.23.85-.4,1.13-.4.51,0,.85.34,1.3,1.02,5.22,7.65,8,16.61,8,25.46s-2.78,17.86-8,25.52c-.45.68-.79,1.02-1.3,1.02-.28,0-.68-.17-1.13-.4l-1.64-.79c-.74-.34-1.08-.68-1.08-1.08Z"/>
      <path class="cls-1" d="M580.03,79.65c.53.15,1.44.38,1.44,1.13,0,.45-.38.83-.68,1.13-.91.83-.98,1.51-1.06,2.87-.15,2.57-.23,5.07-.23,7.56,0,1.29.45,2.19,1.89,2.19,2.72,0,8.85-1.89,11.49-2.87.6-.23,1.21-.45,1.81-.45,1.06,0,1.51,1.13,2.04,2.27.45,1.13,1.29,3.1,1.29,4.23,0,.98-.53,1.29-4.23,2.34-3.63.98-7.41,1.66-11.19,2.19-1.97.23-3.02.53-3.02,2.8,0,1.66.38,10.81.6,12.02.3,1.97,1.59,1.97,3.48,2.5,5.14,1.36,12.55,4.23,17.01,7.03.53.38,1.29.91,1.29,1.59,0,1.59-2.87,6.05-4.23,6.05-.68,0-1.97-.98-2.57-1.36-2.12-1.44-10.74-5.97-13-5.97-1.51,0-1.36,1.74-1.44,2.34-.15,2.95-.83,5.82-3.18,7.79-3.02,2.5-7.33,3.33-11.19,3.33-6.65,0-15.12-2.95-15.12-10.89,0-9,9.38-12.17,16.86-12.17h1.51c1.29,0,2.72.08,2.72-1.81,0-.76-.15-3.25-.23-4.23-.15-4.76-.38-9.45-.45-14.14-.08-4.91-.08-12.1-.98-16.79-.08-.3-.15-.68-.15-.98,0-.76.68-.91,1.36-.91,1.13,0,6.88.91,8.17,1.21ZM558.79,129.32c0,3.18,4.99,3.86,7.41,3.86,4.16,0,6.88-1.21,6.88-5.82,0-2.95-.91-3.02-4.16-3.02s-10.13.68-10.13,4.99Z"/>
      <path class="cls-1" d="M628.35,86.98c0,.45-.53.83-.91.98-.76.53-.98.68-1.44,1.51-.91,1.66-1.74,4.46-2.19,6.35-.6,2.72-.98,5.67-.98,8.47,0,.6-.08,3.86.76,3.86.6,0,1.06-1.21,1.36-1.97.38-.83,1.74-4.08,2.65-4.08.68,0,2.95,1.36,2.95,2.34,0,.23-1.13,2.87-1.81,4.69l-.68,1.81c-1.06,2.87-2.5,6.35-2.5,9.38,0,1.06.15,1.89.15,2.42,0,2.12-4.01,3.02-5.44,3.02-1.66,0-2.19-1.36-2.65-2.8-1.66-4.91-2.5-12.4-2.5-17.62s.6-10.66,1.74-15.5c.45-1.89.98-3.71,1.29-5.6.08-.53.3-1.89.98-1.89.23,0,3.55,1.36,4.08,1.59,1.66.76,5.14,2.19,5.14,3.02ZM652.24,80.4c1.44,0,1.59.91,1.89,2.04,1.59,6.05,2.34,15.5,2.34,21.77,0,13.08-2.19,24.19-11.72,33.87-1.21,1.21-4.31,4.23-6.05,4.23-1.21,0-5.6-3.7-5.6-5.29,0-.6.68-1.06,1.13-1.29,4.31-2.65,8.17-7.26,10.28-11.79,2.8-5.97,3.48-12.63,3.48-19.05,0-6.96-.6-14.44-2.65-21.09-.08-.3-.15-.68-.15-.98,0-1.66,6.2-2.42,7.03-2.42Z"/>
      <path class="cls-1" d="M684.85,96.58c0,.53-.45.76-.91,1.06-.98.6-1.06,1.44-1.06,3.33v1.29c0,1.36.76,1.89,2.12,1.89h3.63c1.51,0,2.95-.08,4.39-.08,3.4,0,3.55,1.97,3.55,4.16,0,3.33-.08,6.73-.3,10.06-.23,3.25-1.36,13.99-1.89,17.16-1.13,6.96-2.72,8.62-10.21,8.62-3.33,0-5.07.15-5.07-6.28,0-.83.08-1.89,1.06-1.89.6,0,1.74.15,2.72.15,2.12,0,3.18-.3,3.78-2.5,1.29-4.99,2.49-15.27,2.49-20.49,0-1.89-.45-1.89-3.25-1.89h-1.13c-1.44,0-2.04.45-2.34,1.97-.68,7.56-2.72,16.18-5.52,23.21-1.81,4.38-2.72,6.8-4.01,6.8-1.59,0-5.59-2.34-5.59-4.08,0-.53.53-1.51.83-2.04,4.76-9.22,7.49-22.15,7.49-32.59v-3.63c0-1.13,0-2.12-.15-3.63-.08-.53,0-2.04-1.59-2.04-1.13,0-2.34.15-3.48.15-1.97,0-1.89-.98-1.89-3.78s-.08-3.78,1.89-3.78c1.59,0,4.23.23,6.73.23h.68c1.51,0,2.12-.6,2.12-2.12v-2.95c0-1.66-.15-3.33-.3-4.91,0-.15-.08-.45-.08-.68,0-.91.83-1.06,1.59-1.06.91,0,2.5.15,3.55.23.53.08.98.08,1.44.15,2.19.15,3.33.23,3.33,1.13,0,.68-.45.91-.98,1.21-.83.38-.91.76-.91,3.25v3.63c0,1.51.6,2.12,2.12,2.12h1.13c2.42,0,5.07-.23,6.8-.23,2.04,0,1.89,1.06,1.89,3.78s.08,3.78-1.89,3.78c-1.59,0-4.31-.15-6.8-.15h-6.65c-.23,0-.38,0-.38.23,0,.15.15.23.3.3.45.15.76.38.76.91ZM725.83,91.29c2.57,0,5.07-.15,7.56-.15,1.74,0,1.66.91,1.66,3.7s.08,3.71-1.66,3.71c-1.13,0-2.34-.08-3.48-.08-.15,0-.38.08-.38.3,0,.15.15.3.38.3.38.15.91.38.91.91,0,.68-.76,1.06-1.29,1.51-.91.6-.98,1.36-1.13,2.34-1.29,7.11-3.02,12.48-6.35,18.83-.23.53-.38.91-.38,1.51,0,.68.3,1.21.76,1.74,3.33,3.86,8.01,7.86,12.32,10.66.53.3,1.13.76,1.13,1.36,0,1.59-3.25,5.14-4.84,5.14-2.57,0-10.96-8.85-12.93-11.11-.38-.38-.68-.6-1.29-.6s-.91.3-1.29.6c-3.86,4.39-8.54,7.94-13.61,10.89-.53.38-1.81,1.06-2.42,1.06-1.44,0-4.31-3.7-4.31-4.99,0-.83,1.44-1.51,2.57-2.12.23-.08.45-.23.6-.3,4.76-2.57,9.68-6.5,13-10.81.38-.53.68-.98.68-1.66,0-.6-.23-1.06-.53-1.59-2.72-5.14-4.01-9.53-5.14-15.2-.08-.3-.3-.6-.68-.6-.3,0-.45.23-.61.45-1.13,2.27-2.12,4.39-3.25,4.39-1.21,0-4.61-2.34-4.61-3.63,0-.3.98-2.12,1.21-2.57,3.02-6.05,5.67-13.08,7.41-19.66.53-1.97,1.66-6.5,1.89-8.39.08-.68.15-1.21.98-1.21.76,0,5.29,1.21,6.35,1.51.53.15,1.21.53,1.21,1.13,0,.53-.53.83-.91.98-.98.53-1.13,1.13-1.97,4.23-.38,1.36-.83,3.1-1.51,5.52-.08.15-.08.38-.08.53,0,.98.76,1.36,1.59,1.36h12.4ZM721.52,99.68c0-.98-.53-1.29-1.44-1.29h-7.33c-.98,0-1.74.38-1.74,1.51v.45c1.06,5.22,2.27,10.43,4.61,15.2.15.3.38.68.91.68.45,0,.76-.3.91-.68,1.89-4.08,4.08-11.34,4.08-15.88Z"/>
      <path class="cls-1" d="M747.97,142.25c-.08.53-.53.91-1.06.91-.68,0-.83-.53-1.21-1.21-.68-1.29-3.1-5.67-3.1-6.8,0-.98,2.19-1.81,2.95-2.12,1.06-.53,5.22-3.02,6.43-3.86,1.36-.91,1.59-1.51,1.59-3.18v-12.7c0-1.44-.6-2.12-2.12-2.12h-1.74c-1.29,0-2.57.23-3.86.23-1.74,0-1.66-1.13-1.66-3.7,0-2.72-.08-3.71,1.66-3.71,1.29,0,2.57.15,3.86.15h2.8c1.44,0,2.95-.15,4.46-.15,2.49,0,4.23.6,4.23,3.48,0,2.12-.15,4.23-.15,6.35v10.74c0,4.84,1.13,7.94,6.12,9.38,4.99,1.44,16.41,1.44,21.85,1.44s10.89,0,16.26-.23c.68,0,3.7-.23,4.01-.23,1.44,0,1.51.98,1.51,2.19,0,4.84-1.66,5.29-5.14,5.29h-18.75c-5.07,0-17.47-.08-21.77-1.51-3.1-1.06-5.22-2.5-7.11-5.14-.38-.45-.76-.91-1.44-.91-.45,0-.76.23-1.13.53-2.04,1.74-4.23,3.4-6.35,5.07-.76.53-.98.91-1.13,1.81ZM758.03,94.92c-.68,0-1.06-.45-1.59-1.13-3.4-3.93-6.35-7.18-10.28-10.59-.45-.38-1.06-.83-1.06-1.51,0-1.29,3.33-4.08,4.54-4.08,1.13,0,6.43,5.29,7.48,6.35,1.06,1.13,5.67,5.82,5.67,7.03s-3.1,3.93-4.76,3.93ZM781.62,96.51h-3.25c-2.72,0-5.44.23-8.17.23-1.81,0-1.74-.98-1.74-3.48s-.08-3.4,1.74-3.4c2.72,0,5.44.15,8.17.15h9.98c1.59,0,2.27-.23,3.1-1.59,2.19-3.48,3.86-7.26,5.44-11.04.15-.45.45-1.36,1.06-1.36s1.97.68,2.65.98c.91.38,5.14,1.97,5.14,3.02,0,.76-.68.76-1.29.76s-.91.08-1.29.6l-4.08,6.96c-.15.23-.23.45-.23.68,0,.76.53.91,1.13.98.53,0,4.69-.15,5.14-.15,1.89,0,1.81.98,1.81,3.4s0,3.48-1.81,3.48c-2.72,0-5.44-.23-8.17-.23h-3.55c-1.44,0-2.12.6-2.19,2.12,0,1.36-.15,2.72-.15,4.01-.08,1.44.6,1.97,1.97,1.97h7.03c2.72,0,5.44-.15,8.17-.15,1.89,0,1.81.98,1.81,3.4s.08,3.4-1.81,3.4c-2.72,0-5.44-.15-8.17-.15h-6.05c-.6.08-1.21.3-1.21.98,0,.3.15.45.3.68,4.31,5.82,9.75,10.06,16.18,13.31.53.3.83.53.83,1.13,0,1.81-2.34,4.99-4.16,4.99-2.27,0-12.55-7.41-17.24-14.44-.3-.3-.53-.6-1.06-.6-.45,0-.76.3-1.06.68-4.46,7.03-14.97,14.37-17.77,14.37-1.74,0-3.93-4.01-3.93-5.07,0-.91,1.06-1.36,1.74-1.66,5.75-2.65,11.11-6.88,14.37-12.48.08-.23.15-.45.15-.76,0-1.06-1.21-1.06-1.44-1.13h-4.08c-2.72,0-5.44.15-8.17.15-1.89,0-1.81-.91-1.81-3.4s-.08-3.4,1.81-3.4c2.72,0,5.44.15,8.17.15h5.67c1.44,0,2.04-.53,2.27-1.97.08-1.36.15-2.72.15-4.08-.08-1.44-.68-2.04-2.12-2.04ZM777.61,89.7c-.91,0-1.13-.53-1.44-1.21-1.36-2.8-2.95-5.44-4.69-7.94-.23-.38-.68-.98-.68-1.36,0-1.36,4.08-2.8,5.37-2.8.68,0,.91.23,1.36.76.83,1.13,2.12,3.1,2.87,4.39.53.91,2.57,4.61,2.57,5.52,0,1.74-4.76,2.65-5.37,2.65Z"/>
      <path class="cls-1" d="M829.17,131.13c0,3.71.15,7.41.15,11.11,0,2.42-.76,2.5-3.93,2.5s-3.93-.08-3.93-2.42c0-3.78.23-7.48.23-11.19v-41.05c0-2.34-.15-4.69-.15-7.03,0-3.02,1.13-3.86,4.01-3.86,1.97,0,3.86.08,5.75.08h8.39c1.89,0,3.71-.08,5.6-.08,2.95,0,4.16.76,4.16,3.78,0,2.27-.15,4.54-.15,6.8v3.1c0,2.12.15,4.23.15,6.35,0,2.87-1.21,3.78-4.01,3.78-1.89,0-3.86-.15-5.75-.15h-8.39c-1.51,0-2.12.6-2.12,2.12v26.16ZM841.8,86.6c0-.91-.53-1.44-1.44-1.44h-9.75c-.91,0-1.44.53-1.44,1.44v.53c.08.83.53,1.44,1.44,1.44h9.75c.91,0,1.36-.6,1.44-1.44v-.53ZM829.17,95.37c0,1.06.68,1.81,1.81,1.81h9c1.06,0,1.81-.76,1.81-1.81v-.15c0-1.06-.76-1.81-1.81-1.81h-9c-1.13,0-1.81.76-1.81,1.81v.15ZM863.34,130.3c0,3.1.15,6.12.15,9.22,0,2.12-.83,2.19-3.7,2.19-3.1,0-3.78-.15-3.78-2.34,0-3.02.23-6.05.23-9.07v-2.12c0-1.51-.68-2.12-2.12-2.12h-2.72c-1.51,0-2.12.45-2.5,1.89-1.44,5.37-4.08,8.85-8.32,12.32-.76.6-1.97,1.74-2.95,1.74-1.59,0-4.76-3.25-4.76-4.54,0-.76,1.06-1.29,1.66-1.66,3.02-1.97,5.52-4.39,6.88-7.79.08-.23.15-.45.15-.68,0-.91-.68-1.21-1.51-1.29-1.81,0-3.63.15-5.44.15s-1.66-1.13-1.66-3.18c0-2.27,0-3.1,1.74-3.1s4.08.15,5.9.08c1.44,0,1.97-.68,1.97-2.04v-2.42c0-1.36-.53-2.04-1.97-2.04-1.13,0-2.27.08-3.4.08-1.81,0-1.74-1.06-1.74-3.1s-.08-3.1,1.74-3.1c2.19,0,4.39.15,6.5.15h18.07c2.19,0,4.39-.15,6.58-.15,1.81,0,1.66,1.13,1.66,3.1s.15,3.1-1.66,3.1c-.98,0-1.97-.08-2.95-.08-1.44,0-2.04.6-2.04,2.04v2.42c0,1.36.45,2.04,1.89,2.04,1.51.08,4.16-.08,5.44-.08,1.74,0,1.74.83,1.74,3.1s0,3.18-1.74,3.18c-.76,0-4.54-.15-5.44-.15-1.44.15-1.89.68-1.89,2.12v2.12ZM854.12,120.02c1.29,0,1.97-.83,2.12-2.04v-2.42c-.15-1.29-.83-2.12-2.12-2.12h-2.34c-1.36.15-1.97.83-2.12,2.12v2.42c.15,1.29.76,2.04,2.12,2.04h2.34ZM865.84,102.86c-1.89,0-3.78.15-5.67.15-2.87,0-4.08-.83-4.08-3.78,0-2.12.15-4.23.15-6.35v-3.1c0-2.27-.15-4.54-.15-6.8,0-2.95,1.21-3.78,4.01-3.78,1.97,0,3.86.08,5.75.08h8.39c1.89,0,3.71-.08,5.59-.08,2.87,0,4.16.76,4.16,3.78,0,2.34-.15,4.76-.15,7.11v39.54c0,2.04.15,4.16.15,6.2,0,2.65-.53,5.59-2.95,7.11-1.97,1.29-5.67,1.66-8.09,1.66-2.65,0-4.31-.08-4.31-5.82,0-1.06.23-1.89,1.51-1.89h.98c.68.08,1.66.23,2.34.23,3.18,0,2.87-1.89,2.87-4.23v-27.9c0-1.51-.6-2.12-2.12-2.12h-8.39ZM876.35,86.6c0-.91-.53-1.44-1.44-1.44h-9.75c-.91,0-1.44.53-1.44,1.44v.53c.08.83.53,1.44,1.44,1.44h9.75c.91,0,1.36-.6,1.44-1.44v-.53ZM863.72,95.37c0,1.06.68,1.81,1.81,1.81h9c1.06,0,1.81-.76,1.81-1.81v-.15c0-1.06-.76-1.81-1.81-1.81h-9c-1.13,0-1.81.76-1.81,1.81v.15Z"/>
      <path class="cls-1" d="M912.56,130.23c-.6,0-.98.38-1.36.91-1.44,2.5-8.32,12.48-11.11,12.48-1.36,0-5.14-2.19-5.14-3.71,0-.76.98-1.59,1.66-2.27l.38-.38c3.78-3.78,6.05-6.73,8.77-11.27.23-.3.38-.68.38-1.06,0-.6-.38-1.06-.83-1.36l-1.81-1.36c-.23-.15-.45-.3-.76-.3-.6,0-.91.45-1.21.91-.3.83-.76,1.44-1.74,1.44-1.21,0-5.37-1.36-5.37-2.72,0-.45.38-1.51.53-2.04,2.04-6.35,3.86-12.85,5.37-19.36v-.53c0-.98-.68-1.36-1.59-1.44-.68,0-1.89.08-2.5.08-1.74,0-1.74-.91-1.74-3.78,0-3.02,0-3.86,1.81-3.86,1.21,0,2.5.08,3.7.15,1.44-.08,2.19-.53,2.42-1.89.6-3.4.83-6.8,1.21-10.21.15-1.36.15-2.42,1.13-2.42.53,0,6.05,1.06,6.96,1.21.53.15,1.13.38,1.13.98,0,.53-.45.91-.91,1.06-1.06.45-1.06.6-1.59,4.99-.15,1.13-.38,2.57-.6,4.31v.45c0,1.13.83,1.51,1.81,1.51h5.82c2.27,0,3.63,1.06,3.63,3.48,0,1.13-.23,3.55-.3,4.76-.76,7.86-1.89,14.59-4.69,22-.15.38-.23.68-.23,1.13,0,.91.45,1.36,1.06,1.97,1.13.98,6.2,5.37,6.2,6.65s-2.65,4.91-4.08,4.91c-.53,0-2.12-1.66-3.55-3.18-.6-.6-1.21-1.29-1.74-1.74-.38-.3-.68-.53-1.13-.53ZM907.72,100.06c-.91,4.16-1.97,8.32-3.1,12.48-.08.3-.08.53-.08.91,0,.98.45,1.51,1.21,2.12.76.45,1.44.98,2.19,1.51.3.15.6.3.98.3.68,0,1.06-.45,1.29-1.06,1.51-4.08,3.18-12.32,3.18-16.63,0-1.74-1.13-1.66-3.18-1.59-1.51,0-2.12.45-2.5,1.97ZM947.94,98.4c.68-.15,1.29-.45,1.29-1.29,0-.23-.08-.45-.23-.68-.23-.38-.6-1.06-1.06-1.74-.98-1.66-2.27-3.71-2.27-4.23,0-1.51,4.39-2.8,5.07-2.8.98,0,1.51.76,1.97,1.51,2.34,3.63,3.63,5.82,5.6,9.75.68,1.44,3.4,6.96,3.4,8.24,0,1.97-4.39,2.95-5.22,2.95-1.36,0-1.51-.98-2.72-3.93-.6-1.06-1.06-1.59-2.27-1.59h-.53c-7.79.98-15.65,1.89-23.51,2.72-.61.15-.76.45-1.13,1.13-.23.38-.6.76-1.06.76-.76,0-1.06-.91-1.59-2.65-.3-.98-1.36-4.39-1.36-5.29s.98-.98,3.86-.98h.6c1.44-.15,2.04-.53,2.57-1.97,2.5-7.11,4.39-13.46,6.2-20.79.15-.68.3-1.51,1.06-1.51,1.13,0,5.37,1.29,6.5,1.74.83.3,1.97.76,1.97,1.51,0,.68-.53.76-.91.83-.68.15-1.13.23-1.36.91-1.81,5.67-3.78,11.19-5.9,16.71-.08.15-.15.38-.15.6,0,.83.68,1.06,1.36,1.06,3.33-.3,6.58-.6,9.83-.98ZM950.51,141.95c0-.91-.45-1.29-1.36-1.29h-14.52c-.98,0-1.36.38-1.44,1.36.08.23.08.38.08.6,0,1.66-.91,1.66-3.93,1.66s-3.86-.08-3.86-1.74c0-1.89.15-3.86.15-5.75v-15.2c0-1.51-.08-3.02-.08-4.61,0-2.57,1.74-3.1,4.01-3.1,1.81,0,3.63.15,5.44.15h13.91c1.81,0,3.63-.15,5.44-.15,2.27,0,4.01.45,4.01,3.18,0,1.51-.08,3.02-.08,4.54v15.27c0,1.97.15,3.86.15,5.82,0,1.66-.91,1.66-3.93,1.66s-4.01.08-4.01-1.59v-.83ZM948.55,133.86c1.29-.15,1.97-.76,2.12-2.12v-8.62c-.15-1.29-.83-2.04-2.12-2.04h-13.31c-1.36,0-1.97.76-2.12,2.04v8.62c.15,1.36.76,2.12,2.12,2.12h13.31Z"/>
      <path class="cls-1" d="M983.54,133.63c0,3.02-2.04,5.75-5.75,5.75-2.95,0-5.14-1.97-5.14-4.91,0-3.25,2.04-5.97,5.67-5.97,2.95,0,5.22,2.19,5.22,5.14ZM976.89,122.82c-1.89,0-2.27-.38-2.34-2.27l-.53-18.67c-.15-4.99-.53-13.38-.53-14.89,0-1.29.45-1.59,2.12-1.59h4.91c1.66,0,2.12.3,2.12,1.59,0,1.51-.38,9.9-.53,15.42l-.45,18.15c-.08,1.89-.45,2.27-2.34,2.27h-2.42Z"/>
    </g>
  </g>
</svg>