<?xml version="1.0" encoding="UTF-8"?>
<svg id="_レイヤー_2" data-name="レイヤー 2" xmlns="http://www.w3.org/2000/svg" viewBox="0 0 592.47 210.16">
  <defs>
    <style>
      .cls-1 {
        fill: #fff;
        stroke: #fff;
        stroke-miterlimit: 10;
        stroke-width: .78px;
      }
    </style>
  </defs>
  <g id="_layout">
    <g>
      <path class="cls-1" d="M23.32,37.75c0,3.95.2,11.43.2,11.91,0,1.43-.41,1.7-1.97,1.7h-4.29c-1.56,0-1.97-.27-1.97-1.7,0-.48.2-7.96.2-11.91V12.57c0-1.7-.34-2.04-2.04-2.04h-2.11c-2.86,0-8.71.2-9.19.2-1.43,0-1.7-.41-1.7-1.97v-3.74c0-1.56.27-1.97,1.7-1.97.48,0,6.67.14,9.87.14h14.83c3.2,0,9.39-.14,9.87-.14,1.43,0,1.7.41,1.7,1.97v3.74c0,1.56-.27,1.97-1.7,1.97-.48,0-6.33-.2-9.19-.2h-2.18c-1.7,0-2.04.34-2.04,2.04v25.17Z"/>
      <path class="cls-1" d="M77.68,39.45c-1.22,2.93-2.65,6.26-4.08,10-.61,1.63-.95,1.9-2.72,1.9h-2.86c-1.77,0-2.11-.27-2.79-1.9-1.43-3.74-2.79-7.01-4.01-9.93l-9.66-22.72c-1.56-3.61-3.06-7.08-5.24-11.77-.2-.48-.34-.88-.34-1.16,0-.54.48-.68,1.56-.68h5.24c1.77,0,2.11.27,2.72,1.9,1.63,4.42,2.99,7.69,4.22,10.82l9.12,22.11c.2.54.48.82.75.82s.48-.27.75-.82l9.05-21.98c1.29-3.27,2.65-6.53,4.22-10.95.61-1.63.95-1.9,2.72-1.9h5.03c1.09,0,1.5.14,1.5.68,0,.27-.14.61-.34,1.16-2.18,4.69-3.74,8.3-5.17,11.7l-9.66,22.73Z"/>
      <path class="cls-1" d="M139.8,5.7c2.25,0,4.9,0,7.08-.34.27-.07.54-.07.88-.07,1.02,0,1.7.88,2.52,1.77.82.88,2.52,2.72,2.52,3.95,0,.75-.95,1.43-1.5,1.84-.41.34-5.51,5.65-6.33,6.53-2.38,2.45-5.92,5.92-8.44,8.16-.48.41-.95.95-1.63.95-1.16,0-4.97-2.99-4.97-4.15,0-.68,1.22-1.63,1.7-2.04,1.22-1.09,8.78-7.76,8.78-8.71s-1.5-.82-2.11-.82h-29.19c-3.13,0-6.19.2-9.25.2-1.77,0-1.84-.75-1.84-3.47v-1.36c0-1.77.14-2.59,1.7-2.59,3.13,0,6.26.14,9.39.14h30.69ZM127.9,16.59c.48.07,1.43.07,1.43.82,0,.27-.2.48-.41.68-.88.95-1.16,3.61-1.36,4.9-1.97,12.45-6.19,21.09-16.33,28.92-.54.41-1.5,1.22-2.25,1.22-1.16,0-5.58-3.54-5.58-4.76,0-.61.68-.88,1.63-1.5,7.21-4.49,12.18-11.57,14.22-19.8.95-3.67,1.09-6.4,1.09-10.14,0-.54,0-.88.68-.88.88,0,5.85.41,6.87.54Z"/>
      <path class="cls-1" d="M197.84,35.84c2.72,0,5.44-.14,8.16-.14,2.25,0,2.18.61,2.18,4.15,0,2.25,0,3.54-1.9,3.54-2.79,0-5.65-.14-8.44-.14h-31.3c-2.79,0-5.65.14-8.44.14-1.9,0-1.9-1.29-1.9-3.61,0-3.47-.07-4.08,2.18-4.08,2.72,0,5.44.14,8.16.14h31.3ZM191.04,7.13c2.93,0,5.85-.14,8.78-.14,1.77,0,1.91.68,1.91,3.81,0,2.65.07,3.88-2.04,3.88-2.86,0-5.72-.14-8.57-.14h-17.83c-2.86,0-5.72.14-8.57.14-2.11,0-2.04-1.22-2.04-3.95,0-3.13.2-3.74,1.91-3.74,2.93,0,5.85.14,8.78.14h17.69Z"/>
      <path class="cls-1" d="M245.27,19.17c2.18-4.15,4.97-10.82,5.51-15.38.07-.54.14-1.5.75-1.5s3.74,1.16,4.76,1.56c1.29.48,3.61,1.29,3.61,2.04,0,.41-.41.68-.75.88-1.02.68-1.16,1.22-1.56,2.38-1.7,4.9-4.08,10.27-6.53,14.83-.2.41-.41.75-.41,1.22,0,.88.61,1.36,1.29,1.91.88.68,5.03,3.95,5.03,4.83,0,1.22-3.13,5.51-4.42,5.51-.68,0-1.29-.61-1.7-1.02-.88-.95-3.61-3.74-4.76-3.74-.82,0-1.22.54-1.7,1.09-3.54,4.35-7.48,7.96-12.11,11.16-1.63,1.16-9.32,5.85-10.95,5.85-1.5,0-4.83-4.15-4.83-5.1,0-.82,1.09-1.22,1.97-1.56.2-.07.41-.14.54-.2,7.28-2.99,13.74-7.62,18.85-13.61.41-.48,1.09-1.22,1.09-1.91,0-.61-.34-1.09-.88-1.36-2.31-1.29-5.58-2.31-8.1-3.2-.68-.2-1.43-.54-1.43-1.36,0-.75,1.7-5.44,3.47-5.44,1.63,0,8.23,2.99,10,3.88.41.14.61.27,1.02.27,1.36,0,1.7-1.09,2.25-2.04Z"/>
      <path class="cls-1" d="M310.79,21.21c3.13,0,7.55-.2,8.44-.2,1.84,0,1.9.54,1.9,4.29,0,2.18-.07,3.47-1.84,3.47-2.86,0-5.72-.14-8.5-.14h-31.3c-2.79,0-5.65.14-8.5.14-1.77,0-1.84-1.29-1.84-3.4,0-3.81.14-4.35,1.9-4.35.88,0,5.58.2,8.44.2h31.3Z"/>
      <path class="cls-1" d="M333.45,15.09c.88,0,7.28,3.95,8.44,4.69,1.84,1.09,5.31,2.99,5.31,4.08,0,1.23-2.72,5.24-4.08,5.24-.48,0-1.16-.48-1.56-.75-3.81-2.72-6.8-4.56-10.82-6.87-.48-.27-1.16-.54-1.16-1.16,0-1.09,2.59-5.24,3.88-5.24ZM335.69,44.28c1.84-.41,6.19-1.97,8.1-2.72,6.6-2.65,11.98-5.58,16.94-10.68,5.51-5.78,8.98-13.13,11.63-20.55.27-.68.54-1.63,1.43-1.63,1.02,0,5.1,3.74,5.1,5.1,0,.48-.54,1.7-.88,2.65-.14.48-.34.82-.41,1.09-2.72,6.74-7.35,14.08-12.59,19.26-6.33,6.19-14.97,10.75-23.27,13.74-1.63.61-1.77.75-2.59,1.97-.14.2-.41.41-.68.41-.75,0-1.29-1.5-1.7-2.31-.75-1.63-1.5-3.27-2.25-4.9-.07-.14-.14-.41-.14-.61,0-.54.88-.68,1.29-.82ZM348.75,4.54c1.43,1.02,3.88,2.72,5.1,3.74.41.34.75.68.75,1.16,0,1.23-2.86,5.04-4.08,5.04-.54,0-1.29-.54-1.7-.88-3.2-2.59-6.53-5.03-10-7.21-.48-.27-1.16-.68-1.16-1.29,0-.95,2.93-4.69,4.15-4.69.82,0,4.08,2.25,5.92,3.47.48.27.82.54,1.02.68Z"/>
      <path class="cls-1" d="M410.26,15.22c1.29,0,2.65-.07,4.01-.07,3.27,0,3.74,1.02,3.74,3.81,0,1.02-.07,2.38-.07,3.95v20.96c0,1.43.07,2.93.07,4.35,0,2.18-.61,2.31-2.99,2.31-2.72,0-3.06-.14-3.4-1.5-.14-.75-.68-.75-2.11-.75h-15.99c-2.38,0-5.17.07-6.74.07s-1.63-1.16-1.63-3.67c0-1.23-.07-2.65,1.5-2.65,1.22,0,4.35.14,6.8.14h16.6c.88,0,1.56-.68,1.56-1.56v-4.29c0-.82-.68-1.56-1.56-1.56h-15.92c-2.38,0-5.38.14-6.8.14-1.63,0-1.5-1.43-1.5-3.67,0-1.29-.14-2.59,1.5-2.59,1.5,0,4.35.14,6.74.14h15.99c.88,0,1.56-.68,1.56-1.56v-4.29c0-.88-.68-1.63-1.56-1.63h-16.47c-2.04,0-4.97.14-6.67.14-1.56,0-1.63-1.09-1.63-2.99s-.14-3.33,1.5-3.33c1.29,0,4.49.14,6.74.14h16.74Z"/>
      <path class="cls-1" d="M476.53,18.63c0,1.16-2.72,3.81-3.61,4.69-11.02,11.36-22.59,18.98-36.95,25.65-2.25,1.09-2.31,1.16-2.86,2.31-.14.27-.34.41-.68.41-.75,0-2.18-2.72-2.65-3.54-.41-.68-2.04-3.4-2.04-4.08,0-.75,1.23-.88,2.11-1.16,15.04-4.42,32.05-17.28,41.71-29.6.27-.34.68-.75,1.16-.75,1.36,0,3.81,5.04,3.81,6.06ZM441.43,7.4c.88.61,4.15,2.86,4.15,3.88,0,1.56-3.2,5.24-4.49,5.24-.54,0-1.84-1.02-2.72-1.84-1.91-1.7-6.6-4.83-9.05-6.33-.54-.34-1.09-.68-1.09-1.29,0-1.02,2.72-5.38,4.29-5.38,1.09,0,7.62,4.76,8.91,5.72Z"/>
      <path class="cls-1" d="M21.76,118.05c3.47,0,9.87-.14,10.34-.14,1.43,0,1.7.41,1.7,1.97v3.2c0,1.56-.27,1.97-1.7,1.97-.48,0-6.87-.14-10.34-.14h-8.85c-3.47,0-9.87.14-10.34.14-1.43,0-1.7-.41-1.7-1.97v-1.22c0-1.77.2-2.25,1.63-3.33,1.23-.88,2.31-1.84,3.47-2.86,12.25-10.75,19.32-17.55,19.32-24.22,0-4.42-3.06-7.48-8.64-7.48-4.08,0-7.62,1.97-9.93,4.49-.61.68-1.02.95-1.43.95-.34,0-.75-.34-1.36-.95l-2.72-2.93c-.54-.61-.82-1.02-.82-1.43,0-.48.34-.88.95-1.5,3.88-3.67,9.53-6.19,15.99-6.19,10.34,0,16.13,6.12,16.13,13.95,0,9.59-7.69,17.28-18.1,26.33-.54.48-.75.75-.75.95,0,.27.41.41,1.22.41h5.92Z"/>
      <path class="cls-1" d="M80.27,99.82c0,16.19-9.32,25.65-20.68,25.65s-19.53-8.23-19.53-23.75c0-13.95,7.14-25.24,20.55-25.24,10.68,0,19.66,7.82,19.66,23.34ZM48.02,101.93c0,10.61,4.69,16.26,11.57,16.26,7.28,0,12.72-7.01,12.72-18.1s-4.97-15.99-11.7-15.99c-8.64,0-12.59,8.23-12.59,17.83Z"/>
      <path class="cls-1" d="M104.99,118.05c3.47,0,9.87-.14,10.34-.14,1.43,0,1.7.41,1.7,1.97v3.2c0,1.56-.27,1.97-1.7,1.97-.48,0-6.87-.14-10.34-.14h-8.85c-3.47,0-9.87.14-10.34.14-1.43,0-1.7-.41-1.7-1.97v-1.22c0-1.77.2-2.25,1.63-3.33,1.23-.88,2.31-1.84,3.47-2.86,12.25-10.75,19.32-17.55,19.32-24.22,0-4.42-3.06-7.48-8.64-7.48-4.08,0-7.62,1.97-9.93,4.49-.61.68-1.02.95-1.43.95-.34,0-.75-.34-1.36-.95l-2.72-2.93c-.54-.61-.82-1.02-.82-1.43,0-.48.34-.88.95-1.5,3.88-3.67,9.53-6.19,15.99-6.19,10.34,0,16.13,6.12,16.13,13.95,0,9.59-7.69,17.28-18.1,26.33-.54.48-.75.75-.75.95,0,.27.41.41,1.22.41h5.92Z"/>
      <path class="cls-1" d="M133.5,96.55c2.31-1.5,6.74-2.93,10.95-2.93,8.03,0,15.31,4.63,15.31,14.56,0,10.68-8.23,17.35-18.78,17.35-11.63,0-18.3-7.76-18.3-18.98,0-9.66,3.33-17.21,8.57-22.59,4.35-4.42,12.52-7.55,19.12-7.55,1.36,0,1.63.34,1.63,1.91v3.54c0,1.77-.27,2.04-2.04,2.25-5.85.54-10.68,2.72-14.29,6.33-1.9,1.91-3.95,5.44-3.95,6.6,0,.2.14.27.27.27.27,0,.82-.27,1.5-.75ZM132.21,103.77c-1.7,1.22-1.84,2.25-1.84,3.67,0,6.74,4.29,11.29,10.95,11.29s10.68-4.56,10.68-9.93c0-4.76-3.47-8.44-9.46-8.44-3.47,0-7.35,1.16-10.34,3.4Z"/>
      <path class="cls-1" d="M201.68,89.55c0,1.29.54,1.77,1.91,1.9h5.44c2.38,0,4.69-.2,7.08-.2,1.7,0,1.7.75,1.7,3.47s-.07,3.33-1.7,3.33c-2.38,0-4.69-.14-7.08-.14h-5.44c-1.36,0-1.91.54-1.91,1.91v6.06c0,1.36.54,1.91,1.91,1.91h11.23c2.86,0,5.71-.14,8.57-.14,1.7,0,1.63.82,1.63,3.4s.07,3.4-1.63,3.4c-2.86,0-5.72-.14-8.57-.14h-11.23c-1.36,0-1.91.54-1.91,1.91v1.9c0,3.33.2,6.6.2,9.87,0,2.25-.88,2.25-3.95,2.25s-3.88,0-3.88-2.18c0-3.33.2-6.6.2-9.93v-1.9c0-1.36-.54-1.91-1.91-1.91h-16.87c-2.86,0-5.72.14-8.57.14-1.7,0-1.63-.75-1.63-3.33,0-2.72-.07-3.47,1.63-3.47,2.18,0,4.42.2,6.67.14,1.22,0,1.7-.68,1.7-1.91v-6.46c0-1.7-.07-3.33-.07-5.04,0-2.38,1.02-3.06,3.33-3.06,1.63,0,3.27.14,4.9.14h8.91c1.36-.14,1.91-.61,1.91-1.9v-5.17c0-1.36-.54-1.91-1.91-1.91h-8.98c-1.5,0-1.91.27-2.86,1.43-2.65,4.08-5.85,7.82-9.32,11.23-.54.54-1.43,1.5-2.25,1.5-1.36,0-4.56-3.2-4.56-4.49,0-.68,1.22-1.63,1.7-2.04,6.26-5.31,11.36-12.93,13.95-20.68.2-.61.41-.95.95-.95.75,0,5.58,1.5,6.6,1.84.48.14,1.16.34,1.16.95,0,.48-.61.75-1.02.88-1.09.34-1.02.54-1.7,1.97-.07.27-.14.41-.14.68,0,.75.54.95,1.23,1.02h24.7c2.79,0,5.51-.2,8.3-.2,1.7,0,1.63.88,1.63,3.54s.07,3.47-1.63,3.47c-2.79,0-5.51-.14-8.3-.14h-8.23c-1.36,0-1.91.54-1.91,1.91v5.17ZM183.92,97.92c-1.16.14-1.77.75-1.91,1.91v6.06c.14,1.23.75,1.77,1.91,1.91h8.44c1.22-.14,1.77-.68,1.91-1.91v-6.06c-.14-1.16-.68-1.77-1.91-1.91h-8.44Z"/>
      <path class="cls-1" d="M249.85,111.46c0,3.95.2,11.09.2,11.91,0,1.43-.41,1.7-1.97,1.7h-4.22c-1.56,0-1.97-.27-1.97-1.7,0-.82.2-7.96.2-11.91v-23.81c0-1.16-.2-1.63-.82-1.63-.27,0-.61.07-1.09.27-2.04.75-4.35,1.7-6.12,2.52-.54.27-.95.41-1.29.41-.61,0-.88-.48-1.22-1.5l-1.29-3.4c-.2-.54-.27-.95-.27-1.29,0-.61.41-.95,1.56-1.29,3.27-1.02,7.42-2.59,10.61-4.01,1.43-.61,2.45-.82,4.01-.82h1.84c1.56,0,1.97.27,1.97,1.7,0,1.02-.14,7.96-.14,11.91v20.96Z"/>
      <path class="cls-1" d="M299.03,109.41c0-1.36-.54-1.9-1.9-1.9h-20c-1.29,0-1.97.48-2.18,1.77-.95,5.72-2.79,11.16-5.85,16.06-.82,1.29-2.65,4.35-4.29,4.35-1.29,0-4.97-2.45-4.97-4.08,0-.61.54-1.16.95-1.63,6.67-8.1,7.69-18.78,7.69-28.85v-13.81c0-2.18-.14-4.35-.14-6.53,0-2.79,1.29-3.54,3.88-3.54,2.04,0,4.08.14,6.12.14h18.03c2.04,0,4.08-.14,6.12-.14,2.65,0,3.95.68,3.95,3.54,0,2.18-.14,4.35-.14,6.53v34.7c0,1.7.14,3.4.14,5.1,0,2.59-.14,4.9-2.25,6.6-2.65,2.11-6.67,2.25-9.93,2.25-1.36,0-3.13-.07-3.61-1.63-.34-1.02-.61-3.06-.61-4.08s.34-1.7,1.5-1.7c1.02,0,2.45.14,3.61.14,3.54,0,3.88-.82,3.88-4.15v-9.12ZM297.12,86.21c1.16-.14,1.77-.75,1.9-1.91v-4.29c-.14-1.16-.75-1.77-1.9-1.91h-19.46c-1.16.14-1.77.75-1.91,1.91v4.29c.14,1.16.75,1.77,1.91,1.91h19.46ZM277.6,101.05h19.53c1.36,0,1.9-.54,1.9-1.91v-4.56c0-1.29-.54-1.84-1.9-1.84h-19.46c-1.29,0-1.91.54-1.91,1.84v.2c0,1.5.07,2.99,0,4.42.07,1.29.48,1.84,1.84,1.84Z"/>
      <path class="cls-1" d="M342.48,99.07c0,.2.34.41,1.02.61,5.44,1.84,7.82,5.85,7.82,10.75,0,7.55-5.58,15.1-20.41,15.1-4.97,0-9.66-1.02-12.72-2.45-1.02-.48-1.43-.88-1.43-1.56,0-.34.07-.75.27-1.22l1.16-3.33c.34-.95.61-1.43,1.16-1.43.27,0,.68.2,1.29.54,2.45,1.5,6.19,2.65,10.55,2.65,8.03,0,12.04-4.15,12.04-8.44,0-4.69-3.95-7.08-12.72-7.08-1.5,0-3.88.07-4.56.07-1.77,0-2.04-.27-2.04-1.97v-3.06c0-1.77.27-2.04,2.04-2.04.75,0,2.59.07,3.88.07,8.23,0,11.29-2.93,11.29-6.67s-3.33-5.99-8.57-5.99c-3.74,0-7.08,1.09-9.53,2.65-.61.41-1.02.61-1.36.61-.48,0-.82-.41-1.22-1.36l-1.5-3.13c-.27-.61-.41-1.02-.41-1.36,0-.61.41-.95,1.36-1.43,3.61-1.91,8.37-3.2,13.47-3.2,11.16,0,15.72,5.65,15.72,11.77,0,3.74-1.5,7.89-5.72,10.14-.54.27-.88.54-.88.75Z"/>
      <path class="cls-1" d="M393.37,124.31h-20.75c-1.09,0-1.56.48-1.56,1.56v.68c0,1.9-.68,1.9-3.88,1.9-2.93,0-3.88,0-3.88-1.84,0-2.86.2-5.72.2-8.5v-34.22c0-2.18-.14-4.29-.14-6.46,0-2.72,1.09-3.54,3.74-3.54,1.97,0,3.95.14,5.99.14h19.87c1.97,0,3.95-.14,5.92-.14,2.59,0,3.74.68,3.74,3.47,0,2.18-.14,4.35-.14,6.53v34.09c0,2.86.2,5.65.2,8.5,0,1.91-.82,1.84-3.88,1.84s-3.88,0-3.88-1.84c0-.2,0-.41.07-.61-.07-1.09-.54-1.56-1.63-1.56ZM393.23,95.33c1.16-.14,1.77-.75,1.91-1.91v-10.89c-.14-1.16-.75-1.77-1.91-1.9h-20.48c-1.16.14-1.77.75-1.91,1.9v10.89c.14,1.16.75,1.77,1.91,1.91h20.48ZM370.84,115.67c.14,1.16.75,1.77,1.91,1.9h20.48c1.16-.14,1.77-.75,1.91-1.9v-11.98c-.14-1.16-.75-1.77-1.91-1.9h-20.48c-1.16.14-1.77.75-1.91,1.9v11.98Z"/>
      <path class="cls-1" d="M423.84,129.49c-.41.2-.77.36-1.02.36-.46,0-.77-.31-1.17-.92-4.69-6.89-7.19-15-7.19-22.96s2.5-16.02,7.19-22.91c.41-.61.71-.92,1.17-.92.26,0,.61.15,1.02.36l1.48.71c.66.31.97.61.97.97,0,.26-.15.56-.46.97-3.83,5.66-6.58,12.86-6.58,20.82s2.76,15.15,6.58,20.82c.31.46.46.77.46,1.02,0,.36-.31.66-.97.97l-1.48.71Z"/>
      <path class="cls-1" d="M448.69,99.08c0-.97-.41-1.38-1.38-1.38h-7.55c-1.94,0-3.93.1-5.92.1-1.28,0-1.22-.56-1.22-2.6s-.05-2.65,1.22-2.65c1.99,0,3.98.1,5.92.1h7.55c.97,0,1.38-.41,1.38-1.43v-8.62c0-1.28,0-2.6-.15-3.62-.05-.15-.05-.31-.05-.46,0-.66.46-.77.97-.77.77,0,4.03.25,5,.36.41.05,1.22.05,1.22.66,0,.46-.36.61-.77.92-.56.36-.61,1.28-.61,2.86v8.67c0,1.02.41,1.43,1.43,1.43h7.55c1.99,0,3.98-.1,5.97-.1,1.22,0,1.22.51,1.22,2.65s0,2.6-1.22,2.6c-1.99,0-3.98-.1-5.97-.1h-7.55c-1.02,0-1.43.41-1.43,1.38v15.46c0,1.02.41,1.43,1.43,1.43h11.07c1.99,0,3.98-.1,6.02-.1,1.28,0,1.22.51,1.22,2.6s0,2.65-1.22,2.65c-1.99,0-4.03-.15-6.02-.15h-30.72c-1.99,0-4.03.15-6.02.15-1.28,0-1.22-.56-1.22-2.65s-.05-2.6,1.22-2.6c2.04,0,4.03.1,6.02.1h11.23c.97,0,1.38-.41,1.38-1.43v-15.46Z"/>
      <path class="cls-1" d="M476.62,127.81c0-.25.15-.56.46-1.02,3.83-5.66,6.58-12.86,6.58-20.82s-2.76-15.15-6.58-20.82c-.31-.41-.46-.71-.46-.97,0-.36.31-.66.97-.97l1.48-.71c.41-.2.77-.36,1.02-.36.46,0,.77.31,1.17.92,4.69,6.89,7.19,14.95,7.19,22.91s-2.5,16.07-7.19,22.96c-.41.61-.71.92-1.17.92-.25,0-.61-.15-1.02-.36l-1.48-.71c-.66-.31-.97-.61-.97-.97Z"/>
      <path class="cls-1" d="M523.11,71.72c.48.14,1.29.34,1.29,1.02,0,.41-.34.75-.61,1.02-.82.75-.88,1.36-.95,2.59-.14,2.31-.2,4.56-.2,6.8,0,1.16.41,1.97,1.7,1.97,2.45,0,7.96-1.7,10.34-2.59.54-.2,1.09-.41,1.63-.41.95,0,1.36,1.02,1.84,2.04.41,1.02,1.16,2.79,1.16,3.81,0,.88-.48,1.16-3.81,2.11-3.27.88-6.67,1.5-10.07,1.97-1.77.2-2.72.48-2.72,2.52,0,1.5.34,9.73.54,10.82.27,1.77,1.43,1.77,3.13,2.25,4.63,1.22,11.29,3.81,15.31,6.33.48.34,1.16.82,1.16,1.43,0,1.43-2.59,5.44-3.81,5.44-.61,0-1.77-.88-2.31-1.22-1.9-1.29-9.66-5.38-11.7-5.38-1.36,0-1.22,1.56-1.29,2.11-.14,2.65-.75,5.24-2.86,7.01-2.72,2.25-6.6,2.99-10.07,2.99-5.99,0-13.61-2.65-13.61-9.8,0-8.1,8.44-10.95,15.17-10.95h1.36c1.16,0,2.45.07,2.45-1.63,0-.68-.14-2.93-.2-3.81-.14-4.29-.34-8.5-.41-12.72-.07-4.42-.07-10.89-.88-15.1-.07-.27-.14-.61-.14-.88,0-.68.61-.82,1.23-.82,1.02,0,6.19.82,7.35,1.09ZM503.99,116.42c0,2.86,4.49,3.47,6.67,3.47,3.74,0,6.19-1.09,6.19-5.24,0-2.65-.82-2.72-3.74-2.72s-9.12.61-9.12,4.49Z"/>
      <path class="cls-1" d="M566.76,78.32c0,.41-.48.75-.82.88-.68.48-.88.61-1.29,1.36-.82,1.5-1.56,4.01-1.97,5.72-.54,2.45-.88,5.1-.88,7.62,0,.54-.07,3.47.68,3.47.54,0,.95-1.09,1.22-1.77.34-.75,1.56-3.67,2.38-3.67.61,0,2.65,1.22,2.65,2.11,0,.2-1.02,2.59-1.63,4.22l-.61,1.63c-.95,2.59-2.25,5.72-2.25,8.44,0,.95.14,1.7.14,2.18,0,1.9-3.61,2.72-4.9,2.72-1.5,0-1.97-1.22-2.38-2.52-1.5-4.42-2.25-11.16-2.25-15.85s.54-9.59,1.56-13.95c.41-1.7.88-3.33,1.16-5.03.07-.48.27-1.7.88-1.7.2,0,3.2,1.22,3.67,1.43,1.5.68,4.63,1.97,4.63,2.72ZM588.26,72.4c1.29,0,1.43.82,1.7,1.84,1.43,5.44,2.11,13.95,2.11,19.6,0,11.77-1.97,21.77-10.55,30.48-1.09,1.09-3.88,3.81-5.44,3.81-1.09,0-5.04-3.33-5.04-4.76,0-.54.61-.95,1.02-1.16,3.88-2.38,7.35-6.53,9.25-10.61,2.52-5.38,3.13-11.36,3.13-17.15,0-6.26-.54-13-2.38-18.98-.07-.27-.14-.61-.14-.88,0-1.5,5.58-2.18,6.33-2.18Z"/>
      <path class="cls-1" d="M16.79,166.97c0,.48-.41.68-.82.95-.88.54-.95,1.29-.95,2.99v1.16c0,1.22.68,1.7,1.9,1.7h3.27c1.36,0,2.65-.07,3.95-.07,3.06,0,3.2,1.77,3.2,3.74,0,2.99-.07,6.06-.27,9.05-.2,2.93-1.22,12.59-1.7,15.44-1.02,6.26-2.45,7.76-9.19,7.76-2.99,0-4.56.14-4.56-5.65,0-.75.07-1.7.95-1.7.54,0,1.56.14,2.45.14,1.9,0,2.86-.27,3.4-2.25,1.16-4.49,2.25-13.74,2.25-18.44,0-1.7-.41-1.7-2.93-1.7h-1.02c-1.29,0-1.84.41-2.11,1.77-.61,6.8-2.45,14.56-4.97,20.89-1.63,3.95-2.45,6.12-3.61,6.12-1.43,0-5.03-2.11-5.03-3.67,0-.48.48-1.36.75-1.84,4.29-8.3,6.74-19.94,6.74-29.33v-3.27c0-1.02,0-1.91-.14-3.27-.07-.48,0-1.84-1.43-1.84-1.02,0-2.11.14-3.13.14-1.77,0-1.7-.88-1.7-3.4s-.07-3.4,1.7-3.4c1.43,0,3.81.2,6.06.2h.61c1.36,0,1.9-.54,1.9-1.91v-2.65c0-1.5-.14-2.99-.27-4.42,0-.14-.07-.41-.07-.61,0-.82.75-.95,1.43-.95.82,0,2.25.14,3.2.2.48.07.88.07,1.29.14,1.97.14,2.99.2,2.99,1.02,0,.61-.41.82-.88,1.09-.75.34-.82.68-.82,2.93v3.27c0,1.36.54,1.91,1.91,1.91h1.02c2.18,0,4.56-.2,6.12-.2,1.84,0,1.7.95,1.7,3.4s.07,3.4-1.7,3.4c-1.43,0-3.88-.14-6.12-.14h-5.99c-.2,0-.34,0-.34.2,0,.14.14.2.27.27.41.14.68.34.68.82ZM53.67,162.21c2.31,0,4.56-.14,6.8-.14,1.56,0,1.5.82,1.5,3.33s.07,3.33-1.5,3.33c-1.02,0-2.11-.07-3.13-.07-.14,0-.34.07-.34.27,0,.14.14.27.34.27.34.14.82.34.82.82,0,.61-.68.95-1.16,1.36-.82.54-.88,1.22-1.02,2.11-1.16,6.4-2.72,11.23-5.72,16.94-.2.48-.34.82-.34,1.36,0,.61.27,1.09.68,1.56,2.99,3.47,7.21,7.08,11.09,9.59.48.27,1.02.68,1.02,1.22,0,1.43-2.93,4.63-4.35,4.63-2.31,0-9.87-7.96-11.63-10-.34-.34-.61-.54-1.16-.54s-.82.27-1.16.54c-3.47,3.95-7.69,7.14-12.25,9.8-.48.34-1.63.95-2.18.95-1.29,0-3.88-3.33-3.88-4.49,0-.75,1.29-1.36,2.31-1.9.2-.07.41-.2.54-.27,4.29-2.31,8.71-5.85,11.7-9.73.34-.48.61-.88.61-1.5,0-.54-.2-.95-.48-1.43-2.45-4.63-3.61-8.57-4.63-13.68-.07-.27-.27-.54-.61-.54-.27,0-.41.2-.54.41-1.02,2.04-1.91,3.95-2.93,3.95-1.09,0-4.15-2.11-4.15-3.27,0-.27.88-1.91,1.09-2.31,2.72-5.44,5.1-11.77,6.67-17.69.48-1.77,1.5-5.85,1.7-7.55.07-.61.14-1.09.88-1.09.68,0,4.76,1.09,5.72,1.36.48.14,1.09.48,1.09,1.02,0,.48-.48.75-.82.88-.88.48-1.02,1.02-1.77,3.81-.34,1.22-.75,2.79-1.36,4.97-.07.14-.07.34-.07.48,0,.88.68,1.23,1.43,1.23h11.16ZM49.79,169.76c0-.88-.48-1.16-1.29-1.16h-6.6c-.88,0-1.56.34-1.56,1.36v.41c.95,4.69,2.04,9.39,4.15,13.68.14.27.34.61.82.61.41,0,.68-.27.82-.61,1.7-3.67,3.67-10.21,3.67-14.29Z"/>
      <path class="cls-1" d="M73.6,208.07c-.07.48-.48.82-.95.82-.61,0-.75-.48-1.09-1.09-.61-1.16-2.79-5.1-2.79-6.12,0-.88,1.97-1.63,2.65-1.91.95-.48,4.69-2.72,5.78-3.47,1.22-.82,1.43-1.36,1.43-2.86v-11.43c0-1.29-.54-1.91-1.9-1.91h-1.56c-1.16,0-2.31.2-3.47.2-1.56,0-1.5-1.02-1.5-3.33,0-2.45-.07-3.33,1.5-3.33,1.16,0,2.31.14,3.47.14h2.52c1.29,0,2.65-.14,4.01-.14,2.25,0,3.81.54,3.81,3.13,0,1.91-.14,3.81-.14,5.72v9.66c0,4.35,1.02,7.14,5.51,8.44,4.49,1.29,14.76,1.29,19.66,1.29s9.8,0,14.63-.2c.61,0,3.33-.2,3.61-.2,1.29,0,1.36.88,1.36,1.97,0,4.35-1.5,4.76-4.63,4.76h-16.87c-4.56,0-15.72-.07-19.6-1.36-2.79-.95-4.69-2.25-6.4-4.63-.34-.41-.68-.82-1.29-.82-.41,0-.68.2-1.02.48-1.84,1.56-3.81,3.06-5.72,4.56-.68.48-.88.82-1.02,1.63ZM82.65,165.47c-.61,0-.95-.41-1.43-1.02-3.06-3.54-5.72-6.46-9.25-9.53-.41-.34-.95-.75-.95-1.36,0-1.16,2.99-3.67,4.08-3.67,1.02,0,5.78,4.76,6.74,5.72.95,1.02,5.1,5.24,5.1,6.33s-2.79,3.54-4.29,3.54ZM103.88,166.9h-2.93c-2.45,0-4.9.2-7.35.2-1.63,0-1.56-.88-1.56-3.13s-.07-3.06,1.56-3.06c2.45,0,4.9.14,7.35.14h8.98c1.43,0,2.04-.2,2.79-1.43,1.97-3.13,3.47-6.53,4.9-9.93.14-.41.41-1.22.95-1.22s1.77.61,2.38.88c.82.34,4.63,1.77,4.63,2.72,0,.68-.61.68-1.16.68s-.82.07-1.16.54l-3.67,6.26c-.14.2-.2.41-.2.61,0,.68.48.82,1.02.88.48,0,4.22-.14,4.63-.14,1.7,0,1.63.88,1.63,3.06s0,3.13-1.63,3.13c-2.45,0-4.9-.2-7.35-.2h-3.2c-1.29,0-1.9.54-1.97,1.91,0,1.22-.14,2.45-.14,3.61-.07,1.29.54,1.77,1.77,1.77h6.33c2.45,0,4.9-.14,7.35-.14,1.7,0,1.63.88,1.63,3.06s.07,3.06-1.63,3.06c-2.45,0-4.9-.14-7.35-.14h-5.44c-.54.07-1.09.27-1.09.88,0,.27.14.41.27.61,3.88,5.24,8.78,9.05,14.56,11.98.48.27.75.48.75,1.02,0,1.63-2.11,4.49-3.74,4.49-2.04,0-11.29-6.67-15.51-13-.27-.27-.48-.54-.95-.54-.41,0-.68.27-.95.61-4.01,6.33-13.47,12.93-15.99,12.93-1.56,0-3.54-3.61-3.54-4.56,0-.82.95-1.23,1.56-1.5,5.17-2.38,10-6.19,12.93-11.23.07-.2.14-.41.14-.68,0-.95-1.09-.95-1.29-1.02h-3.67c-2.45,0-4.9.14-7.35.14-1.7,0-1.63-.82-1.63-3.06s-.07-3.06,1.63-3.06c2.45,0,4.9.14,7.35.14h5.1c1.29,0,1.84-.48,2.04-1.77.07-1.22.14-2.45.14-3.67-.07-1.29-.61-1.84-1.9-1.84ZM100.27,160.78c-.82,0-1.02-.48-1.29-1.09-1.22-2.52-2.65-4.9-4.22-7.14-.2-.34-.61-.88-.61-1.22,0-1.22,3.67-2.52,4.83-2.52.61,0,.82.2,1.22.68.75,1.02,1.91,2.79,2.59,3.95.48.82,2.31,4.15,2.31,4.97,0,1.56-4.29,2.38-4.83,2.38Z"/>
      <path class="cls-1" d="M154.91,187.52c-2.93,5.85-6.19,11.57-9.8,17.08-.34.54-.82,1.22-.82,1.9v.54c0,.2.07.41.07.61,0,.48-.2,1.02-.75,1.02-.68,0-3.67-2.65-4.35-3.27-.48-.41-1.56-1.22-1.56-1.91,0-.54.54-1.09.82-1.5,3.81-4.56,8.71-13.47,11.29-18.92.54-1.16.68-1.43,1.29-1.43.75,0,4.63,2.65,4.63,3.74,0,.41-.61,1.7-.82,2.11ZM148.38,168.81c.14.14.34.2.61.41,1.16.82,3.13,2.31,3.13,3.2,0,1.02-2.45,4.42-3.61,4.42-.54,0-.95-.41-1.36-.75-2.45-1.97-5.38-4.22-8.1-5.92-.48-.34-1.29-.68-1.29-1.36,0-.88,2.38-4.42,3.54-4.42.95,0,5.99,3.67,7.08,4.42ZM151.64,161.8c-.68,0-1.43-.75-1.9-1.09-2.45-1.84-4.69-3.4-7.21-5.1-.68-.48-1.29-.82-1.29-1.43,0-.75,2.25-4.42,3.54-4.42,1.02,0,4.69,2.65,5.65,3.33,1.16.82,3.27,2.38,4.22,3.27.34.27.68.61.68,1.09,0,1.09-2.52,4.35-3.67,4.35ZM175.32,190.1c-.41,0-.61.27-.82.54-3.13,7.76-9.19,13.81-16.13,18.23-.48.34-1.16.82-1.77.82-1.29,0-4.22-3.33-4.22-4.9,0-.88.95-1.29,1.77-1.77,6.74-3.95,12.66-9.73,15.04-17.42.07-.2.07-.34.07-.54,0-.95-.68-1.22-1.5-1.22h-2.79c-2.52,0-5.1.14-7.62.14-1.77,0-1.7-.88-1.7-3.27s-.07-3.27,1.7-3.27c2.52,0,5.1.14,7.62.14h3.61c1.29,0,1.91-.48,2.04-1.77,0-.88.07-1.7.07-2.59v-5.17c0-1.29-.61-1.84-1.91-1.84h-4.22c-1.91,0-4.15.14-5.44.14s-1.22-.88-1.22-3.33-.07-3.27,1.29-3.27c1.43,0,3.4.14,5.38.14h4.22c1.29,0,1.91-.54,1.91-1.91v-2.65c0-1.5-.07-2.79-.2-4.35-.07-.2-.07-.48-.07-.68,0-.88.54-1.09,1.36-1.09,1.09,0,5.51.27,6.6.41.54.07,1.09.27,1.09.95,0,.48-.41.68-.88.95-.88.54-.95,1.16-.95,3.4v3.06c0,1.36.54,1.91,1.9,1.91h4.83c1.63,0,3.27-.07,4.9-.07,2.65,0,3.13,1.22,3.13,3.61,0,1.63-.07,3.33-.07,4.97v7.28c0,1.22.48,1.77,1.84,1.84.68-.07,1.43-.07,2.18-.07,1.77,0,1.7.75,1.7,3.27,0,2.38.07,3.27-1.7,3.27-2.52,0-5.1-.14-7.62-.14h-7.76c-.27,0-1.23.07-1.23.95,0,.27.07.48.2.68,3.95,7.42,10.21,13.68,17.35,18.1.54.34,1.63.95,1.63,1.7,0,1.63-3.06,4.49-4.56,4.49s-6.94-4.63-8.23-5.85c-4.01-3.74-7.62-8.3-10.07-13.27-.2-.27-.41-.54-.75-.54ZM183.83,177.59c1.29,0,1.84-.54,1.84-1.9v-7.01c0-1.43-.34-2.45-2.04-2.45h-4.08c-1.36,0-1.9.54-1.9,1.84v7.76c0,1.29.54,1.77,1.77,1.77h4.42Z"/>
      <path class="cls-1" d="M219.55,200.99c-.54,0-.82.34-1.02.68-1.23,2.11-2.45,4.15-3.88,6.12-.48.61-1.02,1.36-1.84,1.36-1.29,0-5.38-1.63-5.38-3.2,0-.48.41-1.02.75-1.43,5.04-6.53,7.96-13.13,8.85-21.43.07-.82.07-1.77,1.16-1.77.68,0,3.88.68,4.69.82,1.97.41,3.06.61,3.06,1.43,0,.41-.48.75-.82.88-1.02.48-1.09.82-1.43,2.59-.2.95-.41,2.31-.95,4.29-.14.48-.2.75-.2,1.22,0,.75.27,1.22.68,1.84,2.11,2.99,3.81,4.63,7.28,5.92.2,0,.41.07.54.07.88,0,1.16-.68,1.22-1.43v-20.07c0-1.36-.54-1.91-1.91-1.91h-5.03c-2.38,0-4.83.14-7.28.14-1.7,0-1.7-.88-1.7-3.27s-.07-3.27,1.7-3.27c2.45,0,4.83.14,7.28.14h21.36c2.45,0,4.83-.14,7.28-.14,1.7,0,1.7.88,1.7,3.27,0,2.52,0,3.27-1.7,3.27-2.45,0-4.83-.14-7.28-.14h-5.31c-1.36,0-1.91.54-1.91,1.91v4.42c0,1.29.54,1.84,1.91,1.84h4.35c2.18,0,4.29-.14,6.46-.14,1.77,0,1.7.88,1.7,3.33s.07,3.27-1.7,3.27c-2.18,0-4.29-.14-6.46-.14h-4.35c-1.36,0-1.91.54-1.91,1.91v6.6c0,1.23.41,1.91,1.77,1.97,2.93.2,5.85.14,8.78.14,4.15,0,8.98-.14,13.13-.54.48-.07,1.09-.07,1.63-.07,1.16,0,1.43.95,1.43,1.91,0,1.36-.41,3.95-1.63,4.76-.61.48-1.9.48-2.72.48-2.25.07-4.49.07-6.74.07h-6.8c-9.59,0-20.75.61-27.83-7.21-.27-.27-.54-.48-.95-.48ZM241.39,157.11h11.16c2.59,0,5.17-.14,7.76-.14,1.9,0,4.01.48,4.01,2.79,0,.95-.14,2.25-.14,3.74v2.45c0,.82.2,2.11.2,2.86,0,1.63-1.09,1.56-3.81,1.56-2.31,0-3.61.14-3.61-1.5,0-.75.14-1.97.14-2.93v-1.02c0-1.36-.54-1.9-1.9-1.9h-38.51c-1.29,0-1.9.54-1.9,1.9v1.16c0,.95.2,2.18.2,2.93,0,1.63-1.29,1.5-3.67,1.5s-3.61.14-3.61-1.5c0-.88.14-2.04.14-2.93v-2.59c0-1.77-.07-2.99-.07-3.67,0-2.31,1.97-2.79,3.88-2.79,2.65,0,5.24.07,7.82.07h10.95c1.36,0,1.9-.54,1.9-1.91v-.68c0-1.22-.14-2.45-.27-3.67,0-.2-.07-.48-.07-.68,0-.82.61-.95,1.29-.95,1.5,0,4.29.27,5.85.41.61.07,1.97.07,1.97.95,0,.48-.41.61-.88,1.02-.82.61-.82,1.84-.75,3.61,0,1.36.61,1.91,1.91,1.91Z"/>
      <path class="cls-1" d="M285.62,200.31c0,2.72-1.84,5.17-5.17,5.17-2.65,0-4.63-1.77-4.63-4.42,0-2.93,1.84-5.38,5.1-5.38,2.65,0,4.69,1.97,4.69,4.63ZM279.63,190.58c-1.7,0-2.04-.34-2.11-2.04l-.48-16.81c-.14-4.49-.48-12.04-.48-13.4,0-1.16.41-1.43,1.91-1.43h4.42c1.5,0,1.91.27,1.91,1.43,0,1.36-.34,8.91-.48,13.88l-.41,16.33c-.07,1.7-.41,2.04-2.11,2.04h-2.18Z"/>
    </g>
  </g>
</svg>