<?xml version="1.0" encoding="UTF-8"?><svg id="_レイヤー_2" xmlns="http://www.w3.org/2000/svg" xmlns:xlink="http://www.w3.org/1999/xlink" viewBox="0 0 200 920"><defs><style>.cls-1{fill:none;}.cls-2{fill:#232323;}.cls-3{clip-path:url(#clippath);}</style><clipPath id="clippath"><rect class="cls-1" width="200" height="920"/></clipPath></defs><g id="bg"><g class="cls-3"><path class="cls-2" d="M149.33,39.63c0,19.78-2.53,32.2-11.96,42.32-7.82,8.28-17.71,12.19-30.36,12.19-5.98,0-12.19-.92-18.17-4.6-5.98-3.45-8.97-8.05-10.58-11.5-.69,2.76-3.22,12.19-11.04,19.78-8.74,8.28-19.32,10.12-28.75,10.12-11.04,0-19.78-2.76-27.6-10.12-12.88-12.19-14.95-31.28-14.95-43.01V16.4h153.41v23.23ZM18,39.86v14.26c0,6.67,1.15,17.25,5.98,23.23,3.68,4.6,10.12,7.59,17.02,7.59,6.21,0,12.19-2.3,16.1-6.21,6.21-6.44,6.9-15.87,6.9-24.15v-14.72H18ZM83.32,39.86v7.13c0,5.75.69,13.57,5.98,19.09,5.06,5.29,12.19,5.98,17.48,5.98,4.6,0,10.12-.69,14.72-5.52,5.06-5.29,5.75-11.96,5.75-18.63v-8.05h-43.93Z"/><path class="cls-2" d="M92.75,204.08v22.54H-4.08v-22.54H6.04c-11.5-9.89-13.11-22.08-13.11-28.98,0-29.9,24.84-46.92,51.52-46.92,31.51,0,50.83,21.62,50.83,47.15,0,7.13-1.84,19.55-13.8,28.75h11.27ZM43.99,151.18c-16.79,0-30.82,10.58-30.82,26.91,0,14.26,10.35,27.37,30.59,27.37s31.28-13.11,31.28-27.37c0-16.33-13.8-26.91-31.05-26.91Z"/><path class="cls-2" d="M16.62,282.51v57.5H-4.08v-101.89l76.13,62.79v-49.45h20.7v93.38l-76.13-62.33Z"/><path class="cls-2" d="M163.59,426.95v22.54H-4.08v-22.54H6.04c-11.5-9.89-13.11-22.08-13.11-28.98,0-29.9,24.84-46.92,51.52-46.92,31.51,0,50.83,21.62,50.83,47.15,0,7.13-1.84,19.55-13.8,28.75h82.11ZM43.99,374.05c-16.79,0-30.82,10.58-30.82,26.91,0,14.26,10.35,27.37,30.59,27.37s31.28-13.11,31.28-27.37c0-16.33-13.8-26.91-31.05-26.91Z"/><path class="cls-2" d="M92.75,500.55H-4.08v-22.54h96.83v22.54ZM147.26,489.28c0,8.28-6.21,14.49-14.49,14.49s-14.49-6.21-14.49-14.49,6.21-14.49,14.49-14.49,14.49,6.21,14.49,14.49Z"/><path class="cls-2" d="M163.59,551.6H-4.08v-22.54h167.67v22.54Z"/><path class="cls-2" d="M44.22,678.56c-29.67,0-51.29-22.54-51.29-51.75s21.62-51.75,51.29-51.75,51.06,22.54,51.06,51.75-21.16,51.75-51.06,51.75ZM43.99,655.56c22.08,0,31.05-14.49,31.05-28.75s-8.97-28.75-31.05-28.75c-18.63,0-30.82,11.04-30.82,28.75s12.19,28.75,30.82,28.75Z"/><path class="cls-2" d="M72.05,725.25H-4.08v-22.54h76.13v-9.43h20.7v9.43h35.42v22.54h-35.42v17.25h-20.7v-17.25Z"/><path class="cls-2" d="M113.45,929.02c15.41-17.02,17.02-32.89,17.02-41.63,0-33.35-24.61-55.89-58.42-55.89s-57.5,23.46-57.5,56.12c0,18.4,9.43,32.66,17.71,41.4H4.43c-9.2-15.41-11.5-31.51-11.5-42.09,0-27.83,12.65-45.31,21.16-54.28,16.79-17.94,36.34-24.61,57.96-24.61,28.29,0,47.84,11.73,60.03,24.61,14.95,15.87,20.01,34.27,20.01,55.43,0,14.03-2.53,27.6-11.04,40.94h-27.6Z"/></g></g></svg>