<?xml version="1.0" encoding="UTF-8"?><svg id="_レイヤー_2" xmlns="http://www.w3.org/2000/svg" viewBox="0 0 415.56 30.21"><defs><style>.cls-1{fill:#dc0000;}</style></defs><g id="_layout"><path class="cls-1" d="M12.77,4.51c-1.15,10.72-4.1,19.17-7.58,24.96l-5.18-2.62C5.38,18.4,6.98,9.02,7.52,3.81l5.25.7ZM23.13,28.83c-1.98-10.59-4.64-17.66-7.26-23.23l4.77-2.05c4.9,9.41,7.07,18.24,8.03,23.84l-5.54,1.44ZM24.35,1.6c1.28,2.11,1.98,3.81,2.82,6.24l-2.43,1.22c-.8-2.59-1.34-4-2.69-6.34l2.3-1.12ZM28.29,0c1.28,2.02,1.92,3.55,2.88,6.24l-2.43,1.22c-.77-2.56-1.44-4.1-2.72-6.3l2.27-1.15Z"/><path class="cls-1" d="M54.56,8.29c-1.31,4.06-2.85,6.5-4.42,8.83,4.67,3.52,7.07,5.7,10.05,8.61l-4.22,4.26c-3.65-4.13-4.64-5.06-8.93-8.99-3.01,3.2-7.26,6.75-12.19,8.9l-2.88-4.29c3.26-1.34,12.67-5.76,16.9-16.93h-15.04V3.84h17.79l2.94,4.45ZM55.17,1.15c1.47,2.21,2.34,4.48,2.94,6.18l-2.43,1.25c-.83-2.62-1.44-4.03-2.78-6.27l2.27-1.15ZM59.39,0c1.31,2.05,1.98,3.68,2.91,6.21l-2.43,1.25c-.83-2.62-1.44-4.06-2.75-6.3l2.27-1.15Z"/><path class="cls-1" d="M64.2,25.63c8-1.25,9.98-3.94,10.24-9.5h-11.26v-4.74h26.3v4.74h-9.76c-.58,8.06-3.74,12.22-13.47,14.08l-2.05-4.58ZM83.65,3.52v4.7h-17.98V3.52h17.98ZM86.37,1.25c1.02,2.34,1.47,4.16,1.95,6.59l-2.59.86c-.42-2.66-.83-4.22-1.76-6.66l2.4-.8ZM90.66.38c.96,2.08,1.44,3.84,1.98,6.56l-2.59.86c-.42-2.69-.83-4.16-1.82-6.62l2.43-.8Z"/><path class="cls-1" d="M107.78,30.17h-4.74v-10.24c-2.75,1.57-5.6,2.88-8.54,3.84l-2.08-4.13c6.88-2.02,13.98-6.53,18.69-12.54l3.9,2.94c-2.69,3.14-5.12,5.12-7.23,6.72v13.41Z"/><path class="cls-1" d="M144.96,4.38v23.93h-24.77V4.38h24.77ZM139.77,9.18h-14.4v14.37h14.4v-14.37Z"/><path class="cls-1" d="M152.29,19.01c-.26-1.44-.9-4.54-2.53-8.06l4.03-1.09c1.47,2.75,2.27,5.89,2.82,8.13l-4.32,1.02ZM151.91,26.37c10.94-2.46,14.11-6.59,16.16-17.63l4.96,1.18c-1.63,7.14-4.03,16.89-17.85,20.29l-3.26-3.84ZM159.43,17.44c-.48-2.53-1.02-5.06-2.24-8l4.03-.8c1.31,2.72,2.05,5.89,2.37,7.87l-4.16.93Z"/><path class="cls-1" d="M198,21.66c-3.1-2.08-6.82-4.42-12.13-6.46v14.56h-5.5V2.46h5.5v7.39c7.78,2.46,12.64,5.22,14.85,6.5l-2.72,5.31Z"/><path class="cls-1" d="M224.24,16.16c0,2.62-2.11,4.8-4.8,4.8s-4.8-2.14-4.8-4.8,2.21-4.8,4.8-4.8,4.8,2.11,4.8,4.8Z"/><path class="cls-1" d="M262.96,4.83v23.07h-23.68v-5.02h18.27v-13.09h-17.92v-4.96h23.33Z"/><path class="cls-1" d="M295.59,13.5v5.28h-27.39v-5.28h27.39Z"/><path class="cls-1" d="M300.81,25.63c8-1.25,9.98-3.94,10.24-9.5h-11.26v-4.74h26.3v4.74h-9.76c-.58,8.06-3.74,12.22-13.47,14.08l-2.05-4.58ZM320.27,3.52v4.7h-17.98V3.52h17.98ZM322.99,1.25c1.02,2.34,1.47,4.16,1.95,6.59l-2.59.86c-.42-2.66-.83-4.22-1.76-6.66l2.4-.8ZM327.27.38c.96,2.08,1.44,3.84,1.98,6.56l-2.59.86c-.42-2.69-.83-4.16-1.82-6.62l2.43-.8Z"/><path class="cls-1" d="M338.22,20.45h-5.38V3.36h5.38v17.09ZM353.19,16.13c0,4.8-2.02,8.99-5.86,10.94-2.82,1.44-6.53,2.34-11.04,2.75l-1.92-4.9c8.8-.64,13.41-2.11,13.41-8.38V2.88h5.41v13.25Z"/><path class="cls-1" d="M358.58,12.29v-4.83h14.02V2.62h5.06v4.83h6.91v4.83h-6.88l.03,12.99c0,4.54-3.9,4.54-5.41,4.54-.96,0-1.76-.03-4.19-.1l-.74-4.99c1.7.13,3.1.22,3.81.22.83,0,1.47-.13,1.47-1.09l-.03-7.14c-2.08,2.75-5.92,6.66-12.45,10.14l-3.04-3.97c5.31-2.46,9.92-6.14,13.73-10.62h-12.29Z"/><path class="cls-1" d="M398.37,13.12c-3.23-2.14-6.02-3.49-9.98-4.86l2.27-4.35c1.76.51,5.73,1.7,10.4,4.58l-2.69,4.64ZM389,24c10.75-.93,18.4-4.64,22.08-18.72l4.48,3.1c-4.29,14.05-12.13,19.45-25.41,21.12l-1.15-5.5Z"/></g></svg>