<?xml version="1.0" encoding="UTF-8"?>
<svg id="_レイヤー_2" data-name="レイヤー_2" xmlns="http://www.w3.org/2000/svg" xmlns:xlink="http://www.w3.org/1999/xlink" viewBox="0 0 200 920">
  <defs>
    <style>
      .cls-1 {
        fill: #232323;
      }

      .cls-2 {
        fill: none;
      }

      .cls-3 {
        clip-path: url(#clippath);
      }
    </style>
    <clipPath id="clippath">
      <rect class="cls-2" width="200" height="920"/>
    </clipPath>
  </defs>
  <g id="bg">
    <g class="cls-3">
      <g>
        <path class="cls-1" d="M127.25,93.22v-53.36h-38.87v51.52h-22.08v-51.52H-4.08v-23.46h153.41v76.82h-22.08Z"/>
        <path class="cls-1" d="M163.59,138.3H-4.08v-22.54h167.67v22.54Z"/>
        <path class="cls-1" d="M92.75,237.65v22.54H-4.08v-22.54H6.04c-11.5-9.89-13.11-22.08-13.11-28.98,0-29.9,24.84-46.92,51.52-46.92,31.51,0,50.83,21.62,50.83,47.15,0,7.13-1.84,19.55-13.8,28.75h11.27ZM43.99,184.75c-16.79,0-30.82,10.58-30.82,26.91,0,14.26,10.35,27.37,30.59,27.37s31.28-13.11,31.28-27.37c0-16.33-13.8-26.91-31.05-26.91Z"/>
        <path class="cls-1" d="M72.05,311.94H-4.08v-22.54h76.13v-9.43h20.7v9.43h35.42v22.54h-35.42v17.25h-20.7v-17.25Z"/>
        <path class="cls-1" d="M127.25,486.74v-61.18h-38.87v59.34h-22.08v-59.34H18v61.18H-4.08v-84.64h153.41v84.64h-22.08Z"/>
        <path class="cls-1" d="M67.22,555.28c3.68-2.3,8.28-6.67,8.28-13.8,0-3.22-1.15-5.52-2.53-6.9-1.15-1.15-2.99-2.07-5.06-2.07-2.53,0-4.14,1.15-5.52,3.22-.92,1.38-1.38,2.76-3.91,7.59l-5.75,11.5c-2.53,5.06-5.06,9.89-8.97,13.57-5.29,5.29-11.27,7.13-17.94,7.13-8.74,0-16.33-3.22-22.08-8.51-8.28-7.59-10.81-17.02-10.81-27.14,0-6.21.92-14.03,6.21-20.93,4.14-5.52,10.81-10.12,17.71-12.42l8.74,18.4c-3.22,1.15-7.36,3.22-9.2,5.29-1.38,1.38-3.68,4.6-3.68,9.89,0,3.45,1.15,7.13,3.22,9.2,1.84,1.84,4.83,3.22,7.59,3.22s5.06-.92,7.36-2.99c2.76-2.76,4.37-5.98,5.98-9.66l3.91-8.28c2.07-4.37,4.6-9.66,8.28-13.34,4.83-5.06,10.12-6.9,16.33-6.9,7.82,0,15.41,2.99,20.7,8.05,4.6,4.37,9.2,11.73,9.2,23.69,0,6.9-1.38,12.42-5.06,17.94-2.07,3.22-5.75,7.59-11.96,11.04l-11.04-16.79Z"/>
        <path class="cls-1" d="M63.08,670.73c10.12-10.35,11.96-20.47,11.96-27.37,0-10.58-4.37-17.25-8.51-21.39-4.14-4.14-11.5-8.28-22.31-8.28s-18.86,4.37-23.23,8.74c-4.83,5.06-7.82,12.19-7.82,20.47,0,9.2,3.68,20.01,12.42,27.83H.52c-3.45-5.52-7.59-14.49-7.59-29.44,0-16.1,4.6-27.6,14.26-36.8,7.13-6.9,18.63-13.8,36.34-13.8s30.36,7.59,37.49,14.72c7.59,7.59,14.26,19.78,14.26,38.87,0,7.36-1.15,16.1-6.9,26.45h-25.3Z"/>
        <path class="cls-1" d="M92.75,763.19v22.54H-4.08v-22.54H6.04c-11.5-9.89-13.11-22.08-13.11-28.98,0-29.9,24.84-46.92,51.52-46.92,31.51,0,50.83,21.62,50.83,47.15,0,7.13-1.84,19.55-13.8,28.75h11.27ZM43.99,710.29c-16.79,0-30.82,10.58-30.82,26.91,0,14.26,10.35,27.37,30.59,27.37s31.28-13.11,31.28-27.37c0-16.33-13.8-26.91-31.05-26.91Z"/>
        <path class="cls-1" d="M92.75,814.25v22.54h-8.74c2.99,2.53,6.21,6.21,8.05,9.43,2.53,4.37,3.22,8.74,3.22,13.8,0,5.52-.92,11.5-4.6,17.71l-20.47-9.2c3.22-5.06,3.45-9.2,3.45-11.5,0-4.83-.69-9.66-5.29-14.03-6.67-6.21-15.87-6.21-22.31-6.21H-4.08v-22.54h96.83Z"/>
        <path class="cls-1" d="M163.59,954.32v22.54H-4.08v-22.54H6.04c-11.5-9.89-13.11-22.08-13.11-28.98,0-29.9,24.84-46.92,51.52-46.92,31.51,0,50.83,21.62,50.83,47.15,0,7.13-1.84,19.55-13.8,28.75h82.11ZM43.99,901.42c-16.79,0-30.82,10.58-30.82,26.91,0,14.26,10.35,27.37,30.59,27.37s31.28-13.11,31.28-27.37c0-16.33-13.8-26.91-31.05-26.91Z"/>
      </g>
    </g>
  </g>
</svg>