<?xml version="1.0" encoding="UTF-8"?>
<svg id="_レイヤー_2" data-name="レイヤー_2" xmlns="http://www.w3.org/2000/svg" viewBox="0 0 223.6 19.89">
  <defs>
    <style>
      .cls-1 {
        fill: #dc0000;
      }
    </style>
  </defs>
  <g id="_x5F_layout">
    <g>
      <path class="cls-1" d="M17.29,2.09c-.35,6.95-1.98,14.92-14.28,17.49l-1.56-3.28c8.76-1.63,11.07-5.68,11.84-10.74H0v-3.48h17.29Z"/>
      <path class="cls-1" d="M37.58,6.67c-.31,3.23-1.36,7.66-4.64,9.99-2.6,1.85-6.56,2.71-9.79,2.95l-1.06-3.3c6.01-.31,10.14-1.65,11.31-6.4h-13.53v-3.23h17.71ZM36.2,1.43v3.21h-14.72V1.43h14.72Z"/>
      <path class="cls-1" d="M42.61,12.19c-.18-.99-.62-3.12-1.74-5.54l2.77-.75c1.01,1.89,1.56,4.05,1.94,5.59l-2.97.7ZM42.35,17.25c7.52-1.69,9.7-4.53,11.11-12.12l3.41.81c-1.12,4.91-2.77,11.62-12.28,13.95l-2.24-2.64ZM47.52,11.11c-.33-1.74-.7-3.48-1.54-5.5l2.77-.55c.9,1.87,1.41,4.05,1.63,5.41l-2.86.64Z"/>
      <path class="cls-1" d="M74.17,14.02c-2.13-1.43-4.69-3.04-8.34-4.44v10.01h-3.78V.81h3.78v5.08c5.35,1.69,8.69,3.59,10.21,4.47l-1.87,3.65Z"/>
      <path class="cls-1" d="M92.21,10.23c0,1.8-1.45,3.3-3.3,3.3s-3.3-1.47-3.3-3.3,1.52-3.3,3.3-3.3,3.3,1.45,3.3,3.3Z"/>
      <path class="cls-1" d="M112.65,14.74h7.37v3.43h-18.26v-3.43h7.24V5.76h-6.18v-3.41h16.15v3.41h-6.31v8.98Z"/>
      <path class="cls-1" d="M138.54,1.76c-.84,4.58-2.49,7.33-3.78,9.2,2.86,2.16,4.42,3.43,6.95,5.94l-2.95,2.88c-1.23-1.36-3.28-3.7-6.16-6.21-1.39,1.45-4.31,4.33-8.36,6.07l-1.98-2.93c2.88-1.21,5.41-2.9,7.57-5.15,2.02-2.11,3.19-4.16,4.07-6.49h-10.34V1.76h14.98Z"/>
      <path class="cls-1" d="M143.66,16.96c5.35-2.97,6.12-7.11,6.51-9.22h-5.52v-3.3h5.9c.09-1.12.11-1.8.11-3.65l3.63.04c-.04,1.43-.09,2.11-.2,3.61h7.64v3.52c0,2.4-.15,7.31-.95,9.29-.9,2.27-3.06,2.27-4.29,2.27-1.56,0-2.6-.15-3.17-.24l-.2-3.5c.7.11,1.76.26,2.86.26,1.36,0,1.61-.31,1.83-1.25.18-.84.42-3.78.42-5.88v-1.17h-4.51c-.51,2.66-1.52,8.05-7.66,11.9l-2.4-2.68Z"/>
      <path class="cls-1" d="M170.28,6.6c0,7.44-1.56,10.96-3.92,13.22l-2.66-2.71c2.35-2.57,3.08-5.26,3.08-10.21V1.67h3.5v4.93ZM176.24,14.96c1.41-.66,3.7-1.76,4.58-7.17l3.34,1.43c-.92,3.89-2.99,9.81-11.42,10.14V1.12h3.5v13.84Z"/>
      <path class="cls-1" d="M200.21,14.04c-2.38-1.61-4.77-3.08-8.34-4.47v10.03h-3.78V.81h3.78v5.08c5.1,1.63,8.34,3.41,10.21,4.49l-1.87,3.65ZM197.21,1.43c.86,1.12,1.47,2.27,2.33,4.18l-1.98,1.06c-.68-1.74-1.25-2.84-2.24-4.27l1.89-.97ZM200.29,0c1.06,1.34,1.83,2.84,2.42,4.14l-2,1.01c-.73-1.76-1.17-2.64-2.31-4.25l1.89-.9Z"/>
      <path class="cls-1" d="M220.43,1.76c-.84,4.58-2.49,7.33-3.78,9.2,2.86,2.16,4.42,3.43,6.95,5.94l-2.95,2.88c-1.23-1.36-3.28-3.7-6.16-6.21-1.39,1.45-4.31,4.33-8.36,6.07l-1.98-2.93c2.88-1.21,5.41-2.9,7.57-5.15,2.02-2.11,3.19-4.16,4.07-6.49h-10.34V1.76h14.98Z"/>
    </g>
  </g>
</svg>