<?xml version="1.0" encoding="UTF-8"?><svg id="_レイヤー_2" xmlns="http://www.w3.org/2000/svg" xmlns:xlink="http://www.w3.org/1999/xlink" viewBox="0 0 200 920"><defs><style>.cls-1{clip-path:url(#clippath);}.cls-2{fill:none;}.cls-2,.cls-3{stroke-width:0px;}.cls-3{fill:#232323;}</style><clipPath id="clippath"><rect class="cls-2" width="200" height="920"/></clipPath></defs><g id="bg"><g class="cls-1"><path class="cls-3" d="M72.51,168.66c-45.08,0-79.58-33.81-79.58-79.81S27.43,9.04,72.51,9.04s79.58,33.81,79.58,79.81-34.5,79.81-79.58,79.81ZM72.51,145.2c34.04,0,57.96-23.46,57.96-56.35s-23.92-56.35-57.96-56.35S14.55,55.96,14.55,88.85s23.92,56.35,57.96,56.35Z"/><path class="cls-3" d="M92.75,193.96v22.54h-8.74c2.99,2.53,6.21,6.21,8.05,9.43,2.53,4.37,3.22,8.74,3.22,13.8,0,5.52-.92,11.5-4.6,17.71l-20.47-9.2c3.22-5.06,3.45-9.2,3.45-11.5,0-4.83-.69-9.66-5.29-14.03-6.67-6.21-15.87-6.21-22.31-6.21H-4.08v-22.54h96.83Z"/><path class="cls-3" d="M163.59,292.85H-4.08v-22.54h167.67v22.54Z"/><path class="cls-3" d="M92.75,392.21v22.54H-4.08v-22.54H6.04c-11.5-9.89-13.11-22.08-13.11-28.98,0-29.9,24.84-46.92,51.52-46.92,31.51,0,50.83,21.62,50.83,47.15,0,7.13-1.84,19.55-13.8,28.75h11.27ZM43.99,339.31c-16.79,0-30.82,10.58-30.82,26.91,0,14.26,10.35,27.37,30.59,27.37s31.28-13.11,31.28-27.37c0-16.33-13.8-26.91-31.05-26.91Z"/><path class="cls-3" d="M92.75,443.04v22.54h-8.97c10.81,9.66,11.5,20.7,11.5,26.22,0,17.94-8.97,25.53-13.11,28.52-5.29,3.68-11.96,5.98-26.91,5.98H-4.08v-22.54h53.82c24.61,0,25.3-9.2,25.3-17.71,0-10.12-1.38-20.47-32.66-20.47H-4.08v-22.54h96.83Z"/><path class="cls-3" d="M163.59,625.66v22.54H-4.08v-22.54H6.04c-11.5-9.89-13.11-22.08-13.11-28.98,0-29.9,24.84-46.92,51.52-46.92,31.51,0,50.83,21.62,50.83,47.15,0,7.13-1.84,19.55-13.8,28.75h82.11ZM43.99,572.76c-16.79,0-30.82,10.58-30.82,26.91,0,14.26,10.35,27.37,30.59,27.37s31.28-13.11,31.28-27.37c0-16.33-13.8-26.91-31.05-26.91Z"/><path class="cls-3" d="M44.22,775.16c-29.67,0-51.29-22.54-51.29-51.75s21.62-51.75,51.29-51.75,51.06,22.54,51.06,51.75-21.16,51.75-51.06,51.75ZM43.99,752.16c22.08,0,31.05-14.49,31.05-28.75s-8.97-28.75-31.05-28.75c-18.63,0-30.82,11.04-30.82,28.75s12.19,28.75,30.82,28.75Z"/><path class="cls-3" d="M149.33,883.71c0,18.63-2.3,30.59-8.97,40.48-11.27,16.79-29.44,18.17-36.11,18.17-22.08,0-38.18-13.57-42.78-34.04l-65.55,47.84v-28.29l62.79-43.93v-4.14H-4.08v-23.46h153.41v27.37ZM78.95,879.8v7.36c0,6.44.69,32.66,25.07,32.66,21.62,0,23.69-20.47,23.69-31.97v-8.05h-48.76Z"/></g></g></svg>