<?xml version="1.0" encoding="UTF-8"?>
<svg id="_レイヤー_2" data-name="レイヤー_2" xmlns="http://www.w3.org/2000/svg" viewBox="0 0 186.4 20.77">
  <defs>
    <style>
      .cls-1 {
        fill: #dc0000;
      }
    </style>
  </defs>
  <g id="_x5F_layout">
    <g>
      <path class="cls-1" d="M.99,8.45v-3.32h9.64V1.8h3.48v3.32h4.75v3.32h-4.73l.02,8.93c0,3.12-2.68,3.12-3.72,3.12-.66,0-1.21-.02-2.88-.07l-.51-3.43c1.17.09,2.13.15,2.62.15.57,0,1.01-.09,1.01-.75l-.02-4.91c-1.43,1.89-4.07,4.58-8.56,6.97l-2.09-2.73c3.65-1.69,6.82-4.22,9.44-7.3H.99Z"/>
      <path class="cls-1" d="M38.58,9.29v3.63h-18.83v-3.63h18.83Z"/>
      <path class="cls-1" d="M59.31,7.55c-.31,3.23-1.36,7.66-4.64,9.99-2.6,1.85-6.56,2.71-9.79,2.95l-1.06-3.3c6.01-.31,10.14-1.65,11.31-6.4h-13.53v-3.23h17.71ZM57.93,2.31v3.21h-14.72v-3.21h14.72Z"/>
      <path class="cls-1" d="M68.3,9.02c-2.22-1.47-4.14-2.4-6.86-3.34l1.56-2.99c1.21.35,3.94,1.17,7.15,3.15l-1.85,3.19ZM61.85,16.5c7.39-.64,12.65-3.19,15.18-12.87l3.08,2.13c-2.95,9.66-8.34,13.38-17.47,14.52l-.79-3.79Z"/>
      <path class="cls-1" d="M96.37,14.92c-2.38-1.61-4.77-3.08-8.34-4.47v10.03h-3.78V1.69h3.78v5.08c5.1,1.63,8.34,3.41,10.21,4.49l-1.87,3.65ZM93.38,2.31c.86,1.12,1.47,2.27,2.33,4.18l-1.98,1.06c-.68-1.74-1.25-2.84-2.24-4.27l1.89-.97ZM96.46.88c1.06,1.34,1.83,2.84,2.42,4.14l-2,1.01c-.73-1.76-1.17-2.64-2.31-4.25l1.89-.9Z"/>
      <path class="cls-1" d="M114.77,11.11c0,1.8-1.45,3.3-3.3,3.3s-3.3-1.47-3.3-3.3,1.52-3.3,3.3-3.3,3.3,1.45,3.3,3.3Z"/>
      <path class="cls-1" d="M130.03,14.06h-3.7V2.31h3.7v11.75ZM140.33,11.09c0,3.3-1.39,6.18-4.03,7.52-1.94.99-4.49,1.61-7.59,1.89l-1.32-3.37c6.05-.44,9.22-1.45,9.22-5.76V1.98h3.72v9.11Z"/>
      <path class="cls-1" d="M163.35,9.29v3.63h-18.83v-3.63h18.83Z"/>
      <path class="cls-1" d="M183.76,4.82v1.01c0,11.44-7.11,14.3-13.97,14.94l-1.19-3.28c2.99-.24,11.42-.88,11.42-9.42h-9.97v4.51h-3.41v-7.77h6.67V1.8h3.54v3.01h6.91ZM181.45.02c.73,1.3,1.1,2.33,1.63,4.09l-1.87.66c-.42-1.63-.79-2.64-1.52-4.07l1.76-.68ZM184.8,0c.81,1.52,1.12,2.57,1.61,4.27l-1.89.7c-.37-1.74-.75-2.82-1.47-4.31l1.76-.66Z"/>
    </g>
  </g>
</svg>