<?xml version="1.0" encoding="UTF-8"?><svg id="_レイヤー_2" xmlns="http://www.w3.org/2000/svg" xmlns:xlink="http://www.w3.org/1999/xlink" viewBox="0 0 200 920"><defs><style>.cls-1{fill:none;}.cls-2{fill:#232323;}.cls-3{clip-path:url(#clippath);}</style><clipPath id="clippath"><rect class="cls-1" width="200" height="920"/></clipPath></defs><g id="bg"><g class="cls-3"><path class="cls-2" d="M32.95,106.56V41.01L-4.08,24.22V-1.08l162.38,76.36L-4.08,147.96v-25.3l37.03-16.1ZM55.03,97.13l51.98-22.77-51.98-23.69v46.46Z"/><path class="cls-2" d="M92.75,170.96l-55.2,24.84,55.2,24.84v25.3L-10.98,195.8l103.73-50.14v25.3Z"/><path class="cls-2" d="M18,345.53c-7.36-4.14-13.8-10.12-17.71-16.33-5.06-7.82-7.36-18.17-7.36-28.52,0-12.88,3.22-23.46,12.42-32.66,9.2-9.2,22.54-14.26,37.03-14.26s29.44,5.29,39.79,15.41c8.05,8.05,13.11,18.63,13.11,32.43,0,15.41-6.67,25.3-12.65,31.05-12.88,12.42-30.82,13.57-40.94,13.57h-2.76v-69.46c-6.9.46-14.72,3.45-19.55,8.28-5.29,5.29-6.21,11.73-6.21,17.25,0,6.21,1.38,10.81,4.83,15.41,2.99,3.91,6.9,6.9,10.58,8.97l-10.58,18.86ZM57.33,323.22c5.29-.92,9.89-3.45,13.11-6.9,2.76-2.99,5.52-7.82,5.52-15.18,0-7.82-3.22-12.88-6.21-15.87-2.99-3.22-7.59-5.75-12.42-6.9v44.85Z"/><path class="cls-2" d="M92.75,369.45v22.54h-8.97c10.81,9.66,11.5,20.7,11.5,26.22,0,17.94-8.97,25.53-13.11,28.52-5.29,3.68-11.96,5.98-26.91,5.98H-4.08v-22.54h53.82c24.61,0,25.3-9.2,25.3-17.71,0-10.12-1.38-20.47-32.66-20.47H-4.08v-22.54h96.83Z"/><path class="cls-2" d="M92.75,552.07v22.54H3.74c-22.77,0-39.1-2.53-50.37-15.87-5.06-6.21-10.35-16.33-10.35-32.2,0-11.27,2.76-22.54,11.96-31.74,7.13-7.13,18.4-12.65,30.13-14.26v21.85c-5.29.92-11.5,3.68-15.18,7.13-2.99,2.76-6.67,8.28-6.67,17.48s3.68,14.95,6.44,17.71c7.13,7.36,17.25,7.36,24.38,7.36H6.73c-13.11-10.35-13.8-23-13.8-29.44,0-12.42,3.45-22.77,13.11-31.97,9.2-8.74,22.31-14.49,38.41-14.49,17.71,0,29.9,6.67,37.49,14.26,9.89,9.66,13.34,21.16,13.34,32.89,0,9.66-3.22,20.47-13.11,28.75h10.58ZM68.6,509.06c-5.29-5.75-14.26-9.89-24.61-9.89-9.66,0-19.09,3.68-24.38,9.66-3.68,4.14-6.44,10.35-6.44,17.25s2.07,13.34,7.82,18.86c7.13,6.67,15.41,8.51,22.77,8.51,10.81,0,18.86-3.45,24.38-9.2,5.52-5.52,6.9-11.73,6.9-18.17s-1.61-11.96-6.44-17.02Z"/><path class="cls-2" d="M18,689.83c-7.36-4.14-13.8-10.12-17.71-16.33-5.06-7.82-7.36-18.17-7.36-28.52,0-12.88,3.22-23.46,12.42-32.66,9.2-9.2,22.54-14.26,37.03-14.26s29.44,5.29,39.79,15.41c8.05,8.05,13.11,18.63,13.11,32.43,0,15.41-6.67,25.3-12.65,31.05-12.88,12.42-30.82,13.57-40.94,13.57h-2.76v-69.46c-6.9.46-14.72,3.45-19.55,8.28-5.29,5.29-6.21,11.73-6.21,17.25,0,6.21,1.38,10.81,4.83,15.41,2.99,3.91,6.9,6.9,10.58,8.97l-10.58,18.86ZM57.33,667.53c5.29-.92,9.89-3.45,13.11-6.9,2.76-2.99,5.52-7.82,5.52-15.18,0-7.82-3.22-12.88-6.21-15.87-2.99-3.22-7.59-5.75-12.42-6.9v44.85Z"/><path class="cls-2" d="M92.75,713.98v22.54h-8.74c2.99,2.53,6.21,6.21,8.05,9.43,2.53,4.37,3.22,8.74,3.22,13.8,0,5.52-.92,11.5-4.6,17.71l-20.47-9.2c3.22-5.06,3.45-9.2,3.45-11.5,0-4.83-.69-9.66-5.29-14.03-6.67-6.21-15.87-6.21-22.31-6.21H-4.08v-22.54h96.83Z"/><path class="cls-2" d="M171.87,897.06l-8.28,18.4-216.66-120.98,8.28-18.4,216.66,120.98Z"/></g></g></svg>