<?xml version="1.0" encoding="UTF-8"?><svg id="_レイヤー_2" xmlns="http://www.w3.org/2000/svg" viewBox="0 0 410.06 31.71"><defs><style>.cls-1{fill:#dc0000;}</style></defs><g id="_layout"><path class="cls-1" d="M0,25.98c8.83-3.3,9.82-9.18,9.76-15.42h5.25c-.03,1.31-.06,2.14-.22,3.68,3.23-1.7,4.9-3.23,6.05-6.02H0V3.33h27.26c-1.09,8.22-4.32,11.84-9.44,14.85l-3.14-3.2c-.54,4.38-1.86,10.69-11.36,15.1l-3.33-4.1Z"/><path class="cls-1" d="M55.59,7.01v1.47c0,16.64-10.34,20.8-20.32,21.73l-1.73-4.77c4.35-.35,16.61-1.28,16.61-13.69h-14.5v6.56h-4.96V7.01h9.7V2.62h5.15v4.38h10.05ZM52.23.03c1.06,1.89,1.6,3.39,2.37,5.95l-2.72.96c-.61-2.37-1.15-3.84-2.21-5.92l2.56-.99ZM57.09,0c1.18,2.21,1.63,3.74,2.34,6.21l-2.75,1.02c-.54-2.53-1.09-4.1-2.14-6.27l2.56-.96Z"/><path class="cls-1" d="M74.11,24.09h8.86v4.48h-22.3v-4.48h8.74v-10.3h-7.71v-4.45h20.13v4.45h-7.71v10.3Z"/><path class="cls-1" d="M97.37,13.12c-3.23-2.14-6.02-3.49-9.98-4.86l2.27-4.35c1.76.51,5.73,1.7,10.4,4.58l-2.69,4.64ZM88,24c10.75-.93,18.4-4.64,22.08-18.72l4.48,3.1c-4.29,14.05-12.13,19.45-25.41,21.12l-1.15-5.5Z"/><path class="cls-1" d="M125.93,18.49c-3.46-2.11-7.26-3.26-9.31-3.9l1.79-4.19c1.7.38,5.34,1.25,9.5,3.58l-1.98,4.51ZM118.51,24.16c10.27-.93,16.48-3.55,20.35-16.09l4.42,3.2c-4.58,12.45-11.39,16.83-23.65,18.4l-1.12-5.5ZM128.78,10.78c-3.62-1.92-7.04-2.91-9.63-3.65l1.82-4.13c4.61.86,8.35,2.59,9.86,3.3l-2.05,4.48ZM137.67.48c1.34,1.98,1.95,3.42,3.01,6.14l-2.62,1.28c-.86-2.62-1.5-4.03-2.85-6.27l2.46-1.15ZM142.76.42c1.28,2.05,1.92,3.62,2.85,6.24l-2.66,1.22c-.8-2.72-1.34-3.94-2.69-6.34l2.5-1.12Z"/><path class="cls-1" d="M160.37,29.92l-4.77.54-1.89-13.28-5.86.86-.61-4.51,5.82-.77-.74-5.09,4.7-.45.7,4.93,12.22-1.6c.03,8.22-3.94,11.71-6.21,13.38l-3.52-3.14c2.82-1.92,3.62-3.3,4.32-5.22l-6.18.93,1.98,13.41Z"/><path class="cls-1" d="M202.36,13.5v5.28h-27.39v-5.28h27.39Z"/><path class="cls-1" d="M228.78,2.94l-27.55,27.45-1.06-1.02L227.72,1.92l1.06,1.02Z"/><path class="cls-1" d="M258.52,31.71c-3.2-.61-7.2-1.82-10.01-3.52l3.04-2.59h-11.01l2.62,2.53c-2.66,1.73-6.62,2.98-9.66,3.58l-2.59-4.26c3.68-.48,5.41-.8,7.84-1.86h-7.84v-4.19h30.11v4.19h-7.71c2.37.99,5.15,1.6,7.71,1.86l-2.5,4.26ZM260.86,6.59h-12.48v1.25h9.95v12.51h-24.7V7.84h9.89v-1.25h-12.45V2.53h12.45V.99h4.86v1.54h12.48v4.06ZM253.56,10.4h-15.17v1.15h15.17v-1.15ZM253.56,13.5h-15.17v1.18h15.17v-1.18ZM253.56,16.57h-15.17v1.18h15.17v-1.18Z"/><path class="cls-1" d="M263.57,25.98c8.83-3.3,9.82-9.18,9.76-15.42h5.25c-.03,1.31-.06,2.14-.22,3.68,3.23-1.7,4.9-3.23,6.05-6.02h-20.83V3.33h27.26c-1.09,8.22-4.32,11.84-9.44,14.85l-3.14-3.2c-.54,4.38-1.86,10.69-11.36,15.1l-3.33-4.1Z"/><path class="cls-1" d="M319.62,13.5v5.28h-27.39v-5.28h27.39Z"/><path class="cls-1" d="M340.9,12.42h9.66v4.64h-9.76c-.77,7.46-4.61,10.88-14.05,12.83l-2.11-4.54c8.99-1.44,10.75-4.26,11.1-8.29h-11.81v-4.64h11.87v-3.01c-2.85.29-7.01.51-9.82.45l-.96-4.58c11.33,0,17.15-1.44,20.89-2.62l2.53,4.61c-2.56.64-5.05,1.15-7.55,1.5v3.65Z"/><path class="cls-1" d="M368.07,29.92l-4.77.54-1.89-13.28-5.86.86-.61-4.51,5.82-.77-.74-5.09,4.7-.45.7,4.93,12.22-1.6c.03,8.22-3.94,11.71-6.21,13.38l-3.52-3.14c2.82-1.92,3.62-3.3,4.32-5.22l-6.17.93,1.98,13.41Z"/><path class="cls-1" d="M410.06,13.5v5.28h-27.39v-5.28h27.39Z"/></g></svg>