<?xml version="1.0" encoding="UTF-8"?><svg id="_レイヤー_2" xmlns="http://www.w3.org/2000/svg" viewBox="0 0 77.64 20.84"><defs><style>.cls-1{fill:#dc0000;}</style></defs><g id="_layout"><path class="cls-1" d="M17.71,7.55c-.31,3.23-1.36,7.66-4.64,9.99-2.6,1.85-6.56,2.71-9.79,2.95l-1.06-3.3c6.01-.31,10.14-1.65,11.31-6.4H0v-3.23h17.71ZM16.33,2.31v3.21H1.61v-3.21h14.72Z"/><path class="cls-1" d="M32.34,20.44h-3.74v-8.78c-3.3,1.92-5.76,2.73-7.04,3.17l-1.76-3.1c4.55-1.47,10.56-4.18,15.67-10.34l3.1,2.18c-1.5,1.65-3.1,3.32-6.23,5.65v11.22Z"/><path class="cls-1" d="M39.36,17.67c4.8-.9,7.46-3.26,8.54-4.22-2.55-1.96-4.03-2.75-5.21-3.34-.86.79-1.45,1.28-2.36,1.85l-2.31-2.66c2.91-1.74,4.51-3.89,5.59-6.38h8.78l3.01,3.78c-.75,3.08-2.99,11.42-14.21,14.15l-1.83-3.17ZM45.93,6.09c-.62.95-.88,1.28-1.25,1.76,2.27.99,3.98,2.03,5.3,3.04.7-1.12,1.32-2.33,1.98-4.8h-6.03ZM54.19.92c1.1,1.21,1.76,2.27,2.66,3.87l-1.5,1.12c-.84-1.65-1.34-2.51-2.58-3.96l1.41-1.03ZM56.96,0c1.1,1.23,1.63,2.13,2.64,3.92l-1.52,1.1c-.81-1.67-1.39-2.57-2.53-3.98l1.41-1.03Z"/><path class="cls-1" d="M77.64,9.29v3.63h-18.83v-3.63h18.83Z"/></g></svg>