<?xml version="1.0" encoding="UTF-8"?>
<svg id="_レイヤー_2" data-name="レイヤー_2" xmlns="http://www.w3.org/2000/svg" viewBox="0 0 99.24 19.5">
  <defs>
    <style>
      .cls-1 {
        fill: #dc0000;
      }
    </style>
  </defs>
  <g id="_x5F_layout">
    <g>
      <path class="cls-1" d="M17.36,2.62l.26,3.28-6.65.64.31,3.12,7.48-.7.24,3.32-7.42.7.59,6.01-3.65.22-.57-5.9-7.66.73-.31-3.3,7.64-.73-.29-3.12-6.69.66-.26-3.32,6.62-.62-.33-3.32,3.65-.29.31,3.26,6.71-.64Z"/>
      <path class="cls-1" d="M30.79,19.12l-3.28.37-1.3-9.13-4.03.59-.42-3.1,4-.53-.51-3.5,3.23-.31.48,3.39,8.41-1.1c.02,5.66-2.71,8.05-4.27,9.2l-2.42-2.16c1.94-1.32,2.49-2.27,2.97-3.59l-4.25.64,1.36,9.22Z"/>
      <path class="cls-1" d="M55.45,1.19c-.84,4.58-2.49,7.33-3.78,9.2,2.86,2.16,4.42,3.43,6.95,5.94l-2.95,2.88c-1.23-1.36-3.28-3.7-6.16-6.21-1.39,1.45-4.31,4.33-8.36,6.07l-1.98-2.93c2.88-1.21,5.41-2.9,7.57-5.15,2.02-2.11,3.19-4.16,4.07-6.49h-10.34V1.19h14.98Z"/>
      <path class="cls-1" d="M60.06,7.53c1.89-1.14,4.27-3.04,5.65-6.45h12.52c-.33,3.92-1.23,8.05-4.22,11.73-2,2.46-5.3,5.13-10.78,6.54l-1.83-3.17c2.53-.51,5.72-1.58,8.74-4.44-1.87-1.47-3.28-2.38-5.35-3.43-.59.57-1.23,1.14-2.4,1.89l-2.33-2.66ZM68.07,4.27c-.37.57-.57.86-1.25,1.76,1.21.55,3.21,1.45,5.39,3.12,1.21-1.98,1.56-3.92,1.74-4.88h-5.88Z"/>
      <path class="cls-1" d="M99.24,7.83v3.63h-18.83v-3.63h18.83Z"/>
    </g>
  </g>
</svg>