<?xml version="1.0" encoding="UTF-8"?><svg id="_レイヤー_2" xmlns="http://www.w3.org/2000/svg" xmlns:xlink="http://www.w3.org/1999/xlink" viewBox="0 0 200 920"><defs><style>.cls-1{fill:none;}.cls-2{fill:#232323;}.cls-3{clip-path:url(#clippath);}</style><clipPath id="clippath"><rect class="cls-1" width="200" height="920"/></clipPath></defs><g id="bg"><g class="cls-3"><path class="cls-2" d="M149.33,39.86H18v45.08H-4.08V16.4h153.41v23.46Z"/><path class="cls-2" d="M44.22,201.32c-29.67,0-51.29-22.54-51.29-51.75s21.62-51.75,51.29-51.75,51.06,22.54,51.06,51.75-21.16,51.75-51.06,51.75ZM43.99,178.32c22.08,0,31.05-14.49,31.05-28.75s-8.97-28.75-31.05-28.75c-18.63,0-30.82,11.04-30.82,28.75s12.19,28.75,30.82,28.75Z"/><path class="cls-2" d="M92.75,224.78v22.54h-8.74c2.99,2.53,6.21,6.21,8.05,9.43,2.53,4.37,3.22,8.74,3.22,13.8,0,5.52-.92,11.5-4.6,17.71l-20.47-9.2c3.22-5.06,3.45-9.2,3.45-11.5,0-4.83-.69-9.66-5.29-14.03-6.67-6.21-15.87-6.21-22.31-6.21H-4.08v-22.54h96.83Z"/><path class="cls-2" d="M163.59,364.85v22.54H-4.08v-22.54H6.04c-11.5-9.89-13.11-22.08-13.11-28.98,0-29.9,24.84-46.92,51.52-46.92,31.51,0,50.83,21.62,50.83,47.15,0,7.13-1.84,19.55-13.8,28.75h82.11ZM43.99,311.95c-16.79,0-30.82,10.58-30.82,26.91,0,14.26,10.35,27.37,30.59,27.37s31.28-13.11,31.28-27.37c0-16.33-13.8-26.91-31.05-26.91Z"/><path class="cls-2" d="M127.25,558.27v-61.18h-38.87v59.34h-22.08v-59.34H18v61.18H-4.08v-84.64h153.41v84.64h-22.08Z"/><path class="cls-2" d="M163.59,607.03H-4.08v-22.54h167.67v22.54Z"/><path class="cls-2" d="M56.64,632.79v55.2h-23.46v-55.2h23.46Z"/><path class="cls-2" d="M-4.08,713.29l164.91,32.2-119.14,53.36,119.14,53.82-164.91,28.98v-23.92l92.46-15.64-99.59-44.62,99.82-44.16-92.69-16.1v-23.92Z"/><path class="cls-2" d="M18,996.42c-7.36-4.14-13.8-10.12-17.71-16.33-5.06-7.82-7.36-18.17-7.36-28.52,0-12.88,3.22-23.46,12.42-32.66,9.2-9.2,22.54-14.26,37.03-14.26s29.44,5.29,39.79,15.41c8.05,8.05,13.11,18.63,13.11,32.43,0,15.41-6.67,25.3-12.65,31.05-12.88,12.42-30.82,13.57-40.94,13.57h-2.76v-69.46c-6.9.46-14.72,3.45-19.55,8.28-5.29,5.29-6.21,11.73-6.21,17.25,0,6.21,1.38,10.81,4.83,15.41,2.99,3.91,6.9,6.9,10.58,8.97l-10.58,18.86ZM57.33,974.11c5.29-.92,9.89-3.45,13.11-6.9,2.76-2.99,5.52-7.82,5.52-15.18,0-7.82-3.22-12.88-6.21-15.87-2.99-3.22-7.59-5.75-12.42-6.9v44.85Z"/></g></g></svg>