<?xml version="1.0" encoding="UTF-8"?><svg id="_レイヤー_2" xmlns="http://www.w3.org/2000/svg" viewBox="0 0 225.22 20.24"><defs><style>.cls-1{fill:#dc0000;}</style></defs><g id="_layout"><path class="cls-1" d="M17.03,2.33v16.46H0V2.33h17.03ZM13.47,5.63H3.56v9.88h9.9V5.63Z"/><path class="cls-1" d="M39.24,8.6v3.63h-18.83v-3.63h18.83Z"/><path class="cls-1" d="M56.36,14.24c-2.38-1.61-4.77-3.08-8.34-4.47v10.03h-3.78V1.01h3.78v5.08c5.1,1.63,8.34,3.41,10.21,4.49l-1.87,3.65ZM53.36,1.63c.86,1.12,1.47,2.27,2.33,4.18l-1.98,1.06c-.68-1.74-1.25-2.84-2.24-4.27l1.89-.97ZM56.45.2c1.06,1.34,1.83,2.84,2.42,4.14l-2,1.01c-.73-1.76-1.17-2.64-2.31-4.25l1.89-.9Z"/><path class="cls-1" d="M74.75,10.43c0,1.8-1.45,3.3-3.3,3.3s-3.3-1.47-3.3-3.3,1.52-3.3,3.3-3.3,3.3,1.45,3.3,3.3Z"/><path class="cls-1" d="M95.19,14.94h7.37v3.43h-18.26v-3.43h7.24V5.96h-6.18v-3.41h16.15v3.41h-6.31v8.98Z"/><path class="cls-1" d="M111.13,6.8c0,7.44-1.56,10.96-3.92,13.22l-2.66-2.71c2.35-2.57,3.08-5.26,3.08-10.21V1.87h3.5v4.93ZM117.09,15.16c1.41-.66,3.7-1.76,4.58-7.17l3.34,1.43c-.92,3.89-2.99,9.81-11.42,10.14V1.32h3.5v13.84Z"/><path class="cls-1" d="M130.08,4.27c2.22,1.1,4.31,2.4,5.81,3.43.95-1.7,1.91-3.5,2.84-6.56l3.7,1.12c-.7,1.85-1.78,4.58-3.67,7.55,2.24,1.78,3.76,3.32,4.42,4.01l-2.86,3.04c-.59-.7-1.91-2.2-3.85-3.94-1.14,1.3-4,4.58-9.31,6.91l-2.24-2.79c3.92-1.71,6.2-3.23,8.89-6.31-2.93-2.18-4.88-3.21-5.96-3.78l2.24-2.66Z"/><path class="cls-1" d="M163.31,2.33v16.46h-17.03V2.33h17.03ZM159.75,5.63h-9.9v9.88h9.9V5.63Z"/><path class="cls-1" d="M178.41,19.76h-3.74v-8.78c-3.3,1.92-5.77,2.73-7.04,3.17l-1.76-3.1c4.55-1.47,10.56-4.18,15.67-10.34l3.1,2.18c-1.5,1.65-3.1,3.32-6.23,5.65v11.22Z"/><path class="cls-1" d="M199.75,15.89h1.52v2.9h-12.72v-2.9h1.52V4.03h-1.52V1.1h12.72v2.93h-1.52v11.86ZM196.16,4.03h-2.51v11.86h2.51V4.03Z"/><path class="cls-1" d="M222.64,0v4.64h2.57v3.17h-2.57v7.28h-9.51v-7.28h-2.97v9.26h14.48v3.17h-17.78V7.81h-2.55v-3.17h2.55V.2h3.3v4.45h2.97V0h3.28v4.64h2.95V0h3.28ZM216.42,7.81v4.22h2.95v-4.22h-2.95Z"/></g></svg>