<?xml version="1.0" encoding="UTF-8"?>
<svg id="_レイヤー_2" data-name="レイヤー_2" xmlns="http://www.w3.org/2000/svg" viewBox="0 0 80 80">
  <defs>
    <style>
      .cls-1 {
        fill: #dc0000;
      }
    </style>
  </defs>
  <g id="_x5F_layout">
    <g>
      <path class="cls-1" d="M40,2c20.95,0,38,17.05,38,38s-17.05,38-38,38S2,60.95,2,40,19.05,2,40,2M40,0C17.91,0,0,17.91,0,40s17.91,40,40,40,40-17.91,40-40S62.09,0,40,0h0Z"/>
      <g>
        <path class="cls-1" d="M16.87,60.49l16.71-16.71c.17-.17.47-.15.66.04s.21.49.04.66l-16.71,16.71c-.17.17-.47.15-.66-.04s-.21-.49-.04-.66Z"/>
        <path class="cls-1" d="M17.85,54.14c.23.06.39.3.35.52l-.98,6.18,6.18-.98c.22-.04.46.12.52.35.06.23-.07.44-.29.48l-6.81,1.08c-.14.02-.29-.03-.4-.14s-.16-.26-.14-.4l1.08-6.81c.01-.08.05-.15.1-.2.09-.09.23-.13.38-.09Z"/>
      </g>
      <g>
        <path class="cls-1" d="M62.43,16.81l-16.71,16.71c-.17.17-.15.47.04.66s.49.21.66.04l16.71-16.71c.17-.17.15-.47-.04-.66s-.49-.21-.66-.04Z"/>
        <path class="cls-1" d="M56.08,17.78c.06.23.3.39.52.35l6.18-.98-.98,6.18c-.04.22.12.46.35.52.23.06.44-.07.48-.29l1.08-6.81c.02-.14-.03-.29-.14-.4s-.26-.16-.4-.14l-6.81,1.08c-.08.01-.15.05-.2.1-.09.09-.13.23-.09.38Z"/>
      </g>
    </g>
  </g>
</svg>