<?xml version="1.0" encoding="UTF-8"?>
<svg id="_レイヤー_2" data-name="レイヤー_2" xmlns="http://www.w3.org/2000/svg" xmlns:xlink="http://www.w3.org/1999/xlink" viewBox="0 0 200 920">
  <defs>
    <style>
      .cls-1 {
        fill: #232323;
      }

      .cls-2 {
        fill: none;
      }

      .cls-3 {
        clip-path: url(#clippath);
      }
    </style>
    <clipPath id="clippath">
      <rect class="cls-2" width="200" height="920"/>
    </clipPath>
  </defs>
  <g id="bg">
    <g class="cls-3">
      <g>
        <path class="cls-1" d="M149.33,39.38c0,19.78-2.53,32.2-11.96,42.32-7.82,8.28-17.71,12.19-30.36,12.19-5.98,0-12.19-.92-18.17-4.6-5.98-3.45-8.97-8.05-10.58-11.5-.69,2.76-3.22,12.19-11.04,19.78-8.74,8.28-19.32,10.12-28.75,10.12-11.04,0-19.78-2.76-27.6-10.12-12.88-12.19-14.95-31.28-14.95-43.01V16.15h153.41v23.23ZM18,39.61v14.26c0,6.67,1.15,17.25,5.98,23.23,3.68,4.6,10.12,7.59,17.02,7.59,6.21,0,12.19-2.3,16.1-6.21,6.21-6.44,6.9-15.87,6.9-24.15v-14.72H18ZM83.32,39.61v7.13c0,5.75.69,13.57,5.98,19.09,5.06,5.29,12.19,5.98,17.48,5.98,4.6,0,10.12-.69,14.72-5.52,5.06-5.29,5.75-11.96,5.75-18.63v-8.05h-43.93Z"/>
        <path class="cls-1" d="M18,219.69c-7.36-4.14-13.8-10.12-17.71-16.33-5.06-7.82-7.36-18.17-7.36-28.52,0-12.88,3.22-23.46,12.42-32.66,9.2-9.2,22.54-14.26,37.03-14.26s29.44,5.29,39.79,15.41c8.05,8.05,13.11,18.63,13.11,32.43,0,15.41-6.67,25.3-12.65,31.05-12.88,12.42-30.82,13.57-40.94,13.57h-2.76v-69.46c-6.9.46-14.72,3.45-19.55,8.28-5.29,5.29-6.21,11.73-6.21,17.25,0,6.21,1.38,10.81,4.83,15.41,2.99,3.91,6.9,6.9,10.58,8.97l-10.58,18.86ZM57.33,197.38c5.29-.92,9.89-3.45,13.11-6.9,2.76-2.99,5.52-7.82,5.52-15.18,0-7.82-3.22-12.88-6.21-15.87-2.99-3.22-7.59-5.75-12.42-6.9v44.85Z"/>
        <path class="cls-1" d="M92.75,243.84v22.54h-8.74c2.99,2.53,6.21,6.21,8.05,9.43,2.53,4.37,3.22,8.74,3.22,13.8,0,5.52-.92,11.5-4.6,17.71l-20.47-9.2c3.22-5.06,3.45-9.2,3.45-11.5,0-4.83-.69-9.66-5.29-14.03-6.67-6.21-15.87-6.21-22.31-6.21H-4.08v-22.54h96.83Z"/>
        <path class="cls-1" d="M67.22,357.92c3.68-2.3,8.28-6.67,8.28-13.8,0-3.22-1.15-5.52-2.53-6.9-1.15-1.15-2.99-2.07-5.06-2.07-2.53,0-4.14,1.15-5.52,3.22-.92,1.38-1.38,2.76-3.91,7.59l-5.75,11.5c-2.53,5.06-5.06,9.89-8.97,13.57-5.29,5.29-11.27,7.13-17.94,7.13-8.74,0-16.33-3.22-22.08-8.51-8.28-7.59-10.81-17.02-10.81-27.14,0-6.21.92-14.03,6.21-20.93,4.14-5.52,10.81-10.12,17.71-12.42l8.74,18.4c-3.22,1.15-7.36,3.22-9.2,5.29-1.38,1.38-3.68,4.6-3.68,9.89,0,3.45,1.15,7.13,3.22,9.2,1.84,1.84,4.83,3.22,7.59,3.22s5.06-.92,7.36-2.99c2.76-2.76,4.37-5.98,5.98-9.66l3.91-8.28c2.07-4.37,4.6-9.66,8.28-13.34,4.83-5.06,10.12-6.9,16.33-6.9,7.82,0,15.41,2.99,20.7,8.05,4.6,4.37,9.2,11.73,9.2,23.69,0,6.9-1.38,12.42-5.06,17.94-2.07,3.22-5.75,7.59-11.96,11.04l-11.04-16.79Z"/>
        <path class="cls-1" d="M18,485.11c-7.36-4.14-13.8-10.12-17.71-16.33-5.06-7.82-7.36-18.17-7.36-28.52,0-12.88,3.22-23.46,12.42-32.66,9.2-9.2,22.54-14.26,37.03-14.26s29.44,5.29,39.79,15.41c8.05,8.05,13.11,18.63,13.11,32.43,0,15.41-6.67,25.3-12.65,31.05-12.88,12.42-30.82,13.57-40.94,13.57h-2.76v-69.46c-6.9.46-14.72,3.45-19.55,8.28-5.29,5.29-6.21,11.73-6.21,17.25,0,6.21,1.38,10.81,4.83,15.41,2.99,3.91,6.9,6.9,10.58,8.97l-10.58,18.86ZM57.33,462.8c5.29-.92,9.89-3.45,13.11-6.9,2.76-2.99,5.52-7.82,5.52-15.18,0-7.82-3.22-12.88-6.21-15.87-2.99-3.22-7.59-5.75-12.42-6.9v44.85Z"/>
        <path class="cls-1" d="M92.75,509.26v22.54h-8.74c2.99,2.53,6.21,6.21,8.05,9.43,2.53,4.37,3.22,8.74,3.22,13.8,0,5.52-.92,11.5-4.6,17.71l-20.47-9.2c3.22-5.06,3.45-9.2,3.45-11.5,0-4.83-.69-9.66-5.29-14.03-6.67-6.21-15.87-6.21-22.31-6.21H-4.08v-22.54h96.83Z"/>
        <path class="cls-1" d="M163.59,608.15H60.32l32.43,31.51v29.9l-40.25-41.63-56.58,44.62v-28.52l41.4-31.74-4.14-4.14H-4.08v-22.54h167.67v22.54Z"/>
        <path class="cls-1" d="M18,771.45c-7.36-4.14-13.8-10.12-17.71-16.33-5.06-7.82-7.36-18.17-7.36-28.52,0-12.88,3.22-23.46,12.42-32.66,9.2-9.2,22.54-14.26,37.03-14.26s29.44,5.29,39.79,15.41c8.05,8.05,13.11,18.63,13.11,32.43,0,15.41-6.67,25.3-12.65,31.05-12.88,12.42-30.82,13.57-40.94,13.57h-2.76v-69.46c-6.9.46-14.72,3.45-19.55,8.28-5.29,5.29-6.21,11.73-6.21,17.25,0,6.21,1.38,10.81,4.83,15.41,2.99,3.91,6.9,6.9,10.58,8.97l-10.58,18.86ZM57.33,749.14c5.29-.92,9.89-3.45,13.11-6.9,2.76-2.99,5.52-7.82,5.52-15.18,0-7.82-3.22-12.88-6.21-15.87-2.99-3.22-7.59-5.75-12.42-6.9v44.85Z"/>
        <path class="cls-1" d="M92.75,795.6v22.54h-8.74c2.99,2.53,6.21,6.21,8.05,9.43,2.53,4.37,3.22,8.74,3.22,13.8,0,5.52-.92,11.5-4.6,17.71l-20.47-9.2c3.22-5.06,3.45-9.2,3.45-11.5,0-4.83-.69-9.66-5.29-14.03-6.67-6.21-15.87-6.21-22.31-6.21H-4.08v-22.54h96.83Z"/>
      </g>
    </g>
  </g>
</svg>