<?xml version="1.0" encoding="UTF-8"?>
<svg id="_レイヤー_2" data-name="レイヤー_2" xmlns="http://www.w3.org/2000/svg" viewBox="0 0 121.93 20.59">
  <defs>
    <style>
      .cls-1 {
        fill: #dc0000;
      }
    </style>
  </defs>
  <g id="_x5F_layout">
    <g>
      <path class="cls-1" d="M8.78,3.1c-.79,7.37-2.82,13.18-5.21,17.16l-3.56-1.8C3.7,12.65,4.8,6.21,5.17,2.62l3.61.48ZM15.91,19.83c-1.36-7.28-3.19-12.15-4.99-15.97l3.28-1.41c3.37,6.47,4.86,12.54,5.52,16.39l-3.81.99ZM16.74,1.1c.88,1.45,1.36,2.62,1.94,4.29l-1.67.84c-.55-1.78-.92-2.75-1.85-4.36l1.58-.77ZM19.45,0c.88,1.39,1.32,2.44,1.98,4.29l-1.67.84c-.53-1.76-.99-2.82-1.87-4.33l1.56-.79Z"/>
      <path class="cls-1" d="M40.59,9.29v3.63h-18.83v-3.63h18.83Z"/>
      <path class="cls-1" d="M61.09,5.41v3.32h-3.34v1.85c0,6.23-3.78,9.04-10.63,10.01l-1.3-3.26c7.9-.79,8.36-4.42,8.36-6.78v-1.83h-5.52v5.1h-3.54v-5.1h-3.19v-3.32h3.19V1.78h3.54v3.63h5.52V1.74h3.56v3.67h3.34Z"/>
      <path class="cls-1" d="M81.16,9.29v3.63h-18.83v-3.63h18.83Z"/>
      <path class="cls-1" d="M81.57,17.84c5.35-2.97,6.12-7.11,6.51-9.22h-5.52v-3.3h5.9c.09-1.12.11-1.8.11-3.65l3.63.04c-.04,1.43-.09,2.11-.2,3.61h7.64v3.52c0,2.4-.15,7.31-.95,9.29-.9,2.27-3.06,2.27-4.29,2.27-1.56,0-2.6-.15-3.17-.24l-.2-3.5c.7.11,1.76.26,2.86.26,1.36,0,1.61-.31,1.83-1.25.18-.84.42-3.78.42-5.88v-1.17h-4.51c-.51,2.66-1.52,8.05-7.66,11.9l-2.4-2.68Z"/>
      <path class="cls-1" d="M121.93,9.29v3.63h-18.83v-3.63h18.83Z"/>
    </g>
  </g>
</svg>