<?xml version="1.0" encoding="UTF-8"?>
<svg id="_レイヤー_2" data-name="レイヤー_2" xmlns="http://www.w3.org/2000/svg" xmlns:xlink="http://www.w3.org/1999/xlink" viewBox="0 0 200 920">
  <defs>
    <style>
      .cls-1 {
        fill: #232323;
      }

      .cls-2 {
        fill: none;
      }

      .cls-3 {
        clip-path: url(#clippath);
      }
    </style>
    <clipPath id="clippath">
      <rect class="cls-2" width="200" height="920"/>
    </clipPath>
  </defs>
  <g id="bg">
    <g class="cls-3">
      <g>
        <path class="cls-1" d="M88.61,39.61v65.78h60.72v23.46H-4.08v-23.46h70.61V39.61H-4.08v-23.46h153.41v23.46h-60.72Z"/>
        <path class="cls-1" d="M92.75,232.35v22.54H-4.08v-22.54H6.04c-11.5-9.89-13.11-22.08-13.11-28.98,0-29.9,24.84-46.92,51.52-46.92,31.51,0,50.83,21.62,50.83,47.15,0,7.13-1.84,19.55-13.8,28.75h11.27ZM43.99,179.45c-16.79,0-30.82,10.58-30.82,26.91,0,14.26,10.35,27.37,30.59,27.37s31.28-13.11,31.28-27.37c0-16.33-13.8-26.91-31.05-26.91Z"/>
        <path class="cls-1" d="M92.75,283.18v22.54h-8.97c10.81,9.66,11.5,20.7,11.5,26.22,0,17.94-8.97,25.53-13.11,28.52-5.29,3.68-11.96,5.98-26.91,5.98H-4.08v-22.54h53.82c24.61,0,25.3-9.2,25.3-17.71,0-10.12-1.38-20.47-32.66-20.47H-4.08v-22.54h96.83Z"/>
        <path class="cls-1" d="M67.22,437.27c3.68-2.3,8.28-6.67,8.28-13.8,0-3.22-1.15-5.52-2.53-6.9-1.15-1.15-2.99-2.07-5.06-2.07-2.53,0-4.14,1.15-5.52,3.22-.92,1.38-1.38,2.76-3.91,7.59l-5.75,11.5c-2.53,5.06-5.06,9.89-8.97,13.57-5.29,5.29-11.27,7.13-17.94,7.13-8.74,0-16.33-3.22-22.08-8.51-8.28-7.59-10.81-17.02-10.81-27.14,0-6.21.92-14.03,6.21-20.93,4.14-5.52,10.81-10.12,17.71-12.42l8.74,18.4c-3.22,1.15-7.36,3.22-9.2,5.29-1.38,1.38-3.68,4.6-3.68,9.89,0,3.45,1.15,7.13,3.22,9.2,1.84,1.84,4.83,3.22,7.59,3.22s5.06-.92,7.36-2.99c2.76-2.76,4.37-5.98,5.98-9.66l3.91-8.28c2.07-4.37,4.6-9.66,8.28-13.34,4.83-5.06,10.12-6.9,16.33-6.9,7.82,0,15.41,2.99,20.7,8.05,4.6,4.37,9.2,11.73,9.2,23.69,0,6.9-1.38,12.42-5.06,17.94-2.07,3.22-5.75,7.59-11.96,11.04l-11.04-16.79Z"/>
        <path class="cls-1" d="M92.75,548.59v22.54H-4.08v-22.54H6.04c-11.5-9.89-13.11-22.08-13.11-28.98,0-29.9,24.84-46.92,51.52-46.92,31.51,0,50.83,21.62,50.83,47.15,0,7.13-1.84,19.55-13.8,28.75h11.27ZM43.99,495.69c-16.79,0-30.82,10.58-30.82,26.91,0,14.26,10.35,27.37,30.59,27.37s31.28-13.11,31.28-27.37c0-16.33-13.8-26.91-31.05-26.91Z"/>
        <path class="cls-1" d="M113.45,771c15.41-17.02,17.02-32.89,17.02-41.63,0-33.35-24.61-55.89-58.42-55.89s-57.5,23.46-57.5,56.12c0,18.4,9.43,32.66,17.71,41.4H4.43c-9.2-15.41-11.5-31.51-11.5-42.09,0-27.83,12.65-45.31,21.16-54.28,16.79-17.94,36.34-24.61,57.96-24.61,28.29,0,47.84,11.73,60.03,24.61,14.95,15.87,20.01,34.27,20.01,55.43,0,14.03-2.53,27.6-11.04,40.94h-27.6Z"/>
        <path class="cls-1" d="M18,882.54c-7.36-4.14-13.8-10.12-17.71-16.33-5.06-7.82-7.36-18.17-7.36-28.52,0-12.88,3.22-23.46,12.42-32.66,9.2-9.2,22.54-14.26,37.03-14.26s29.44,5.29,39.79,15.41c8.05,8.05,13.11,18.63,13.11,32.43,0,15.41-6.67,25.3-12.65,31.05-12.88,12.42-30.82,13.57-40.94,13.57h-2.76v-69.46c-6.9.46-14.72,3.45-19.55,8.28-5.29,5.29-6.21,11.73-6.21,17.25,0,6.21,1.38,10.81,4.83,15.41,2.99,3.91,6.9,6.9,10.58,8.97l-10.58,18.86ZM57.33,860.24c5.29-.92,9.89-3.45,13.11-6.9,2.76-2.99,5.52-7.82,5.52-15.18,0-7.82-3.22-12.88-6.21-15.87-2.99-3.22-7.59-5.75-12.42-6.9v44.85Z"/>
        <path class="cls-1" d="M92.75,906.7v22.54h-8.74c2.99,2.53,6.21,6.21,8.05,9.43,2.53,4.37,3.22,8.74,3.22,13.8,0,5.52-.92,11.5-4.6,17.71l-20.47-9.2c3.22-5.06,3.45-9.2,3.45-11.5,0-4.83-.69-9.66-5.29-14.03-6.67-6.21-15.87-6.21-22.31-6.21H-4.08v-22.54h96.83Z"/>
      </g>
    </g>
  </g>
</svg>