<?xml version="1.0" encoding="UTF-8"?>
<svg id="_レイヤー_2" data-name="レイヤー_2" xmlns="http://www.w3.org/2000/svg" viewBox="0 0 209.15 20.84">
  <defs>
    <style>
      .cls-1 {
        fill: #dc0000;
      }
    </style>
  </defs>
  <g id="_x5F_layout">
    <g>
      <path class="cls-1" d="M8.78,2.9c-.79,7.48-2.84,13.33-5.21,17.36l-3.56-1.83C3.67,12.59,4.8,6.05,5.17,2.4l3.61.51ZM16.19,19.83c-1.54-8.36-3.65-13.29-4.99-16.17l3.26-1.43c3.06,5.94,4.77,11.95,5.54,16.59l-3.81,1.01Z"/>
      <path class="cls-1" d="M28.82,9.02c-2.22-1.47-4.14-2.4-6.86-3.34l1.56-2.99c1.21.35,3.94,1.17,7.15,3.15l-1.85,3.19ZM22.38,16.5c7.39-.64,12.65-3.19,15.18-12.87l3.08,2.13c-2.95,9.66-8.34,13.38-17.47,14.52l-.79-3.79Z"/>
      <path class="cls-1" d="M49.31,14.08h-3.54v-5.02h-3.17v-3.32h3.17v-3.74h3.54v3.74h5.15V1.96h3.12l.09,3.79h3.72v3.32h-3.45v1.78c0,5.65-2.84,8.89-10.12,9.99l-1.32-3.26c6.93-.77,7.97-3.54,7.97-6.73v-1.78h-5.15v5.02ZM59.25.07c.62,1.58.86,2.82,1.12,4.6l-1.83.4c-.2-1.87-.4-2.88-.99-4.53l1.69-.46ZM62.23,0c.62,1.61.81,2.57,1.14,4.58l-1.8.42c-.22-1.87-.44-2.86-1.03-4.51l1.69-.48Z"/>
      <path class="cls-1" d="M77.56,11.11c0,1.8-1.45,3.3-3.3,3.3s-3.3-1.47-3.3-3.3,1.52-3.3,3.3-3.3,3.3,1.45,3.3,3.3Z"/>
      <path class="cls-1" d="M87.06,10.12l-.24-3.43,4.31-.4V1.72h3.56v4.27l10.76-.95c-.29,4.88-2.18,7.99-6.53,10.14l-2.11-2.66c2.88-1.17,3.72-2.6,4.29-3.81l-6.4.66v5.99c0,1.21.22,1.36,1.8,1.36h4.97c1.28,0,2.2-.09,3.37-.29v3.48c-.92.11-1.94.2-3.28.2h-5.79c-4.29,0-4.64-2.51-4.64-4.38v-6.01l-4.07.4Z"/>
      <path class="cls-1" d="M113.67,7.48c0,7.44-1.56,10.96-3.92,13.22l-2.66-2.71c2.35-2.57,3.08-5.26,3.08-10.21V2.55h3.5v4.93ZM119.63,15.84c1.41-.66,3.7-1.76,4.58-7.17l3.34,1.43c-.92,3.89-2.99,9.81-11.42,10.14V2h3.5v13.84Z"/>
      <path class="cls-1" d="M136.01,3.1c-.79,7.37-2.82,13.18-5.21,17.16l-3.56-1.8c3.7-5.81,4.8-12.26,5.17-15.84l3.61.48ZM143.14,19.83c-1.36-7.28-3.19-12.15-4.99-15.97l3.28-1.41c3.37,6.47,4.86,12.54,5.52,16.39l-3.81.99ZM143.97,1.1c.88,1.45,1.36,2.62,1.94,4.29l-1.67.84c-.55-1.78-.92-2.75-1.85-4.36l1.58-.77ZM146.68,0c.88,1.39,1.32,2.44,1.98,4.29l-1.67.84c-.53-1.76-.99-2.82-1.87-4.33l1.56-.79Z"/>
      <path class="cls-1" d="M156.91,9.02c-2.22-1.47-4.14-2.4-6.86-3.34l1.56-2.99c1.21.35,3.94,1.17,7.15,3.15l-1.85,3.19ZM150.46,16.5c7.39-.64,12.65-3.19,15.18-12.87l3.08,2.13c-2.95,9.66-8.34,13.38-17.47,14.52l-.79-3.79Z"/>
      <path class="cls-1" d="M171.39,17.62c6.29-.97,6.76-3.28,7.04-6.53h-7.75v-3.26h18.09v3.26h-6.73c-.35,5.54-2.57,8.41-9.24,9.68l-1.41-3.15ZM187.08,2.42v3.23h-14.7v-3.23h14.7Z"/>
      <path class="cls-1" d="M205.98,2.64c-.84,4.58-2.49,7.33-3.78,9.2,2.86,2.16,4.42,3.43,6.95,5.94l-2.95,2.88c-1.23-1.36-3.28-3.7-6.16-6.21-1.39,1.45-4.31,4.33-8.36,6.07l-1.98-2.93c2.88-1.21,5.41-2.9,7.57-5.15,2.02-2.11,3.19-4.16,4.07-6.49h-10.34v-3.32h14.98Z"/>
    </g>
  </g>
</svg>