<?xml version="1.0" encoding="UTF-8"?>
<svg id="_レイヤー_2" data-name="レイヤー_2" xmlns="http://www.w3.org/2000/svg" xmlns:xlink="http://www.w3.org/1999/xlink" viewBox="0 0 200 920">
  <defs>
    <style>
      .cls-1 {
        fill: none;
      }

      .cls-2 {
        fill: #232323;
      }

      .cls-3 {
        clip-path: url(#clippath);
      }
    </style>
    <clipPath id="clippath">
      <rect class="cls-1" width="200" height="920"/>
    </clipPath>
  </defs>
  <g id="bg">
    <g class="cls-3">
      <g>
        <path class="cls-2" d="M127.25,58.7H-4.08v-23.46H127.25V.05h22.08v93.84h-22.08v-35.19Z"/>
        <path class="cls-2" d="M92.75,132.99H-4.08v-22.54h96.83v22.54ZM147.26,121.72c0,8.28-6.21,14.49-14.49,14.49s-14.49-6.21-14.49-14.49,6.21-14.49,14.49-14.49,14.49,6.21,14.49,14.49Z"/>
        <path class="cls-2" d="M92.75,161.27v22.54h-8.97c10.81,9.66,11.5,20.7,11.5,26.22,0,17.94-8.97,25.53-13.11,28.52-5.29,3.68-11.96,5.98-26.91,5.98H-4.08v-22.54h53.82c24.61,0,25.3-9.2,25.3-17.71,0-10.12-1.38-20.47-32.66-20.47H-4.08v-22.54h96.83Z"/>
        <path class="cls-2" d="M18,359.76c-7.36-4.14-13.8-10.12-17.71-16.33-5.06-7.82-7.36-18.17-7.36-28.52,0-12.88,3.22-23.46,12.42-32.66,9.2-9.2,22.54-14.26,37.03-14.26s29.44,5.29,39.79,15.41c8.05,8.05,13.11,18.63,13.11,32.43,0,15.41-6.67,25.3-12.65,31.05-12.88,12.42-30.82,13.57-40.94,13.57h-2.76v-69.46c-6.9.46-14.72,3.45-19.55,8.28-5.29,5.29-6.21,11.73-6.21,17.25,0,6.21,1.38,10.81,4.83,15.41,2.99,3.91,6.9,6.9,10.58,8.97l-10.58,18.86ZM57.33,337.45c5.29-.92,9.89-3.45,13.11-6.9,2.76-2.99,5.52-7.82,5.52-15.18,0-7.82-3.22-12.88-6.21-15.87-2.99-3.22-7.59-5.75-12.42-6.9v44.85ZM140.59,345.04l-33.12-35.88,7.82-12.42,35.88,27.6-10.58,20.7Z"/>
        <path class="cls-2" d="M113.45,555.25c15.41-17.02,17.02-32.89,17.02-41.63,0-33.35-24.61-55.89-58.42-55.89s-57.5,23.46-57.5,56.12c0,18.4,9.43,32.66,17.71,41.4H4.43c-9.2-15.41-11.5-31.51-11.5-42.09,0-27.83,12.65-45.31,21.16-54.28,16.79-17.94,36.34-24.61,57.96-24.61,28.29,0,47.84,11.73,60.03,24.61,14.95,15.87,20.01,34.27,20.01,55.43,0,14.03-2.53,27.6-11.04,40.94h-27.6Z"/>
        <path class="cls-2" d="M163.59,580.1v22.54h-79.12c9.89,9.66,10.81,20.24,10.81,25.99,0,17.71-9.2,25.76-13.11,28.52-8.74,5.98-20.01,6.21-26.91,6.21H-4.08v-22.54h57.27c5.75,0,11.96,0,16.79-4.37,2.76-2.53,5.06-6.9,5.06-12.65,0-7.59-3.68-13.57-8.05-16.56-4.6-3.22-11.96-4.6-24.38-4.6H-4.08v-22.54h167.67Z"/>
        <path class="cls-2" d="M18,776.06c-7.36-4.14-13.8-10.12-17.71-16.33-5.06-7.82-7.36-18.17-7.36-28.52,0-12.88,3.22-23.46,12.42-32.66,9.2-9.2,22.54-14.26,37.03-14.26s29.44,5.29,39.79,15.41c8.05,8.05,13.11,18.63,13.11,32.43,0,15.41-6.67,25.3-12.65,31.05-12.88,12.42-30.82,13.57-40.94,13.57h-2.76v-69.46c-6.9.46-14.72,3.45-19.55,8.28-5.29,5.29-6.21,11.73-6.21,17.25,0,6.21,1.38,10.81,4.83,15.41,2.99,3.91,6.9,6.9,10.58,8.97l-10.58,18.86ZM57.33,753.75c5.29-.92,9.89-3.45,13.11-6.9,2.76-2.99,5.52-7.82,5.52-15.18,0-7.82-3.22-12.88-6.21-15.87-2.99-3.22-7.59-5.75-12.42-6.9v44.85Z"/>
        <path class="cls-2" d="M163.59,822.74H-4.08v-22.54h167.67v22.54Z"/>
        <path class="cls-2" d="M63.08,926.24c10.12-10.35,11.96-20.47,11.96-27.37,0-10.58-4.37-17.25-8.51-21.39-4.14-4.14-11.5-8.28-22.31-8.28s-18.86,4.37-23.23,8.74c-4.83,5.06-7.82,12.19-7.82,20.47,0,9.2,3.68,20.01,12.42,27.83H.52c-3.45-5.52-7.59-14.49-7.59-29.44,0-16.1,4.6-27.6,14.26-36.8,7.13-6.9,18.63-13.8,36.34-13.8s30.36,7.59,37.49,14.72c7.59,7.59,14.26,19.78,14.26,38.87,0,7.36-1.15,16.1-6.9,26.45h-25.3Z"/>
      </g>
    </g>
  </g>
</svg>