<?xml version="1.0" encoding="UTF-8"?>
<svg id="_レイヤー_2" data-name="レイヤー_2" xmlns="http://www.w3.org/2000/svg" viewBox="0 0 182.17 19.1">
  <defs>
    <style>
      .cls-1 {
        fill: #dc0000;
      }
    </style>
  </defs>
  <g id="_x5F_layout">
    <g>
      <path class="cls-1" d="M.7,15.95c6.29-.97,6.76-3.28,7.04-6.53H0v-3.26h18.09v3.26h-6.73c-.35,5.54-2.57,8.41-9.24,9.68l-1.41-3.15ZM16.39.75v3.23H1.69V.75h14.7Z"/>
      <path class="cls-1" d="M30.74,19.08h-3.26v-7.04c-1.89,1.08-3.85,1.98-5.88,2.64l-1.43-2.84c4.73-1.39,9.62-4.49,12.85-8.62l2.68,2.02c-1.85,2.16-3.52,3.52-4.97,4.62v9.22Z"/>
      <path class="cls-1" d="M56.77,7.61v3.63h-18.83v-3.63h18.83Z"/>
      <path class="cls-1" d="M66.36,0h3.52v2.53h5.59v2.97c-2.02,2.22-3.39,3.52-5.59,5.24v8.08h-3.52v-5.81c-2.53,1.39-4.73,2.13-6.38,2.68l-1.69-3.15c7.42-1.91,10.85-5.04,12.7-6.8l-11.09.07v-3.28h6.47V0ZM76.44,16c-1.85-1.54-3.41-2.55-5.85-3.76l1.96-2.62c2.35.97,4.29,2.13,5.79,3.26l-1.89,3.12Z"/>
      <path class="cls-1" d="M93.46,9.44c0,1.8-1.45,3.3-3.3,3.3s-3.3-1.47-3.3-3.3,1.52-3.3,3.3-3.3,3.3,1.45,3.3,3.3Z"/>
      <path class="cls-1" d="M114.67,6.87h6.65v3.19h-6.71c-.53,5.13-3.17,7.48-9.66,8.82l-1.45-3.12c6.18-.99,7.39-2.93,7.63-5.7h-8.12v-3.19h8.16v-2.07c-1.96.2-4.82.35-6.75.31l-.66-3.15c7.79,0,11.79-.99,14.37-1.8l1.74,3.17c-1.76.44-3.48.79-5.19,1.03v2.51Z"/>
      <path class="cls-1" d="M133.45,14.9h6.09v3.08h-15.34v-3.08h6.01v-7.08h-5.3v-3.06h13.84v3.06h-5.3v7.08Z"/>
      <path class="cls-1" d="M148.8,5.81c0,7.44-1.56,10.96-3.92,13.22l-2.66-2.71c2.35-2.57,3.08-5.26,3.08-10.21V.88h3.5v4.93ZM154.77,14.17c1.41-.66,3.7-1.76,4.58-7.17l3.34,1.43c-.92,3.89-2.99,9.81-11.42,10.14V.33h3.5v13.84Z"/>
      <path class="cls-1" d="M165.27,15.84c4.18-.68,11.42-2.95,12.85-11.75h-6.31c-1.25,1.94-2.88,3.89-5.46,5.5l-2.24-2.57c2.71-1.65,4.31-3.76,5.41-6.16h12.65c-.86,13.31-9.18,17.01-15.47,18.22l-1.43-3.23Z"/>
    </g>
  </g>
</svg>