<?xml version="1.0" encoding="UTF-8"?><svg id="_レイヤー_2" xmlns="http://www.w3.org/2000/svg" viewBox="0 0 178.4 20.77"><defs><style>.cls-1{fill:#dc0000;}</style></defs><g id="_layout"><path class="cls-1" d="M17.12,4.82v1.01c0,11.44-7.11,14.3-13.97,14.94l-1.19-3.28c2.99-.24,11.42-.88,11.42-9.42H3.41v4.51H0v-7.77h6.67V1.8h3.54v3.02h6.91ZM14.81.02c.73,1.3,1.1,2.33,1.63,4.09l-1.87.66c-.42-1.63-.79-2.64-1.52-4.07L14.81.02ZM18.15,0c.81,1.52,1.12,2.57,1.61,4.27l-1.89.71c-.37-1.74-.75-2.82-1.47-4.31l1.76-.66Z"/><path class="cls-1" d="M29.95,16.57h6.09v3.08h-15.34v-3.08h6.01v-7.09h-5.3v-3.06h13.84v3.06h-5.3v7.09Z"/><path class="cls-1" d="M56.66,7.55c-.31,3.23-1.36,7.66-4.64,9.99-2.6,1.85-6.56,2.71-9.79,2.95l-1.06-3.3c6.01-.31,10.14-1.65,11.31-6.4h-13.53v-3.23h17.71ZM55.27,2.31v3.21h-14.72v-3.21h14.72Z"/><path class="cls-1" d="M73.22,11.11c0,1.8-1.45,3.3-3.3,3.3s-3.3-1.47-3.3-3.3,1.52-3.3,3.3-3.3,3.3,1.45,3.3,3.3Z"/><path class="cls-1" d="M88.12,16.41c2.27-.26,7.77-.92,10.36-9.31l3.17,1.89c-3.3,8.76-8.91,11.13-17.27,11.33V2.09h3.74v14.32Z"/><path class="cls-1" d="M121.22,4.82v1.01c0,11.44-7.11,14.3-13.97,14.94l-1.19-3.28c2.99-.24,11.42-.88,11.42-9.42h-9.97v4.51h-3.41v-7.77h6.67V1.8h3.54v3.02h6.91ZM118.91.02c.73,1.3,1.1,2.33,1.63,4.09l-1.87.66c-.42-1.63-.79-2.64-1.52-4.07l1.76-.68ZM122.26,0c.81,1.52,1.12,2.57,1.61,4.27l-1.89.71c-.37-1.74-.75-2.82-1.47-4.31l1.76-.66Z"/><path class="cls-1" d="M134.49,20.75h-3.26v-7.04c-1.89,1.08-3.85,1.98-5.88,2.64l-1.43-2.84c4.73-1.39,9.62-4.49,12.85-8.62l2.68,2.02c-1.85,2.16-3.52,3.52-4.97,4.62v9.22Z"/><path class="cls-1" d="M144.98,13.07c-.18-.99-.62-3.12-1.74-5.54l2.77-.75c1.01,1.89,1.56,4.05,1.94,5.59l-2.97.7ZM144.71,18.13c7.52-1.7,9.7-4.53,11.11-12.12l3.41.81c-1.12,4.91-2.77,11.62-12.28,13.95l-2.24-2.64ZM149.88,11.99c-.33-1.74-.7-3.48-1.54-5.5l2.77-.55c.9,1.87,1.41,4.05,1.63,5.41l-2.86.64Z"/><path class="cls-1" d="M176.53,14.89c-2.13-1.43-4.69-3.04-8.34-4.44v10.01h-3.78V1.69h3.78v5.08c5.35,1.7,8.69,3.59,10.21,4.47l-1.87,3.65Z"/></g></svg>