<?xml version="1.0" encoding="UTF-8"?>
<svg id="_レイヤー_2" data-name="レイヤー 2" xmlns="http://www.w3.org/2000/svg" viewBox="0 0 286.04 20.77">
  <defs>
    <style>
      .cls-1 {
        fill: #dc0000;
      }
    </style>
  </defs>
  <g id="_layout">
    <g>
      <path class="cls-1" d="M17.29,2.97c-.35,6.95-1.98,14.92-14.28,17.49l-1.56-3.28c8.76-1.63,11.07-5.68,11.84-10.74H0v-3.47h17.29Z"/>
      <path class="cls-1" d="M37.58,7.55c-.31,3.23-1.36,7.66-4.64,9.99-2.6,1.85-6.56,2.71-9.79,2.95l-1.06-3.3c6.01-.31,10.14-1.65,11.31-6.4h-13.53v-3.23h17.71ZM36.2,2.31v3.21h-14.72v-3.21h14.72Z"/>
      <path class="cls-1" d="M46.57,9.02c-2.22-1.47-4.14-2.4-6.86-3.35l1.56-2.99c1.21.35,3.94,1.17,7.15,3.15l-1.85,3.19ZM40.12,16.5c7.39-.64,12.65-3.19,15.18-12.87l3.08,2.13c-2.95,9.66-8.34,13.38-17.47,14.52l-.79-3.79Z"/>
      <path class="cls-1" d="M71.84,8.54h6.65v3.19h-6.71c-.53,5.13-3.17,7.48-9.66,8.82l-1.45-3.12c6.18-.99,7.39-2.93,7.63-5.7h-8.12v-3.19h8.16v-2.07c-1.96.2-4.82.35-6.75.31l-.66-3.15c7.79,0,11.79-.99,14.37-1.8l1.74,3.17c-1.76.44-3.48.79-5.19,1.03v2.51Z"/>
      <path class="cls-1" d="M90.62,16.57h6.09v3.08h-15.34v-3.08h6.01v-7.09h-5.3v-3.06h13.84v3.06h-5.3v7.09Z"/>
      <path class="cls-1" d="M115.93,2.64c-.84,4.58-2.49,7.33-3.78,9.2,2.86,2.16,4.42,3.43,6.95,5.94l-2.95,2.88c-1.23-1.36-3.28-3.7-6.16-6.21-1.39,1.45-4.31,4.34-8.36,6.07l-1.98-2.93c2.88-1.21,5.41-2.9,7.57-5.15,2.02-2.11,3.19-4.16,4.07-6.49h-10.34v-3.32h14.98Z"/>
      <path class="cls-1" d="M121.04,17.84c5.35-2.97,6.12-7.11,6.51-9.22h-5.52v-3.3h5.9c.09-1.12.11-1.8.11-3.65l3.63.04c-.04,1.43-.09,2.11-.2,3.61h7.64v3.52c0,2.4-.15,7.31-.95,9.29-.9,2.27-3.06,2.27-4.29,2.27-1.56,0-2.6-.15-3.17-.24l-.2-3.5c.7.11,1.76.26,2.86.26,1.36,0,1.61-.31,1.83-1.25.18-.84.42-3.79.42-5.88v-1.17h-4.51c-.51,2.66-1.52,8.05-7.66,11.9l-2.4-2.68Z"/>
      <path class="cls-1" d="M156.09,11.11c0,1.8-1.45,3.3-3.3,3.3s-3.3-1.47-3.3-3.3,1.52-3.3,3.3-3.3,3.3,1.45,3.3,3.3Z"/>
      <path class="cls-1" d="M178.42,3.04l3.65,4.34c-.62,3.17-1.61,5.85-3.65,8.05-2.13,2.29-5.39,4.22-9.66,5.06l-1.58-3.3c9.2-1.69,10.61-6.49,11.27-10.67h-12.65v-3.48h12.63ZM185.9,2.99c0,1.65-1.34,2.99-2.99,2.99s-2.99-1.34-2.99-2.99,1.34-2.99,2.99-2.99,2.99,1.32,2.99,2.99ZM181.41,2.99c0,.84.66,1.5,1.5,1.5.79,0,1.5-.64,1.5-1.5s-.7-1.5-1.5-1.5c-.84,0-1.5.68-1.5,1.5Z"/>
      <path class="cls-1" d="M191.98,16.41c2.27-.26,7.77-.92,10.36-9.31l3.17,1.89c-3.3,8.76-8.91,11.13-17.27,11.33V2.09h3.74v14.32Z"/>
      <path class="cls-1" d="M225.54,7.55c-.31,3.23-1.36,7.66-4.64,9.99-2.6,1.85-6.56,2.71-9.79,2.95l-1.06-3.3c6.01-.31,10.14-1.65,11.31-6.4h-13.53v-3.23h17.71ZM224.16,2.31v3.21h-14.72v-3.21h14.72Z"/>
      <path class="cls-1" d="M247.33,9.29v3.63h-18.83v-3.63h18.83Z"/>
      <path class="cls-1" d="M251.03,17.62c6.29-.97,6.76-3.28,7.04-6.53h-7.75v-3.26h18.09v3.26h-6.73c-.35,5.54-2.57,8.4-9.24,9.68l-1.41-3.15ZM266.72,2.42v3.23h-14.7v-3.23h14.7Z"/>
      <path class="cls-1" d="M281.07,20.75h-3.26v-7.04c-1.89,1.08-3.85,1.98-5.88,2.64l-1.43-2.84c4.73-1.39,9.62-4.49,12.85-8.62l2.68,2.02c-1.85,2.16-3.52,3.52-4.97,4.62v9.22Z"/>
    </g>
  </g>
</svg>