<?xml version="1.0" encoding="UTF-8"?>
<svg id="_レイヤー_2" data-name="レイヤー_2" xmlns="http://www.w3.org/2000/svg" xmlns:xlink="http://www.w3.org/1999/xlink" viewBox="0 0 200 920">
  <defs>
    <style>
      .cls-1 {
        fill: #232323;
      }

      .cls-2 {
        fill: none;
      }

      .cls-3 {
        clip-path: url(#clippath);
      }
    </style>
    <clipPath id="clippath">
      <rect class="cls-2" width="200" height="920"/>
    </clipPath>
  </defs>
  <g id="bg">
    <g class="cls-3">
      <g>
        <path class="cls-1" d="M115.29,82.39c3.45-1.38,6.67-3.45,9.66-6.9,3.91-4.83,5.52-9.89,5.52-16.56,0-14.26-8.51-21.62-18.4-21.62-4.6,0-12.65,1.61-18.63,16.56l-6.21,15.41c-11.5,28.29-27.6,36.11-45.08,36.11-29.21,0-49.22-20.7-49.22-49.45C-7.07,38.23-.4,27.65,8.34,19.83c9.2-8.28,19.32-11.96,29.9-12.88l5.06,23.23c-7.59,0-14.72,2.76-19.55,6.44-5.52,4.37-9.2,10.81-9.2,20.01,0,14.26,10.35,25.3,25.76,25.3s22.08-11.96,26.22-22.08l6.21-14.72c5.29-12.65,15.87-31.28,38.87-31.28,20.7,0,40.48,16.1,40.48,44.85,0,16.56-6.21,25.99-10.35,30.82-3.68,4.14-8.97,8.51-15.41,11.73l-11.04-18.86Z"/>
        <path class="cls-1" d="M92.75,201.53v22.54H-4.08v-22.54H6.04c-11.5-9.89-13.11-22.08-13.11-28.98,0-29.9,24.84-46.92,51.52-46.92,31.51,0,50.83,21.62,50.83,47.15,0,7.13-1.84,19.55-13.8,28.75h11.27ZM43.99,148.63c-16.79,0-30.82,10.58-30.82,26.91,0,14.26,10.35,27.37,30.59,27.37s31.28-13.11,31.28-27.37c0-16.33-13.8-26.91-31.05-26.91Z"/>
        <path class="cls-1" d="M81.48,275.13c11.96,9.2,13.8,21.62,13.8,28.75,0,25.53-19.32,47.15-50.83,47.15-26.68,0-51.52-17.02-51.52-46.92,0-6.9,1.61-19.09,13.11-28.98H-4.08v-22.54h167.67v22.54h-82.11ZM43.76,273.75c-20.24,0-30.59,13.11-30.59,27.37,0,16.33,14.03,26.91,30.82,26.91s31.05-10.58,31.05-26.91c0-14.26-10.12-27.37-31.28-27.37Z"/>
        <path class="cls-1" d="M18,461.19c-7.36-4.14-13.8-10.12-17.71-16.33-5.06-7.82-7.36-18.17-7.36-28.52,0-12.88,3.22-23.46,12.42-32.66,9.2-9.2,22.54-14.26,37.03-14.26s29.44,5.29,39.79,15.41c8.05,8.05,13.11,18.63,13.11,32.43,0,15.41-6.67,25.3-12.65,31.05-12.88,12.42-30.82,13.57-40.94,13.57h-2.76v-69.46c-6.9.46-14.72,3.45-19.55,8.28-5.29,5.29-6.21,11.73-6.21,17.25,0,6.21,1.38,10.81,4.83,15.41,2.99,3.91,6.9,6.9,10.58,8.97l-10.58,18.86ZM57.33,438.88c5.29-.92,9.89-3.45,13.11-6.9,2.76-2.99,5.52-7.82,5.52-15.18,0-7.82-3.22-12.88-6.21-15.87-2.99-3.22-7.59-5.75-12.42-6.9v44.85Z"/>
        <path class="cls-1" d="M92.75,485.34v22.54h-8.74c2.99,2.53,6.21,6.21,8.05,9.43,2.53,4.37,3.22,8.74,3.22,13.8,0,5.52-.92,11.5-4.6,17.71l-20.47-9.2c3.22-5.06,3.45-9.2,3.45-11.5,0-4.83-.69-9.66-5.29-14.03-6.67-6.21-15.87-6.21-22.31-6.21H-4.08v-22.54h96.83Z"/>
      </g>
    </g>
  </g>
</svg>