<?xml version="1.0" encoding="UTF-8"?>
<svg id="_レイヤー_2" data-name="レイヤー_2" xmlns="http://www.w3.org/2000/svg" viewBox="0 0 78.42 20.44">
  <defs>
    <style>
      .cls-1 {
        fill: #dc0000;
      }
    </style>
  </defs>
  <g id="_x5F_layout">
    <g>
      <path class="cls-1" d="M.24,10.12l-.24-3.43,4.31-.4V1.72h3.56v4.27l10.76-.95c-.29,4.88-2.18,7.99-6.54,10.14l-2.11-2.66c2.88-1.17,3.72-2.6,4.29-3.81l-6.4.66v5.99c0,1.21.22,1.36,1.8,1.36h4.97c1.28,0,2.2-.09,3.37-.29v3.48c-.92.11-1.94.2-3.28.2h-5.79c-4.29,0-4.64-2.51-4.64-4.38v-6.01l-4.07.4Z"/>
      <path class="cls-1" d="M32.42,20.44h-3.74v-8.78c-3.3,1.92-5.76,2.73-7.04,3.17l-1.76-3.1c4.55-1.47,10.56-4.18,15.67-10.34l3.1,2.18c-1.5,1.65-3.1,3.32-6.23,5.65v11.22Z"/>
      <path class="cls-1" d="M46.61,3.1c-.79,7.37-2.82,13.18-5.21,17.16l-3.56-1.8c3.7-5.81,4.8-12.26,5.17-15.84l3.61.48ZM53.73,19.83c-1.36-7.28-3.19-12.15-4.99-15.97l3.28-1.41c3.37,6.47,4.86,12.54,5.52,16.39l-3.81.99ZM54.57,1.1c.88,1.45,1.37,2.62,1.94,4.29l-1.67.84c-.55-1.78-.92-2.75-1.85-4.36l1.58-.77ZM57.28,0c.88,1.39,1.32,2.44,1.98,4.29l-1.67.84c-.53-1.76-.99-2.82-1.87-4.33l1.56-.79Z"/>
      <path class="cls-1" d="M78.42,9.29v3.63h-18.84v-3.63h18.84Z"/>
    </g>
  </g>
</svg>