<?xml version="1.0" encoding="UTF-8"?>
<svg id="_レイヤー_2" data-name="レイヤー_2" xmlns="http://www.w3.org/2000/svg" xmlns:xlink="http://www.w3.org/1999/xlink" viewBox="0 0 200 920">
  <defs>
    <style>
      .cls-1 {
        fill: #232323;
      }

      .cls-2 {
        fill: none;
      }

      .cls-3 {
        clip-path: url(#clippath);
      }
    </style>
    <clipPath id="clippath">
      <rect class="cls-2" width="200" height="920"/>
    </clipPath>
  </defs>
  <g id="bg">
    <g class="cls-3">
      <g>
        <path class="cls-1" d="M32.95,106.56V41.01L-4.08,24.22V-1.08l162.38,76.36L-4.08,147.96v-25.3l37.03-16.1ZM55.03,97.13l51.98-22.77-51.98-23.69v46.46Z"/>
        <path class="cls-1" d="M67.22,205.46c3.68-2.3,8.28-6.67,8.28-13.8,0-3.22-1.15-5.52-2.53-6.9-1.15-1.15-2.99-2.07-5.06-2.07-2.53,0-4.14,1.15-5.52,3.22-.92,1.38-1.38,2.76-3.91,7.59l-5.75,11.5c-2.53,5.06-5.06,9.89-8.97,13.57-5.29,5.29-11.27,7.13-17.94,7.13-8.74,0-16.33-3.22-22.08-8.51-8.28-7.59-10.81-17.02-10.81-27.14,0-6.21.92-14.03,6.21-20.93,4.14-5.52,10.81-10.12,17.71-12.42l8.74,18.4c-3.22,1.15-7.36,3.22-9.2,5.29-1.38,1.38-3.68,4.6-3.68,9.89,0,3.45,1.15,7.13,3.22,9.2,1.84,1.84,4.83,3.22,7.59,3.22s5.06-.92,7.36-2.99c2.76-2.76,4.37-5.98,5.98-9.66l3.91-8.28c2.07-4.37,4.6-9.66,8.28-13.34,4.83-5.06,10.12-6.9,16.33-6.9,7.82,0,15.41,2.99,20.7,8.05,4.6,4.37,9.2,11.73,9.2,23.69,0,6.9-1.38,12.42-5.06,17.94-2.07,3.22-5.75,7.59-11.96,11.04l-11.04-16.79Z"/>
        <path class="cls-1" d="M67.22,288.25c3.68-2.3,8.28-6.67,8.28-13.8,0-3.22-1.15-5.52-2.53-6.9-1.15-1.15-2.99-2.07-5.06-2.07-2.53,0-4.14,1.15-5.52,3.22-.92,1.38-1.38,2.76-3.91,7.59l-5.75,11.5c-2.53,5.06-5.06,9.89-8.97,13.57-5.29,5.29-11.27,7.13-17.94,7.13-8.74,0-16.33-3.22-22.08-8.51-8.28-7.59-10.81-17.02-10.81-27.14,0-6.21.92-14.03,6.21-20.93,4.14-5.52,10.81-10.12,17.71-12.42l8.74,18.4c-3.22,1.15-7.36,3.22-9.2,5.29-1.38,1.38-3.68,4.6-3.68,9.89,0,3.45,1.15,7.13,3.22,9.2,1.84,1.84,4.83,3.22,7.59,3.22s5.06-.92,7.36-2.99c2.76-2.76,4.37-5.98,5.98-9.66l3.91-8.28c2.07-4.37,4.6-9.66,8.28-13.34,4.83-5.06,10.12-6.9,16.33-6.9,7.82,0,15.41,2.99,20.7,8.05,4.6,4.37,9.2,11.73,9.2,23.69,0,6.9-1.38,12.42-5.06,17.94-2.07,3.22-5.75,7.59-11.96,11.04l-11.04-16.79Z"/>
        <path class="cls-1" d="M92.75,399.57v22.54H-4.08v-22.54H6.04c-11.5-9.89-13.11-22.08-13.11-28.98,0-29.9,24.84-46.92,51.52-46.92,31.51,0,50.83,21.62,50.83,47.15,0,7.13-1.84,19.55-13.8,28.75h11.27ZM43.99,346.67c-16.79,0-30.82,10.58-30.82,26.91,0,14.26,10.35,27.37,30.59,27.37s31.28-13.11,31.28-27.37c0-16.33-13.8-26.91-31.05-26.91Z"/>
        <path class="cls-1" d="M67.22,492.95c3.68-2.3,8.28-6.67,8.28-13.8,0-3.22-1.15-5.52-2.53-6.9-1.15-1.15-2.99-2.07-5.06-2.07-2.53,0-4.14,1.15-5.52,3.22-.92,1.38-1.38,2.76-3.91,7.59l-5.75,11.5c-2.53,5.06-5.06,9.89-8.97,13.57-5.29,5.29-11.27,7.13-17.94,7.13-8.74,0-16.33-3.22-22.08-8.51-8.28-7.59-10.81-17.02-10.81-27.14,0-6.21.92-14.03,6.21-20.93,4.14-5.52,10.81-10.12,17.71-12.42l8.74,18.4c-3.22,1.15-7.36,3.22-9.2,5.29-1.38,1.38-3.68,4.6-3.68,9.89,0,3.45,1.15,7.13,3.22,9.2,1.84,1.84,4.83,3.22,7.59,3.22s5.06-.92,7.36-2.99c2.76-2.76,4.37-5.98,5.98-9.66l3.91-8.28c2.07-4.37,4.6-9.66,8.28-13.34,4.83-5.06,10.12-6.9,16.33-6.9,7.82,0,15.41,2.99,20.7,8.05,4.6,4.37,9.2,11.73,9.2,23.69,0,6.9-1.38,12.42-5.06,17.94-2.07,3.22-5.75,7.59-11.96,11.04l-11.04-16.79Z"/>
        <path class="cls-1" d="M67.22,575.75c3.68-2.3,8.28-6.67,8.28-13.8,0-3.22-1.15-5.52-2.53-6.9-1.15-1.15-2.99-2.07-5.06-2.07-2.53,0-4.14,1.15-5.52,3.22-.92,1.38-1.38,2.76-3.91,7.59l-5.75,11.5c-2.53,5.06-5.06,9.89-8.97,13.57-5.29,5.29-11.27,7.13-17.94,7.13-8.74,0-16.33-3.22-22.08-8.51-8.28-7.59-10.81-17.02-10.81-27.14,0-6.21.92-14.03,6.21-20.93,4.14-5.52,10.81-10.12,17.71-12.42l8.74,18.4c-3.22,1.15-7.36,3.22-9.2,5.29-1.38,1.38-3.68,4.6-3.68,9.89,0,3.45,1.15,7.13,3.22,9.2,1.84,1.84,4.83,3.22,7.59,3.22s5.06-.92,7.36-2.99c2.76-2.76,4.37-5.98,5.98-9.66l3.91-8.28c2.07-4.37,4.6-9.66,8.28-13.34,4.83-5.06,10.12-6.9,16.33-6.9,7.82,0,15.41,2.99,20.7,8.05,4.6,4.37,9.2,11.73,9.2,23.69,0,6.9-1.38,12.42-5.06,17.94-2.07,3.22-5.75,7.59-11.96,11.04l-11.04-16.79Z"/>
        <path class="cls-1" d="M92.75,638.76H-4.08v-22.54h96.83v22.54ZM147.26,627.49c0,8.28-6.21,14.49-14.49,14.49s-14.49-6.21-14.49-14.49,6.21-14.49,14.49-14.49,14.49,6.21,14.49,14.49Z"/>
        <path class="cls-1" d="M92.75,667.05v22.54h-8.97c10.81,9.66,11.5,20.7,11.5,26.22,0,17.94-8.97,25.53-13.11,28.52-5.29,3.68-11.96,5.98-26.91,5.98H-4.08v-22.54h53.82c24.61,0,25.3-9.2,25.3-17.71,0-10.12-1.38-20.47-32.66-20.47H-4.08v-22.54h96.83Z"/>
      </g>
    </g>
  </g>
</svg>