<?xml version="1.0" encoding="UTF-8"?>
<svg id="_レイヤー_2" data-name="レイヤー_2" xmlns="http://www.w3.org/2000/svg" viewBox="0 0 81.34 18.94">
  <defs>
    <style>
      .cls-1 {
        fill: #dc0000;
      }
    </style>
  </defs>
  <g id="_x5F_layout">
    <g>
      <path class="cls-1" d="M0,16.13c6.07-2.27,6.75-6.31,6.71-10.61h3.61c-.02.9-.04,1.47-.15,2.53,2.22-1.17,3.37-2.22,4.16-4.14H0V.55h18.75c-.75,5.66-2.97,8.14-6.49,10.21l-2.16-2.2c-.37,3.01-1.28,7.35-7.81,10.38l-2.29-2.82Z"/>
      <path class="cls-1" d="M39.83,3.67v3.32h-3.34v1.85c0,6.23-3.78,9.04-10.63,10.01l-1.3-3.26c7.9-.79,8.36-4.42,8.36-6.78v-1.83h-5.52v5.11h-3.54v-5.11h-3.19v-3.32h3.19V.04h3.54v3.63h5.52V0h3.56v3.67h3.34Z"/>
      <path class="cls-1" d="M48.31,10.98c-2.55-1.56-5.17-2.33-6.4-2.71l1.23-2.88c1.8.44,3.87.99,6.53,2.49l-1.36,3.1ZM43.23,14.85c7.52-.71,11.6-2.66,14.28-11.97l3.06,2.2c-3.26,9.79-8.43,12.5-16.59,13.55l-.75-3.79ZM50.27,5.7c-2.77-1.5-5.43-2.22-6.62-2.53l1.28-2.84c2.57.53,4.22,1.1,6.75,2.29l-1.41,3.08Z"/>
      <path class="cls-1" d="M69.52,7.28c-2.22-1.47-4.14-2.4-6.86-3.35l1.56-2.99c1.21.35,3.94,1.17,7.15,3.15l-1.85,3.19ZM63.07,14.76c7.39-.64,12.65-3.19,15.18-12.87l3.08,2.13c-2.95,9.66-8.34,13.38-17.47,14.52l-.79-3.79Z"/>
    </g>
  </g>
</svg>