<?xml version="1.0" encoding="UTF-8"?><svg id="_レイヤー_2" xmlns="http://www.w3.org/2000/svg" viewBox="0 0 262.33 20.79"><defs><style>.cls-1{fill:#dc0000;stroke-width:0px;}</style></defs><g id="_layout"><path class="cls-1" d="M17.29,2.71c-.35,6.95-1.98,14.92-14.28,17.49l-1.56-3.28c8.76-1.63,11.07-5.68,11.84-10.74H0v-3.47h17.29Z"/><path class="cls-1" d="M20.67,18.35c4.8-2.18,5.39-4.82,5.35-8.54h3.23c-.02.73-.07,1.25-.15,2,.68-.37,2.31-1.52,3.08-3.3h-11.57v-2.99h15.42c-.11,1.56-.59,6.07-5.28,8.69l-1.74-1.85c-.7,4.99-3.48,6.84-6.4,8.43l-1.94-2.44Z"/><path class="cls-1" d="M43.7,7.22c0,7.44-1.56,10.96-3.92,13.22l-2.66-2.71c2.35-2.57,3.08-5.26,3.08-10.21V2.29h3.5v4.93ZM49.66,15.58c1.41-.66,3.7-1.76,4.58-7.17l3.34,1.43c-.92,3.89-2.99,9.81-11.42,10.14V1.74h3.5v13.84Z"/><path class="cls-1" d="M60.28,17.36c5.5-.86,6.87-2.71,7.04-6.53h-7.75v-3.26h18.09v3.26h-6.71c-.4,5.54-2.57,8.4-9.26,9.68l-1.41-3.15ZM73.66,2.16v3.23h-12.37v-3.23h12.37ZM75.53.59c.7,1.61,1.01,2.86,1.34,4.53l-1.78.59c-.29-1.83-.57-2.9-1.21-4.58l1.65-.55ZM78.48,0c.66,1.43.99,2.64,1.36,4.51l-1.78.59c-.29-1.85-.57-2.86-1.25-4.55l1.67-.55Z"/><path class="cls-1" d="M98.84,4.38v1.03c0,11.71-7.42,14.35-13.99,14.92l-1.17-3.28c3.34-.29,11.35-1.01,11.42-9.42h-9.99v4.51h-3.41v-7.77h6.69V1.36h3.52v3.02h6.93Z"/><path class="cls-1" d="M116.96,2.38c-.84,4.58-2.49,7.33-3.78,9.2,2.86,2.16,4.42,3.43,6.95,5.94l-2.95,2.88c-1.23-1.36-3.28-3.7-6.16-6.21-1.39,1.45-4.31,4.34-8.36,6.07l-1.98-2.93c2.88-1.21,5.41-2.9,7.57-5.15,2.02-2.11,3.19-4.16,4.07-6.49h-10.34v-3.32h14.98Z"/><path class="cls-1" d="M135.72,10.85c0,1.8-1.45,3.3-3.3,3.3s-3.3-1.47-3.3-3.3,1.52-3.3,3.3-3.3,3.3,1.45,3.3,3.3Z"/><path class="cls-1" d="M145.97,17.36c5.5-.86,6.87-2.71,7.04-6.53h-7.75v-3.26h18.09v3.26h-6.71c-.4,5.54-2.57,8.4-9.26,9.68l-1.41-3.15ZM159.35,2.16v3.23h-12.37v-3.23h12.37ZM161.22.59c.7,1.61,1.01,2.86,1.34,4.53l-1.78.59c-.29-1.83-.57-2.9-1.21-4.58l1.65-.55ZM164.17,0c.66,1.43.99,2.64,1.36,4.51l-1.78.59c-.29-1.85-.57-2.86-1.25-4.55l1.67-.55Z"/><path class="cls-1" d="M176.05,20.48h-3.26v-7.04c-1.89,1.08-3.85,1.98-5.88,2.64l-1.43-2.84c4.73-1.39,9.62-4.49,12.85-8.62l2.68,2.02c-1.85,2.16-3.52,3.52-4.97,4.62v9.22Z"/><path class="cls-1" d="M184.5,8.19v-3.32h9.64V1.54h3.48v3.32h4.75v3.32h-4.73l.02,8.93c0,3.12-2.68,3.12-3.72,3.12-.66,0-1.21-.02-2.88-.07l-.51-3.43c1.17.09,2.13.15,2.62.15.57,0,1.01-.09,1.01-.75l-.02-4.91c-1.43,1.89-4.07,4.58-8.56,6.97l-2.09-2.73c3.65-1.7,6.82-4.22,9.44-7.3h-8.45Z"/><path class="cls-1" d="M222.76,7.28c-.31,3.23-1.36,7.66-4.64,9.99-2.6,1.85-6.56,2.71-9.79,2.95l-1.06-3.3c6.01-.31,10.14-1.65,11.31-6.4h-13.53v-3.23h17.71ZM221.37,2.05v3.21h-14.72v-3.21h14.72Z"/><path class="cls-1" d="M231.74,8.76c-2.22-1.47-4.14-2.4-6.86-3.35l1.56-2.99c1.21.35,3.94,1.17,7.15,3.15l-1.85,3.19ZM225.3,16.24c7.39-.64,12.65-3.19,15.18-12.87l3.08,2.13c-2.95,9.66-8.34,13.38-17.47,14.52l-.79-3.79Z"/><path class="cls-1" d="M259.82,14.65c-2.38-1.61-4.77-3.08-8.34-4.47v10.03h-3.78V1.43h3.78v5.08c5.1,1.63,8.34,3.41,10.21,4.49l-1.87,3.65ZM256.83,2.05c.86,1.12,1.47,2.27,2.33,4.18l-1.98,1.06c-.68-1.74-1.25-2.84-2.24-4.27l1.89-.97ZM259.91.62c1.06,1.34,1.83,2.84,2.42,4.14l-2,1.01c-.73-1.76-1.17-2.64-2.31-4.25l1.89-.9Z"/></g></svg>