<?xml version="1.0" encoding="UTF-8"?><svg id="_レイヤー_2" xmlns="http://www.w3.org/2000/svg" xmlns:xlink="http://www.w3.org/1999/xlink" viewBox="0 0 200 920"><defs><style>.cls-1{fill:none;}.cls-2{fill:#232323;}.cls-3{clip-path:url(#clippath);}</style><clipPath id="clippath"><rect class="cls-1" width="200" height="920"/></clipPath></defs><g id="bg"><g class="cls-3"><path class="cls-2" d="M149.33,62.86H49.97c-12.19,0-24.38-.46-34.96-5.75C5.35,52.28-7.07,41.93-7.07,21-7.07,7.43-2.24-1.54.75-6.14L20.53,5.36c-2.53,2.99-5.52,7.82-5.52,16.1,0,3.91.69,11.5,10.35,15.41,3.45,1.38,8.97,2.53,24.61,2.53h99.36v23.46Z"/><path class="cls-2" d="M44.22,193.96c-29.67,0-51.29-22.54-51.29-51.75s21.62-51.75,51.29-51.75,51.06,22.54,51.06,51.75-21.16,51.75-51.06,51.75ZM43.99,170.96c22.08,0,31.05-14.49,31.05-28.75s-8.97-28.75-31.05-28.75c-18.63,0-30.82,11.04-30.82,28.75s12.19,28.75,30.82,28.75Z"/><path class="cls-2" d="M163.59,217.42v22.54h-79.12c9.89,9.66,10.81,20.24,10.81,25.99,0,17.71-9.2,25.76-13.11,28.52-8.74,5.98-20.01,6.21-26.91,6.21H-4.08v-22.54h57.27c5.75,0,11.96,0,16.79-4.37,2.76-2.53,5.06-6.9,5.06-12.65,0-7.59-3.68-13.57-8.05-16.56-4.6-3.22-11.96-4.6-24.38-4.6H-4.08v-22.54h167.67Z"/><path class="cls-2" d="M92.75,328.97v22.54h-8.97c10.81,9.66,11.5,20.7,11.5,26.22,0,17.94-8.97,25.53-13.11,28.52-5.29,3.68-11.96,5.98-26.91,5.98H-4.08v-22.54h53.82c24.61,0,25.3-9.2,25.3-17.71,0-10.12-1.38-20.47-32.66-20.47H-4.08v-22.54h96.83Z"/><path class="cls-2" d="M149.33,506.29l-102.58,40.48,109.94,41.4-109.94,40.02,102.58,41.86v25.3L-13.97,626.81l108.79-40.02-108.79-40.48,163.3-65.32v25.3Z"/><path class="cls-2" d="M92.75,733.07H-4.08v-22.54h96.83v22.54ZM147.26,721.8c0,8.28-6.21,14.49-14.49,14.49s-14.49-6.21-14.49-14.49,6.21-14.49,14.49-14.49,14.49,6.21,14.49,14.49Z"/><path class="cls-2" d="M92.75,761.35v22.54h-8.97c10.81,9.66,11.5,20.7,11.5,26.22,0,17.94-8.97,25.53-13.11,28.52-5.29,3.68-11.96,5.98-26.91,5.98H-4.08v-22.54h53.82c24.61,0,25.3-9.2,25.3-17.71,0-10.12-1.38-20.47-32.66-20.47H-4.08v-22.54h96.83Z"/><path class="cls-2" d="M92.75,943.97v22.54H3.74c-22.77,0-39.1-2.53-50.37-15.87-5.06-6.21-10.35-16.33-10.35-32.2,0-11.27,2.76-22.54,11.96-31.74,7.13-7.13,18.4-12.65,30.13-14.26v21.85c-5.29.92-11.5,3.68-15.18,7.13-2.99,2.76-6.67,8.28-6.67,17.48s3.68,14.95,6.44,17.71c7.13,7.36,17.25,7.36,24.38,7.36H6.73c-13.11-10.35-13.8-23-13.8-29.44,0-12.42,3.45-22.77,13.11-31.97,9.2-8.74,22.31-14.49,38.41-14.49,17.71,0,29.9,6.67,37.49,14.26,9.89,9.66,13.34,21.16,13.34,32.89,0,9.66-3.22,20.47-13.11,28.75h10.58ZM68.6,900.96c-5.29-5.75-14.26-9.89-24.61-9.89-9.66,0-19.09,3.68-24.38,9.66-3.68,4.14-6.44,10.35-6.44,17.25s2.07,13.34,7.82,18.86c7.13,6.67,15.41,8.51,22.77,8.51,10.81,0,18.86-3.45,24.38-9.2,5.52-5.52,6.9-11.73,6.9-18.17s-1.61-11.96-6.44-17.02Z"/></g></g></svg>