<?xml version="1.0" encoding="UTF-8"?><svg id="_レイヤー_2" xmlns="http://www.w3.org/2000/svg" viewBox="0 0 201.75 20.75"><defs><style>.cls-1{fill:#dc0000;}</style></defs><g id="_layout"><path class="cls-1" d="M6.4,12.72c-2.38-1.45-5-2.24-6.4-2.68l1.23-2.88c1.17.26,3.67.86,6.53,2.46l-1.36,3.1ZM1.3,16.61c7.06-.64,11.33-2.44,13.99-11.07l3.04,2.2c-3.15,8.56-7.83,11.57-16.26,12.65l-.77-3.78ZM8.36,7.42c-2.49-1.32-4.84-2-6.62-2.51l1.25-2.84c3.17.59,5.74,1.78,6.78,2.27l-1.41,3.08ZM14.48.33c.92,1.36,1.34,2.35,2.07,4.22l-1.8.88c-.59-1.8-1.03-2.77-1.96-4.31l1.69-.79ZM17.98.29c.88,1.41,1.32,2.49,1.96,4.29l-1.83.84c-.55-1.87-.92-2.71-1.85-4.36l1.72-.77Z"/><path class="cls-1" d="M22.55,14.28v-2.88h9.33v-2.49h-9.68v-2.97h13v14.02h-13.2v-3.04h9.88v-2.64h-9.33Z"/><path class="cls-1" d="M45.86,9.02c-2.22-1.47-4.14-2.4-6.86-3.34l1.56-2.99c1.21.35,3.94,1.17,7.15,3.15l-1.85,3.19ZM39.41,16.5c7.39-.64,12.65-3.19,15.18-12.87l3.08,2.13c-2.95,9.66-8.34,13.38-17.47,14.52l-.79-3.79Z"/><path class="cls-1" d="M73.2,11.11c0,1.8-1.45,3.3-3.3,3.3s-3.3-1.47-3.3-3.3,1.52-3.3,3.3-3.3,3.3,1.45,3.3,3.3Z"/><path class="cls-1" d="M100.48,4.64v1.03c0,11.71-7.42,14.35-13.99,14.92l-1.17-3.28c3.34-.29,11.35-1.01,11.42-9.42h-9.99v4.51h-3.41v-7.77h6.69V1.63h3.52v3.01h6.93Z"/><path class="cls-1" d="M113.65,20.75h-3.26v-7.04c-1.89,1.08-3.85,1.98-5.88,2.64l-1.43-2.84c4.73-1.39,9.62-4.49,12.85-8.62l2.68,2.02c-1.85,2.16-3.52,3.52-4.97,4.62v9.22Z"/><path class="cls-1" d="M128.54,9.02c-2.22-1.47-4.14-2.4-6.86-3.34l1.56-2.99c1.21.35,3.94,1.17,7.15,3.15l-1.85,3.19ZM122.09,16.5c7.39-.64,12.65-3.19,15.18-12.87l3.08,2.13c-2.95,9.66-8.34,13.38-17.47,14.52l-.79-3.79Z"/><path class="cls-1" d="M141.77,17.84c5.35-2.97,6.12-7.11,6.51-9.22h-5.52v-3.3h5.9c.09-1.12.11-1.8.11-3.65l3.63.04c-.04,1.43-.09,2.11-.2,3.61h7.64v3.52c0,2.4-.15,7.31-.95,9.29-.9,2.27-3.06,2.27-4.29,2.27-1.56,0-2.6-.15-3.17-.24l-.2-3.5c.7.11,1.76.26,2.86.26,1.36,0,1.61-.31,1.83-1.25.18-.84.42-3.78.42-5.88v-1.17h-4.51c-.51,2.66-1.52,8.05-7.66,11.9l-2.4-2.68ZM157.28.04c.77,1.36,1.17,2.44,1.69,4.18l-1.89.7c-.4-1.61-.79-2.71-1.56-4.18l1.76-.7ZM160.69,0c.75,1.36,1.08,2.38,1.61,4.25l-1.91.66c-.37-1.67-.75-2.75-1.47-4.22l1.78-.68Z"/><path class="cls-1" d="M182.12,9.29v3.63h-18.83v-3.63h18.83Z"/><path class="cls-1" d="M199.24,14.92c-2.38-1.61-4.77-3.08-8.34-4.47v10.03h-3.78V1.69h3.78v5.08c5.1,1.63,8.34,3.41,10.21,4.49l-1.87,3.65ZM196.25,2.31c.86,1.12,1.47,2.27,2.33,4.18l-1.98,1.06c-.68-1.74-1.25-2.84-2.24-4.27l1.89-.97ZM199.33.88c1.06,1.34,1.83,2.84,2.42,4.14l-2,1.01c-.73-1.76-1.17-2.64-2.31-4.25l1.89-.9Z"/></g></svg>