<?xml version="1.0" encoding="UTF-8"?>
<svg id="_レイヤー_2" data-name="レイヤー_2" xmlns="http://www.w3.org/2000/svg" viewBox="0 0 101.18 19.12">
  <defs>
    <style>
      .cls-1 {
        fill: #dc0000;
      }
    </style>
  </defs>
  <g id="_x5F_layout">
    <g>
      <path class="cls-1" d="M0,16.04c6.07-2.27,6.75-6.31,6.71-10.61h3.61c-.02.9-.04,1.47-.15,2.53,2.22-1.17,3.37-2.22,4.16-4.14H0V.46h18.75c-.75,5.66-2.97,8.14-6.49,10.21l-2.16-2.2c-.37,3.01-1.28,7.35-7.81,10.39l-2.29-2.82Z"/>
      <path class="cls-1" d="M38.63,7.46v3.63h-18.83v-3.63h18.83Z"/>
      <path class="cls-1" d="M53.4,6.71h6.65v3.19h-6.71c-.53,5.13-3.17,7.48-9.66,8.82l-1.45-3.12c6.18-.99,7.39-2.93,7.63-5.7h-8.12v-3.19h8.16v-2.07c-1.96.2-4.82.35-6.75.31l-.66-3.15c7.79,0,11.79-.99,14.37-1.8l1.74,3.17c-1.76.44-3.48.79-5.19,1.03v2.51Z"/>
      <path class="cls-1" d="M72.17,18.75l-3.28.37-1.3-9.13-4.03.59-.42-3.1,4-.53-.51-3.5,3.23-.31.48,3.39,8.41-1.1c.02,5.66-2.71,8.05-4.27,9.2l-2.42-2.16c1.94-1.32,2.49-2.27,2.97-3.59l-4.25.64,1.36,9.22Z"/>
      <path class="cls-1" d="M101.18,7.46v3.63h-18.83v-3.63h18.83Z"/>
    </g>
  </g>
</svg>