<?xml version="1.0" encoding="UTF-8"?>
<svg id="_レイヤー_2" data-name="レイヤー_2" xmlns="http://www.w3.org/2000/svg" xmlns:xlink="http://www.w3.org/1999/xlink" viewBox="0 0 200 920">
  <defs>
    <style>
      .cls-1 {
        fill: none;
      }

      .cls-2 {
        fill: #232323;
      }

      .cls-3 {
        clip-path: url(#clippath);
      }
    </style>
    <clipPath id="clippath">
      <rect class="cls-1" width="200" height="920"/>
    </clipPath>
  </defs>
  <g id="bg">
    <g class="cls-3">
      <g>
        <path class="cls-2" d="M111.58,75.03c3.15-1.26,6.09-3.15,8.82-6.3,3.57-4.41,5.04-9.03,5.04-15.12,0-13.02-7.77-19.74-16.8-19.74-4.2,0-11.55,1.47-17.01,15.12l-5.67,14.07c-10.5,25.83-25.2,32.97-41.16,32.97C18.13,96.03-.14,77.13-.14,50.88-.14,34.71,5.95,25.05,13.93,17.91c8.4-7.56,17.64-10.92,27.3-11.76l4.62,21.21c-6.93,0-13.44,2.52-17.85,5.88-5.04,3.99-8.4,9.87-8.4,18.27,0,13.02,9.45,23.1,23.52,23.1s20.16-10.92,23.94-20.16l5.67-13.44c4.83-11.55,14.49-28.56,35.49-28.56,18.9,0,36.96,14.7,36.96,40.95,0,15.12-5.67,23.73-9.45,28.14-3.36,3.78-8.19,7.77-14.07,10.71l-10.08-17.22Z"/>
        <path class="cls-2" d="M91,139.71H2.59v-20.58h88.41v20.58ZM140.78,129.42c0,7.56-5.67,13.23-13.23,13.23s-13.23-5.67-13.23-13.23,5.67-13.23,13.23-13.23,13.23,5.67,13.23,13.23Z"/>
        <path class="cls-2" d="M155.69,186.33H2.59v-20.58h153.09v20.58Z"/>
        <path class="cls-2" d="M91,223.7l-50.4,22.68,50.4,22.68v23.1L-3.71,246.38l94.71-45.78v23.1Z"/>
        <path class="cls-2" d="M22.75,383.1c-6.72-3.78-12.6-9.24-16.17-14.91-4.62-7.14-6.72-16.59-6.72-26.04,0-11.76,2.94-21.42,11.34-29.82s20.58-13.02,33.81-13.02,26.88,4.83,36.33,14.07c7.35,7.35,11.97,17.01,11.97,29.61,0,14.07-6.09,23.1-11.55,28.35-11.76,11.34-28.14,12.39-37.38,12.39h-2.52v-63.42c-6.3.42-13.44,3.15-17.85,7.56-4.83,4.83-5.67,10.71-5.67,15.75,0,5.67,1.26,9.87,4.41,14.07,2.73,3.57,6.3,6.3,9.66,8.19l-9.66,17.22ZM58.66,362.73c4.83-.84,9.03-3.15,11.97-6.3,2.52-2.73,5.04-7.14,5.04-13.86,0-7.14-2.94-11.76-5.67-14.49-2.73-2.94-6.93-5.25-11.34-6.3v40.95Z"/>
        <path class="cls-2" d="M91,405.14v20.58h-7.98c2.73,2.31,5.67,5.67,7.35,8.61,2.31,3.99,2.94,7.98,2.94,12.6,0,5.04-.84,10.5-4.2,16.17l-18.69-8.4c2.94-4.62,3.15-8.4,3.15-10.5,0-4.41-.63-8.82-4.83-12.81-6.09-5.67-14.49-5.67-20.37-5.67H2.59v-20.58h88.41Z"/>
        <path class="cls-2" d="M142.67,534.71l-93.66,36.96,100.38,37.8-100.38,36.54,93.66,38.22v23.1L-6.44,644.75l99.33-36.54-99.33-36.96,149.1-59.64v23.1Z"/>
        <path class="cls-2" d="M46.69,804.77c-27.09,0-46.83-20.58-46.83-47.25s19.74-47.25,46.83-47.25,46.62,20.58,46.62,47.25-19.32,47.25-46.62,47.25ZM46.48,783.77c20.16,0,28.35-13.23,28.35-26.25s-8.19-26.25-28.35-26.25c-17.01,0-28.14,10.08-28.14,26.25s11.13,26.25,28.14,26.25Z"/>
        <path class="cls-2" d="M155.69,846.76H2.59v-20.58h153.09v20.58Z"/>
        <path class="cls-2" d="M72.1,895.48H2.59v-20.58h69.51v-8.82h18.9v8.82h30.66c13.65,0,22.26,3.57,27.72,8.61,3.99,3.78,8.61,10.29,8.61,21,0,4.41-.63,8.82-2.52,13.23h-20.37c2.52-4.2,3.15-6.93,3.15-9.87,0-2.52-.42-6.3-3.36-9.03-1.05-1.05-4.2-3.36-10.5-3.36h-33.39v22.26h-18.9v-22.26Z"/>
      </g>
    </g>
  </g>
</svg>