<?xml version="1.0" encoding="UTF-8"?><svg id="_レイヤー_2" xmlns="http://www.w3.org/2000/svg" viewBox="0 0 136.27 30.17"><defs><style>.cls-1{fill:#dc0000;}</style></defs><g id="_x5F_layout"><path class="cls-1" d="M.24,26.65c.53-.02,3.12-.31,3.7-.35v-5.33H.48v-2.82h3.45v-1.21h-1.91v-1.08c-.48.37-.75.57-1.19.9l-.84-3.37c2.22-1.45,3.28-2.95,4-4.25h3.04c.88,1.47,1.65,2.38,3.34,3.56v-3.06h10.19v10.41h-3.52c.07.55.15,1.17.48,2.07,1.17-.86,1.72-1.47,2.02-1.83l1.83,2.49c-.59.55-1.12,1.03-2.55,1.91,1.03,1.41,2,2.13,2.71,2.66l-2.07,2.77c-.81-.59-2.27-1.69-3.52-4.16v2.64c-1.94.57-4.71,1.01-6.75,1.3l-.2-1.43c-3.32.68-6.01,1.01-8.36,1.28l-.4-3.12ZM2.66,21.57c.57,1.92.7,2.86.77,3.79l-2.22.59c-.09-1.03-.29-2.42-.7-3.85l2.16-.53ZM7.24,14.13c-.73-.79-1.21-1.52-1.69-2.31-.37.66-.64,1.12-1.72,2.31h3.41ZM9.46,26.59c.15,0,.79-.09.92-.11v-13.38l-1.63,2.4c-.11-.09-.13-.11-.22-.18v1.63h-1.94v1.21h3.06v2.82h-3.06v5.02c1.96-.26,2.09-.31,2.73-.46l.13,1.06ZM9.59,21.88c-.07.48-.2,1.78-.66,3.3l-1.85-.37c.37-1.45.4-1.63.57-3.24l1.94.31ZM13.36,12.44v1.32h4.09v-1.32h-4.09ZM13.36,16.07v1.34h4.09v-1.34h-4.09ZM13.36,20.08v6.01c1.06-.2,2.16-.44,2.4-.51-.92-1.98-1.25-3.72-1.41-5.5h-.99Z"/><path class="cls-1" d="M23.4,21.4c.7-.37,2.53-1.32,4.55-3.48-.09-.51-.22-1.08-.46-1.83-1.23,1.01-2.13,1.5-2.79,1.87l-1.23-3.23c.68-.33,1.43-.68,2.62-1.56-.73-1.06-1.36-1.67-2-2.22l2.49-1.94c.48.4.99.84,1.83,1.87.68-.86.86-1.32,1.03-1.85l2.79,1.1c-.33.7-.88,1.89-2.27,3.52,1.01,2.62,1.32,5.96,1.32,8.49,0,2.27-.2,3.63-.31,4.31.88-.07,1.17-.11,1.41-.13v-15.38h4v-1.8h3.28v1.8h4.07v9.99h-.99l1.91,2.4c-.9.88-1.85,1.5-2.33,1.8,1.12,1.08,1.85,1.47,2.53,1.85l-2.05,3.08c-1.72-1.21-3.28-2.73-4.33-4.53l.18,2.82c-2.95.7-4.36.99-7.66,1.43l-.33-2.07c-.18.48-.77,2.27-2.75,2.27h-3.15l-.68-3.26h2.64c.42,0,1.03,0,1.28-1.23.24-1.32.31-2.46.31-3.96-1.63,1.78-3.19,2.77-3.74,3.12l-1.17-3.26ZM35.34,13.65v1.1h5.21v-1.1h-5.21ZM35.34,17.19v1.14h5.21v-1.14h-5.21ZM35.34,20.93v4.97c1.67-.26,2.55-.51,2.99-.62-1.08-1.98-1.41-3.61-1.56-4.36h-1.43ZM39.83,20.93c.09.53.18,1.01.73,1.96.44-.33,1.23-.97,2.11-1.96h-2.84Z"/><path class="cls-1" d="M56.62,25.51c2.9-.22,6.45-1.5,6.45-6.32,0-3.83-2.33-5.15-4.55-5.37-.07,1.36-.84,13.27-6.82,13.27-3.26,0-4.6-3.61-4.6-6.6,0-6.49,4.93-10.01,10.36-10.01,6.4,0,9.31,4.09,9.31,8.87,0,1.65-.35,5.06-3.08,7.37-1.56,1.32-3.76,1.96-5.92,2.18l-1.14-3.39ZM50.49,20.58c0,.75.22,2.73,1.36,2.73,1.23,0,2.71-2.75,3.3-9.29-2.77.68-4.66,3.3-4.66,6.56Z"/><path class="cls-1" d="M88.63,18.1c-.9-.4-1.69-.77-3.39-1.76v1.83h-11.31v-1.87c-1.06.62-1.87,1.08-3.5,1.8l-1.61-3.39c3.85-1.23,7.04-3.3,8.96-5.63h3.61c3.1,3.56,7.55,5.15,8.96,5.63l-1.72,3.39ZM88.1,19.61v9.99h-17.1v-9.99h17.1ZM84.65,22.65h-10.21v3.96h10.21v-3.96ZM83.42,15.15c-1.23-.88-2.31-1.74-3.87-3.45-.88,1.03-1.72,1.91-3.85,3.45h7.72Z"/><path class="cls-1" d="M99.69,27.97c-.22.04-.35.07-.66.07h-2.09l-.57-3.41h1.5c.33,0,.57,0,.75-.7.18-.79.22-2.86.24-3.96h-2.4v1.25c0,.51-.04,5.26-2.18,8.93l-2.86-2.66c1.52-2.46,1.76-5.04,1.76-6.53v-8.87h9.62c-.02-.48-.11-2.6-.13-3.04h3.37c0,.62,0,1.1.04,3.04h2.62c-.55-.62-1.21-1.3-2-1.89l2.51-1.36c.99.57,2.46,2.24,2.75,2.57l-1.17.68h1.76v3.17h-6.31c.11,1.8.31,3.48.64,5.26.95-2.05,1.3-3.72,1.5-4.58l3.17,1.12c-1.23,4.18-2.62,6.36-3.41,7.52.33.75.79,1.58,1.25,1.58.81,0,1.3-1.65,1.72-3.1l1.94,2.68c-1.19,3.94-2.4,4.31-3.5,4.31-1.61,0-2.75-1.23-3.72-2.77-1.8,1.67-3.48,2.49-4.29,2.88l-1.83-2.2ZM102.14,17c0,1.1,0,7.04-.62,9.26,1.41-.86,2.29-1.63,2.93-2.29-.86-2.75-1.41-5.83-1.52-8.71h-6.47v1.74h5.68Z"/><path class="cls-1" d="M126.65,23.02h-11.73v-2.53h11.73v2.53ZM116.29,12.62c-.22-.53-.66-1.65-1.34-2.77l2.6-.81c.79,1.17,1.28,2.4,1.45,2.82l-2.71.77ZM126.06,12.66v7.17h-10.5v-7.17h6.95c.66-1.25.97-2.07,1.45-3.54l3.01.62c-.35.75-.79,1.65-1.54,2.93h.62ZM125.55,29.69h-9.62v-6.03h9.62v6.03ZM119.7,14.62h-1.39v.95h1.39v-.95ZM119.7,16.88h-1.39v1.03h1.39v-1.03ZM122.6,25.66h-3.7v1.74h3.7v-1.74ZM119.88,12.29c-.09-.55-.2-1.14-.84-2.95l2.64-.37c.35.92.59,1.91.77,2.9l-2.57.42ZM123.31,14.62h-1.45v.95h1.45v-.95ZM123.31,16.88h-1.45v1.03h1.45v-1.03ZM134.2,30.13c-.95-1.19-2.31-3.01-3.23-7.5-.64,3.87-1.36,5.54-2.62,7.42l-2.53-2.79c2.62-2.66,3.12-6.98,3.37-9.31h-2.62v-3.21h2.77v-5.61h3.01v5.61h3.41v3.21h-3.21c.35,2.4.99,6.14,3.72,8.96l-2.07,3.23ZM133.58,14.38c-.18-1.03-.53-2.44-1.14-3.94l2.29-.99c.73,1.63,1.03,2.77,1.25,3.87l-2.4,1.06Z"/><path class="cls-1" d="M85.17,1.8c.14-.01.27-.02.4-.03.13,0,.26-.02.38-.04.11-.02.27-.04.49-.07s.46-.06.73-.1c.27-.04.56-.08.86-.13.3-.04.58-.09.86-.14.28-.05.52-.09.74-.12.22-.04.38-.07.5-.09.13-.03.28-.06.44-.09.16-.04.3-.07.41-.1l.23,1.26c-.1,0-.23.02-.4.04-.16.02-.31.04-.44.06-.14.02-.33.05-.57.09-.23.04-.49.08-.78.12-.28.04-.57.09-.86.14-.29.05-.57.09-.84.14-.26.04-.49.08-.69.11-.2.03-.34.06-.43.07-.13.03-.26.05-.38.08s-.25.06-.4.1l-.26-1.32ZM85.2,4.17c.11,0,.26-.02.43-.04s.33-.04.46-.06c.14-.02.34-.05.58-.09.24-.04.51-.08.81-.13.3-.05.61-.1.92-.15s.63-.1.92-.15c.3-.05.57-.1.82-.14.25-.04.45-.08.6-.1.15-.03.31-.07.47-.1.16-.04.29-.07.41-.1l.26,1.27c-.12,0-.26.02-.43.05s-.33.05-.48.08c-.17.03-.37.06-.63.1s-.53.09-.84.14c-.3.05-.61.1-.93.15s-.62.1-.92.15-.56.1-.79.14-.41.07-.55.1c-.18.03-.35.06-.49.09-.15.03-.27.05-.36.08l-.27-1.28ZM87.32.86c-.03-.12-.05-.23-.08-.34s-.06-.2-.09-.3l1.37-.22c.01.08.02.18.04.31s.03.24.05.34c.02.09.04.24.08.44s.08.45.13.74.11.59.18.92.13.66.19,1,.13.66.18.96.11.58.16.82c.05.24.08.43.11.57.03.12.06.25.1.39.04.14.07.29.11.42l-1.39.24c-.02-.16-.04-.3-.05-.45-.01-.14-.03-.27-.06-.39-.02-.12-.05-.3-.09-.53s-.09-.49-.14-.79-.12-.61-.18-.94c-.06-.33-.13-.66-.19-1-.06-.33-.12-.65-.18-.94-.06-.29-.11-.55-.15-.77-.04-.22-.07-.39-.1-.5Z"/><path class="cls-1" d="M107.42.69c-.06.1-.13.23-.2.4-.07.17-.13.3-.18.4-.1.26-.22.55-.37.86s-.31.63-.49.95c-.18.32-.38.63-.61.92-.24.32-.51.64-.82.97-.3.33-.65.65-1.05.97-.4.32-.86.63-1.39.93l-1.09-.98c.72-.35,1.34-.74,1.86-1.18.52-.44,1-.94,1.42-1.5.31-.41.57-.82.75-1.22.19-.4.35-.8.49-1.21.04-.12.08-.25.12-.41.04-.16.07-.29.09-.4l1.45.5ZM102.93,1.37c.2.12.42.26.64.41s.46.3.69.46.46.31.67.47c.22.16.41.3.59.44.44.34.87.69,1.29,1.06.42.37.79.73,1.12,1.08l-1,1.12c-.36-.42-.72-.81-1.09-1.16-.37-.35-.77-.71-1.2-1.06-.14-.12-.31-.25-.49-.4-.18-.14-.38-.29-.59-.45s-.44-.32-.68-.48-.5-.33-.77-.5l.83-.99Z"/><path class="cls-1" d="M123.88,2.81c-.03.06-.07.12-.1.2-.03.07-.06.14-.08.18-.13.38-.29.76-.47,1.13-.18.37-.42.72-.72,1.05-.39.44-.84.81-1.34,1.1-.5.29-1,.51-1.52.66l-.97-1.1c.62-.13,1.17-.32,1.63-.57.46-.25.84-.51,1.12-.8.2-.2.35-.39.47-.59s.21-.39.28-.57h-3.64c-.1,0-.25,0-.45,0-.2,0-.39.02-.57.03v-1.25c.19.02.37.03.55.04s.33.02.47.02h3.81c.15,0,.29,0,.4-.03s.2-.04.27-.07l.86.54ZM118.28.36c.11.02.25.03.43.04.17,0,.33.01.47.01h3.03c.13,0,.29,0,.48-.01.19,0,.35-.02.46-.04v1.25c-.11-.01-.26-.02-.45-.02-.19,0-.36,0-.51,0h-3.02c-.13,0-.29,0-.46,0-.17,0-.32.01-.44.02V.36Z"/></g></svg>