<?xml version="1.0" encoding="UTF-8"?>
<svg id="_レイヤー_2" data-name="レイヤー_2" xmlns="http://www.w3.org/2000/svg" viewBox="0 0 80.48 18.86">
  <defs>
    <style>
      .cls-1 {
        fill: #dc0000;
      }
    </style>
  </defs>
  <g id="_x5F_layout">
    <g>
      <path class="cls-1" d="M17.71,5.81c-.31,3.23-1.36,7.66-4.64,9.99-2.6,1.85-6.56,2.71-9.79,2.95l-1.06-3.3c6.01-.31,10.14-1.65,11.31-6.4H0v-3.23h17.71ZM16.33.57v3.21H1.61V.57h14.72Z"/>
      <path class="cls-1" d="M26.7,7.28c-2.22-1.47-4.14-2.4-6.86-3.34l1.56-2.99c1.21.35,3.94,1.17,7.15,3.15l-1.85,3.19ZM20.25,14.76c7.39-.64,12.65-3.19,15.18-12.87l3.08,2.13c-2.95,9.66-8.34,13.38-17.47,14.52l-.79-3.79Z"/>
      <path class="cls-1" d="M59.68,3.67v3.32h-3.34v1.85c0,6.23-3.78,9.04-10.63,10.01l-1.3-3.26c7.9-.79,8.36-4.42,8.36-6.78v-1.83h-5.52v5.1h-3.54v-5.1h-3.19v-3.32h3.19V.04h3.54v3.63h5.52V0h3.56v3.67h3.34Z"/>
      <path class="cls-1" d="M80.48,7.55v3.63h-18.83v-3.63h18.83Z"/>
    </g>
  </g>
</svg>