<?xml version="1.0" encoding="UTF-8"?>
<svg id="_レイヤー_2" data-name="レイヤー_2" xmlns="http://www.w3.org/2000/svg" viewBox="0 0 61.71 21.01">
  <defs>
    <style>
      .cls-1 {
        fill: #dc0000;
      }
    </style>
  </defs>
  <g id="_x5F_layout">
    <g>
      <path class="cls-1" d="M6.4,12.72c-2.55-1.56-5.17-2.33-6.4-2.71l1.23-2.88c1.8.44,3.87.99,6.53,2.49l-1.36,3.1ZM1.32,16.59c7.52-.71,11.6-2.66,14.28-11.97l3.06,2.2c-3.26,9.79-8.43,12.5-16.59,13.55l-.75-3.79ZM8.36,7.44c-2.77-1.5-5.43-2.22-6.62-2.53l1.28-2.84c2.57.53,4.22,1.1,6.75,2.29l-1.41,3.08Z"/>
      <path class="cls-1" d="M21.26,17.76c9.33-1.3,11.62-6.91,12.54-11.4h-6.16c-.97,1.54-2.53,3.54-5.21,5.21l-2.25-2.6c2.99-1.78,4.4-4.14,5.17-5.85h8.96l2.86,3.85c-1.3,5.63-3.85,12.14-14.48,14.04l-1.43-3.26ZM36.1.86c1.06,1.28,1.65,2.35,2.49,4l-1.56,1.04c-.77-1.74-1.32-2.66-2.38-4.07l1.45-.97ZM39,0c1.03,1.28,1.58,2.29,2.44,4.05l-1.56,1.01c-.77-1.74-1.28-2.64-2.35-4.12l1.47-.95Z"/>
      <path class="cls-1" d="M47.83,9.48c.73.51,1.98,1.39,3.46,2.62,3.39-2.18,4.71-4.4,5.26-5.33h-13.77v-3.37h18.94c-1.1,5.24-4.14,8.19-7.94,10.94,1.74,1.76,1.94,1.94,3.23,3.46l-3.1,2.55c-3.1-4.22-6.56-6.89-8.78-8.51l2.71-2.36Z"/>
    </g>
  </g>
</svg>