<?xml version="1.0" encoding="UTF-8"?>
<svg id="_レイヤー_2" xmlns="http://www.w3.org/2000/svg" xmlns:xlink="http://www.w3.org/1999/xlink" version="1.1" viewBox="0 0 200 920">
  <!-- Generator: Adobe Illustrator 29.5.0, SVG Export Plug-In . SVG Version: 2.1.0 Build 137)  -->
  <defs>
    <style>
      .st0 {
        fill: none;
      }

      .st1 {
        fill: #232323;
      }

      .st2 {
        clip-path: url(#clippath);
      }
    </style>
    <clipPath id="clippath">
      <rect class="st0" width="200" height="920"/>
    </clipPath>
  </defs>
  <g id="bg">
    <g class="st2">
      <g>
        <path class="st1" d="M149.3,39.9H18v45.1H-4.1V16.4h153.4v23.5Z"/>
        <path class="st1" d="M92.7,173.7v22.5H-4.1v-22.5H6c-11.5-9.9-13.1-22.1-13.1-29,0-29.9,24.8-46.9,51.5-46.9s50.8,21.6,50.8,47.1-1.8,19.6-13.8,28.8h11.3,0ZM44,120.8c-16.8,0-30.8,10.6-30.8,26.9s10.3,27.4,30.6,27.4,31.3-13.1,31.3-27.4-13.8-26.9-31.1-26.9Z"/>
        <path class="st1" d="M92.7,224.6v22.5h-9c10.8,9.7,11.5,20.7,11.5,26.2,0,17.9-9,25.5-13.1,28.5-5.3,3.7-12,6-26.9,6H-4.1v-22.5h53.8c24.6,0,25.3-9.2,25.3-17.7s-1.4-20.5-32.7-20.5H-4.1v-22.5h96.8Z"/>
        <path class="st1" d="M92.7,407.2v22.5H3.7c-22.8,0-39.1-2.5-50.4-15.9-5.1-6.2-10.4-16.3-10.4-32.2s2.8-22.5,12-31.7c7.1-7.1,18.4-12.6,30.1-14.3v21.9c-5.3.9-11.5,3.7-15.2,7.1-3,2.8-6.7,8.3-6.7,17.5s3.7,15,6.4,17.7c7.1,7.4,17.2,7.4,24.4,7.4H6.7c-13.1-10.4-13.8-23-13.8-29.4,0-12.4,3.5-22.8,13.1-32,9.2-8.7,22.3-14.5,38.4-14.5s29.9,6.7,37.5,14.3c9.9,9.7,13.3,21.2,13.3,32.9s-3.2,20.5-13.1,28.8h10.6ZM68.6,364.1c-5.3-5.8-14.3-9.9-24.6-9.9s-19.1,3.7-24.4,9.7c-3.7,4.1-6.4,10.4-6.4,17.2s2.1,13.3,7.8,18.9c7.1,6.7,15.4,8.5,22.8,8.5,10.8,0,18.9-3.5,24.4-9.2,5.5-5.5,6.9-11.7,6.9-18.2s-1.6-12-6.4-17h0Z"/>
        <path class="st1" d="M92.7,529.1v22.5H-4.1v-22.5H6c-11.5-9.9-13.1-22.1-13.1-29,0-29.9,24.8-46.9,51.5-46.9s50.8,21.6,50.8,47.1-1.8,19.6-13.8,28.7h11.3,0ZM44,476.2c-16.8,0-30.8,10.6-30.8,26.9s10.3,27.4,30.6,27.4,31.3-13.1,31.3-27.4-13.8-26.9-31.1-26.9Z"/>
        <path class="st1" d="M163.6,602.7H-4.1v-22.5h167.7v22.5Z"/>
      </g>
    </g>
  </g>
</svg>