<?xml version="1.0" encoding="UTF-8"?><svg id="_レイヤー_2" xmlns="http://www.w3.org/2000/svg" viewBox="0 0 80.52 20.71"><defs><style>.cls-1{fill:#dc0000;}</style></defs><g id="_layout"><path class="cls-1" d="M17.71,7.55c-.31,3.23-1.36,7.66-4.64,9.99-2.6,1.85-6.56,2.71-9.79,2.95l-1.06-3.3c6.01-.31,10.14-1.65,11.31-6.4H0v-3.23h17.71ZM16.33,2.31v3.21H1.61v-3.21h14.72Z"/><path class="cls-1" d="M26.7,9.02c-2.22-1.47-4.14-2.4-6.86-3.34l1.56-2.99c1.21.35,3.94,1.17,7.15,3.15l-1.85,3.19ZM20.25,16.5c7.39-.64,12.65-3.19,15.18-12.87l3.08,2.13c-2.95,9.66-8.34,13.38-17.47,14.52l-.79-3.79Z"/><path class="cls-1" d="M39.93,17.84c5.35-2.97,6.12-7.11,6.51-9.22h-5.52v-3.3h5.9c.09-1.12.11-1.8.11-3.65l3.63.04c-.04,1.43-.09,2.11-.2,3.61h7.64v3.52c0,2.4-.15,7.31-.95,9.29-.9,2.27-3.06,2.27-4.29,2.27-1.56,0-2.6-.15-3.17-.24l-.2-3.5c.7.11,1.76.26,2.86.26,1.36,0,1.61-.31,1.83-1.25.18-.84.42-3.78.42-5.88v-1.17h-4.51c-.51,2.66-1.52,8.05-7.66,11.9l-2.4-2.68ZM55.44.04c.77,1.36,1.17,2.44,1.69,4.18l-1.89.7c-.4-1.61-.79-2.71-1.56-4.18l1.76-.7ZM58.85,0c.75,1.36,1.08,2.38,1.61,4.25l-1.91.66c-.37-1.67-.75-2.75-1.47-4.22l1.78-.68Z"/><path class="cls-1" d="M66.64,7.48c0,7.44-1.56,10.96-3.92,13.22l-2.66-2.71c2.35-2.57,3.08-5.26,3.08-10.21V2.55h3.5v4.93ZM72.6,15.84c1.41-.66,3.7-1.76,4.58-7.17l3.34,1.43c-.92,3.89-2.99,9.81-11.42,10.14V2h3.5v13.84Z"/></g></svg>