<?xml version="1.0" encoding="UTF-8"?>
<svg id="_レイヤー_2" xmlns="http://www.w3.org/2000/svg" version="1.1" viewBox="0 0 17.8 17.8">
  <!-- Generator: Adobe Illustrator 29.5.0, SVG Export Plug-In . SVG Version: 2.1.0 Build 137)  -->
  <g id="_layout">
    <g id="Icon_feather-external-link">
      <g id="_パス_3">
        <path d="M12.6,17.8H2.7c-1.5,0-2.7-1.2-2.7-2.7V5.2c0-1.5,1.2-2.7,2.7-2.7h5.4c.5,0,.9.4.9.9s-.4.9-.9.9H2.7c-.5,0-.9.4-.9.9v9.9c0,.5.4.9.9.9h9.9c.5,0,.9-.4.9-.9v-5.4c0-.5.4-.9.9-.9s.9.4.9.9v5.4c0,1.5-1.2,2.7-2.7,2.7h0Z"/>
      </g>
      <g id="_パス_4">
        <path d="M16.9,7.2c-.5,0-.9-.4-.9-.9V1.8h-4.5c-.5,0-.9-.4-.9-.9S11,0,11.5,0h5.4C17.4,0,17.8.4,17.8.9v5.4c0,.5-.4.9-.9.9h0Z"/>
      </g>
      <g id="_パス_5">
        <path d="M7,11.7c-.2,0-.5-.1-.6-.3-.4-.4-.4-.9,0-1.3L16.3.2c.4-.4.9-.4,1.3,0,.4.4.4.9,0,1.3L7.7,11.4c-.2.2-.5.3-.7.3h0Z"/>
      </g>
    </g>
  </g>
</svg>