<?xml version="1.0" encoding="UTF-8"?>
<svg id="_レイヤー_2" data-name="レイヤー_2" xmlns="http://www.w3.org/2000/svg" viewBox="0 0 171.37 15.32">
  <defs>
    <style>
      .cls-1 {
        fill: #dc0000;
      }
    </style>
  </defs>
  <g id="_x5F_layout">
    <g>
      <path class="cls-1" d="M12.45,3.51v.74c0,8.32-5.17,10.4-10.16,10.87l-.86-2.38c2.18-.18,8.31-.64,8.31-6.85H2.48v3.28H0V3.51h4.85V1.31h2.58v2.19h5.03ZM10.77.02c.53.94.8,1.7,1.18,2.98l-1.36.48c-.3-1.18-.58-1.92-1.1-2.96L10.77.02ZM13.21,0c.59,1.1.82,1.87,1.17,3.11l-1.38.51c-.27-1.26-.54-2.05-1.07-3.14l1.28-.48Z"/>
      <path class="cls-1" d="M22.15,15.09h-2.37v-5.12c-1.38.78-2.8,1.44-4.27,1.92l-1.04-2.07c3.44-1.01,7-3.27,9.35-6.27l1.95,1.47c-1.34,1.57-2.56,2.56-3.62,3.36v6.71Z"/>
      <path class="cls-1" d="M28.33,6.15v-2.42h7.01V1.31h2.53v2.42h3.46v2.42h-3.44l.02,6.5c0,2.27-1.95,2.27-2.71,2.27-.48,0-.88-.02-2.1-.05l-.37-2.5c.85.06,1.55.11,1.9.11.42,0,.74-.06.74-.54l-.02-3.57c-1.04,1.38-2.96,3.33-6.23,5.07l-1.52-1.98c2.66-1.23,4.96-3.07,6.87-5.31h-6.15Z"/>
      <path class="cls-1" d="M56.2,5.49c-.22,2.35-.99,5.57-3.38,7.27-1.89,1.34-4.77,1.97-7.12,2.14l-.77-2.4c4.37-.22,7.38-1.2,8.23-4.66h-9.84v-2.35h12.89ZM55.19,1.68v2.34h-10.71V1.68h10.71Z"/>
      <path class="cls-1" d="M68.25,8.08c0,1.31-1.06,2.4-2.4,2.4s-2.4-1.07-2.4-2.4,1.1-2.4,2.4-2.4,2.4,1.06,2.4,2.4Z"/>
      <path class="cls-1" d="M83.97,3.51v.74c0,8.32-5.17,10.4-10.16,10.87l-.86-2.38c2.18-.18,8.31-.64,8.31-6.85h-7.25v3.28h-2.48V3.51h4.85V1.31h2.58v2.19h5.03ZM82.29.02c.53.94.8,1.7,1.18,2.98l-1.36.48c-.3-1.18-.58-1.92-1.1-2.96l1.28-.5ZM84.73,0c.59,1.1.82,1.87,1.17,3.11l-1.38.51c-.27-1.26-.54-2.05-1.07-3.14l1.28-.48Z"/>
      <path class="cls-1" d="M86.66,13.54c3.49-1.58,3.92-3.51,3.89-6.21h2.35c-.02.53-.05.91-.11,1.46.5-.27,1.68-1.1,2.24-2.4h-8.42v-2.18h11.22c-.08,1.14-.43,4.42-3.84,6.32l-1.26-1.34c-.51,3.63-2.53,4.98-4.66,6.13l-1.41-1.78Z"/>
      <path class="cls-1" d="M103.46,5.44c0,5.41-1.14,7.97-2.85,9.62l-1.94-1.97c1.71-1.87,2.24-3.83,2.24-7.43V1.86h2.54v3.58ZM107.8,11.53c1.02-.48,2.69-1.28,3.33-5.22l2.43,1.04c-.67,2.83-2.18,7.14-8.31,7.38V1.46h2.54v10.07Z"/>
      <path class="cls-1" d="M125.35,1.92c-.61,3.33-1.81,5.33-2.75,6.69,2.08,1.57,3.22,2.5,5.06,4.32l-2.15,2.1c-.9-.99-2.38-2.69-4.48-4.51-1.01,1.06-3.14,3.15-6.08,4.42l-1.44-2.13c2.1-.88,3.94-2.11,5.51-3.75,1.47-1.54,2.32-3.02,2.96-4.72h-7.52V1.92h10.9Z"/>
      <path class="cls-1" d="M139.67,10.84c-1.55-1.04-3.41-2.21-6.07-3.23v7.28h-2.75V1.23h2.75v3.7c3.89,1.23,6.32,2.61,7.43,3.25l-1.36,2.66Z"/>
      <path class="cls-1" d="M155.52,2.19v11.97h-12.39V2.19h12.39ZM152.93,4.59h-7.2v7.19h7.2v-7.19Z"/>
      <path class="cls-1" d="M157.53,11.76h1.57c1.09-3.3,1.75-5.27,3.04-10.55l2.75.48c-1.09,4.32-2.3,7.68-3.28,10.04,2.11-.05,3.01-.1,5.73-.29-.64-1.3-1.07-2.08-2.08-3.62l2.21-1.02c1.74,2.29,2.79,4.21,3.91,7.12l-2.55,1.1c-.24-.69-.34-.93-.51-1.39-3.46.35-5.65.54-10.48.75l-.3-2.62Z"/>
    </g>
  </g>
</svg>