<?xml version="1.0" encoding="UTF-8"?>
<svg id="_レイヤー_2" data-name="レイヤー_2" xmlns="http://www.w3.org/2000/svg" viewBox="0 0 164.57 15.03">
  <defs>
    <style>
      .cls-1 {
        fill: #dc0000;
      }
    </style>
  </defs>
  <g id="_x5F_layout">
    <g>
      <path class="cls-1" d="M4.66,9.04c-1.86-1.14-3.76-1.7-4.66-1.97l.9-2.1c1.31.32,2.82.72,4.75,1.81l-.99,2.26ZM.96,11.86c5.47-.51,8.44-1.94,10.39-8.71l2.23,1.6c-2.37,7.12-6.13,9.09-12.07,9.86l-.54-2.75ZM6.08,5.2c-2.02-1.09-3.95-1.62-4.82-1.84l.93-2.06c1.87.38,3.07.8,4.91,1.67l-1.02,2.24Z"/>
      <path class="cls-1" d="M22.01,14.76l-2.38.27-.94-6.64-2.93.43-.3-2.26,2.91-.38-.37-2.54,2.35-.22.35,2.46,6.11-.8c.02,4.11-1.97,5.86-3.1,6.69l-1.76-1.57c1.41-.96,1.81-1.65,2.16-2.61l-3.09.46.99,6.71Z"/>
      <path class="cls-1" d="M33.81,6.35c-1.62-1.07-3.01-1.74-4.99-2.43l1.14-2.18c.88.26,2.87.85,5.2,2.29l-1.34,2.32ZM29.12,11.8c5.38-.46,9.2-2.32,11.04-9.36l2.24,1.55c-2.14,7.03-6.07,9.73-12.71,10.56l-.58-2.75Z"/>
      <path class="cls-1" d="M44.38,12.61c4.58-.7,4.91-2.38,5.12-4.75h-5.63v-2.37h13.16v2.37h-4.9c-.26,4.03-1.87,6.11-6.72,7.04l-1.02-2.29ZM55.79,1.55v2.35h-10.69V1.55h10.69Z"/>
      <path class="cls-1" d="M66.27,14.89h-2.37v-5.12c-1.38.78-2.8,1.44-4.27,1.92l-1.04-2.07c3.44-1.01,7-3.27,9.35-6.27l1.95,1.47c-1.34,1.57-2.56,2.56-3.62,3.36v6.71Z"/>
      <path class="cls-1" d="M82.88,7.88c0,1.31-1.06,2.4-2.4,2.4s-2.4-1.07-2.4-2.4,1.1-2.4,2.4-2.4,2.4,1.06,2.4,2.4Z"/>
      <path class="cls-1" d="M89.66,11.56h1.57c1.09-3.3,1.75-5.27,3.04-10.55l2.75.48c-1.09,4.32-2.3,7.68-3.28,10.04,2.11-.05,3.01-.1,5.73-.29-.64-1.3-1.07-2.08-2.08-3.62l2.21-1.02c1.74,2.29,2.79,4.21,3.91,7.12l-2.55,1.1c-.24-.69-.34-.93-.51-1.39-3.46.35-5.65.54-10.48.75l-.3-2.62Z"/>
      <path class="cls-1" d="M104.82,12.77c3.89-2.16,4.45-5.17,4.74-6.71h-4.02v-2.4h4.29c.06-.82.08-1.31.08-2.66l2.64.03c-.03,1.04-.06,1.54-.14,2.62h5.55v2.56c0,1.75-.11,5.31-.69,6.75-.66,1.65-2.22,1.65-3.12,1.65-1.14,0-1.89-.11-2.31-.18l-.14-2.54c.51.08,1.28.19,2.08.19.99,0,1.17-.22,1.33-.91.13-.61.3-2.75.3-4.27v-.85h-3.28c-.37,1.94-1.1,5.86-5.57,8.66l-1.74-1.95Z"/>
      <path class="cls-1" d="M124.22,5.23c0,5.41-1.14,7.97-2.85,9.62l-1.94-1.97c1.71-1.87,2.24-3.83,2.24-7.43V1.65h2.54v3.58ZM128.56,11.32c1.02-.48,2.69-1.28,3.33-5.22l2.43,1.04c-.67,2.83-2.18,7.14-8.31,7.38V1.25h2.54v10.07Z"/>
      <path class="cls-1" d="M140.47,9.04c-1.73-1.06-3.63-1.63-4.66-1.95l.9-2.1c.85.19,2.67.62,4.75,1.79l-.99,2.26ZM136.75,11.88c5.14-.46,8.24-1.78,10.18-8.05l2.21,1.6c-2.29,6.23-5.7,8.42-11.83,9.2l-.56-2.75ZM141.89,5.19c-1.81-.96-3.52-1.46-4.82-1.83l.91-2.06c2.31.43,4.18,1.3,4.93,1.65l-1.02,2.24ZM146.34.03c.67.99.98,1.71,1.5,3.07l-1.31.64c-.43-1.31-.75-2.02-1.42-3.14l1.23-.58ZM148.89,0c.64,1.02.96,1.81,1.42,3.12l-1.33.61c-.4-1.36-.67-1.97-1.34-3.17l1.25-.56Z"/>
      <path class="cls-1" d="M164.57,6.55v2.64h-13.7v-2.64h13.7Z"/>
    </g>
  </g>
</svg>