<?xml version="1.0" encoding="UTF-8"?>
<svg id="_レイヤー_2" data-name="レイヤー_2" xmlns="http://www.w3.org/2000/svg" viewBox="0 0 98.94 19.1">
  <defs>
    <style>
      .cls-1 {
        fill: #dc0000;
      }
    </style>
  </defs>
  <g id="_x5F_layout">
    <g>
      <path class="cls-1" d="M0,16.17c5.35-2.97,6.12-7.11,6.51-9.22H.99v-3.3h5.9c.09-1.12.11-1.8.11-3.65l3.63.04c-.04,1.43-.09,2.11-.2,3.61h7.64v3.52c0,2.4-.15,7.31-.95,9.29-.9,2.27-3.06,2.27-4.29,2.27-1.56,0-2.6-.15-3.17-.24l-.2-3.5c.7.11,1.76.26,2.86.26,1.36,0,1.61-.31,1.83-1.25.18-.84.42-3.78.42-5.88v-1.17h-4.51c-.51,2.66-1.52,8.05-7.66,11.9l-2.4-2.68Z"/>
      <path class="cls-1" d="M26.62,5.81c0,7.44-1.56,10.96-3.92,13.22l-2.66-2.71c2.35-2.57,3.08-5.26,3.08-10.21V.88h3.5v4.93ZM32.59,14.17c1.41-.66,3.7-1.76,4.58-7.17l3.34,1.43c-.92,3.89-2.99,9.81-11.42,10.14V.33h3.5v13.84Z"/>
      <path class="cls-1" d="M43.25,15.95c6.29-.97,6.76-3.28,7.04-6.53h-7.75v-3.26h18.09v3.26h-6.73c-.35,5.54-2.57,8.41-9.24,9.68l-1.41-3.15ZM58.93.75v3.23h-14.7V.75h14.7Z"/>
      <path class="cls-1" d="M65.52,11.4c-.18-.99-.62-3.12-1.74-5.54l2.77-.75c1.01,1.89,1.56,4.05,1.94,5.59l-2.97.7ZM65.25,16.46c7.52-1.69,9.7-4.53,11.11-12.12l3.41.81c-1.12,4.91-2.77,11.62-12.28,13.95l-2.24-2.64ZM70.42,10.32c-.33-1.74-.7-3.48-1.54-5.5l2.77-.55c.9,1.87,1.41,4.05,1.63,5.41l-2.86.64Z"/>
      <path class="cls-1" d="M97.07,13.22c-2.13-1.43-4.69-3.04-8.34-4.44v10.01h-3.78V.02h3.78v5.08c5.35,1.69,8.69,3.59,10.21,4.47l-1.87,3.65Z"/>
    </g>
  </g>
</svg>