<?xml version="1.0" encoding="UTF-8"?>
<svg id="_レイヤー_2" data-name="レイヤー_2" xmlns="http://www.w3.org/2000/svg" viewBox="0 0 104.38 14.09">
  <defs>
    <style>
      .cls-1 {
        fill: #dc0000;
      }
    </style>
  </defs>
  <g id="_x5F_layout">
    <g>
      <path class="cls-1" d="M3.76,2.59c1.62.8,3.14,1.75,4.23,2.5.69-1.23,1.39-2.54,2.06-4.77l2.69.82c-.51,1.34-1.3,3.33-2.67,5.49,1.63,1.3,2.74,2.42,3.22,2.91l-2.08,2.21c-.43-.51-1.39-1.6-2.8-2.87-.83.94-2.91,3.33-6.77,5.03l-1.63-2.03c2.85-1.25,4.51-2.35,6.47-4.59-2.13-1.58-3.55-2.34-4.34-2.75l1.63-1.94Z"/>
      <path class="cls-1" d="M23.78,13.86h-2.72v-6.39c-2.4,1.39-4.19,1.99-5.12,2.31l-1.28-2.26c3.31-1.07,7.68-3.04,11.4-7.52l2.26,1.58c-1.09,1.2-2.26,2.42-4.53,4.11v8.16Z"/>
      <path class="cls-1" d="M33.96,8.24c-1.86-1.14-3.76-1.7-4.66-1.97l.9-2.1c1.31.32,2.82.72,4.75,1.81l-.99,2.26ZM30.26,11.06c5.47-.51,8.44-1.94,10.39-8.71l2.23,1.6c-2.37,7.12-6.13,9.09-12.07,9.86l-.54-2.75ZM35.38,4.4c-2.02-1.09-3.95-1.62-4.82-1.84l.93-2.06c1.87.38,3.07.8,4.91,1.67l-1.02,2.24Z"/>
      <path class="cls-1" d="M44.22,11.99c4.42-1.65,4.91-4.59,4.88-7.71h2.62c-.02.66-.03,1.07-.11,1.84,1.62-.85,2.45-1.62,3.02-3.01h-10.42V.66h13.64c-.54,4.11-2.16,5.92-4.72,7.43l-1.57-1.6c-.27,2.19-.93,5.35-5.68,7.55l-1.66-2.05Z"/>
      <path class="cls-1" d="M69.44,7.08c0,1.31-1.06,2.4-2.4,2.4s-2.4-1.07-2.4-2.4,1.1-2.4,2.4-2.4,2.4,1.06,2.4,2.4Z"/>
      <path class="cls-1" d="M77.04,11.73c3.04-.5,8.31-2.14,9.35-8.55h-4.59c-.91,1.41-2.1,2.83-3.97,4l-1.63-1.87c1.97-1.2,3.14-2.74,3.94-4.48h9.2c-.62,9.68-6.67,12.37-11.25,13.25l-1.04-2.35Z"/>
      <path class="cls-1" d="M91.38,5.14v-2.42h7.01V.3h2.53v2.42h3.46v2.42h-3.44l.02,6.5c0,2.27-1.95,2.27-2.71,2.27-.48,0-.88-.02-2.1-.05l-.37-2.5c.85.06,1.55.11,1.9.11.42,0,.74-.06.74-.54l-.02-3.57c-1.04,1.38-2.96,3.33-6.23,5.07l-1.52-1.98c2.66-1.23,4.96-3.07,6.87-5.31h-6.15Z"/>
    </g>
  </g>
</svg>