<?xml version="1.0" encoding="UTF-8"?>
<svg id="_レイヤー_2" data-name="レイヤー_2" xmlns="http://www.w3.org/2000/svg" viewBox="0 0 162.58 15.11">
  <defs>
    <style>
      .cls-1 {
        fill: #dc0000;
      }
    </style>
  </defs>
  <g id="_x5F_layout">
    <g>
      <path class="cls-1" d="M0,12.98c3.89-2.16,4.45-5.17,4.74-6.71H.72v-2.4h4.29c.06-.82.08-1.31.08-2.66l2.64.03c-.03,1.04-.06,1.54-.14,2.62h5.55v2.56c0,1.75-.11,5.31-.69,6.75-.66,1.65-2.22,1.65-3.12,1.65-1.14,0-1.89-.11-2.31-.18l-.14-2.54c.51.08,1.28.19,2.08.19.99,0,1.17-.22,1.33-.91.13-.61.3-2.75.3-4.27v-.85h-3.28c-.37,1.94-1.1,5.86-5.57,8.66l-1.74-1.95Z"/>
      <path class="cls-1" d="M15.85,12.82c4.58-.7,4.91-2.38,5.12-4.75h-5.63v-2.37h13.16v2.37h-4.9c-.26,4.03-1.87,6.11-6.72,7.04l-1.02-2.29ZM27.26,1.76v2.35h-10.69V1.76h10.69Z"/>
      <path class="cls-1" d="M37.74,15.09h-2.37v-5.12c-1.38.78-2.8,1.44-4.27,1.92l-1.04-2.07c3.44-1.01,7-3.27,9.35-6.27l1.95,1.47c-1.34,1.57-2.56,2.56-3.62,3.36v6.71Z"/>
      <path class="cls-1" d="M43.41,13c4.42-1.65,4.91-4.59,4.88-7.71h2.62c-.02.66-.03,1.07-.11,1.84,1.62-.85,2.45-1.62,3.02-3.01h-10.42V1.67h13.64c-.54,4.11-2.16,5.92-4.72,7.43l-1.57-1.6c-.27,2.19-.93,5.35-5.68,7.55l-1.66-2.05Z"/>
      <path class="cls-1" d="M68.63,8.08c0,1.31-1.06,2.4-2.4,2.4s-2.4-1.07-2.4-2.4,1.1-2.4,2.4-2.4,2.4,1.06,2.4,2.4Z"/>
      <path class="cls-1" d="M75.13,12.98c3.89-2.16,4.45-5.17,4.74-6.71h-4.02v-2.4h4.29c.06-.82.08-1.31.08-2.66l2.64.03c-.03,1.04-.06,1.54-.14,2.62h5.55v2.56c0,1.75-.11,5.31-.69,6.75-.66,1.65-2.22,1.65-3.12,1.65-1.14,0-1.89-.11-2.3-.18l-.14-2.54c.51.08,1.28.19,2.08.19.99,0,1.17-.22,1.33-.91.13-.61.3-2.75.3-4.27v-.85h-3.28c-.37,1.94-1.1,5.86-5.57,8.66l-1.74-1.95Z"/>
      <path class="cls-1" d="M95.52,6.56c-1.62-1.07-3.01-1.74-4.99-2.43l1.14-2.18c.88.26,2.87.85,5.2,2.29l-1.34,2.32ZM90.83,12c5.38-.46,9.2-2.32,11.04-9.36l2.24,1.55c-2.14,7.03-6.07,9.73-12.71,10.56l-.58-2.75Z"/>
      <path class="cls-1" d="M110,2.26c-.58,5.36-2.05,9.59-3.79,12.49l-2.59-1.31c2.69-4.23,3.49-8.92,3.76-11.52l2.62.35ZM115.18,14.42c-.99-5.3-2.32-8.83-3.63-11.62l2.38-1.02c2.45,4.71,3.54,9.12,4.02,11.92l-2.77.72ZM115.79.8c.64,1.06.99,1.9,1.41,3.12l-1.22.61c-.4-1.3-.67-2-1.34-3.17l1.15-.56ZM117.76,0c.64,1.01.96,1.78,1.44,3.12l-1.22.61c-.38-1.28-.72-2.05-1.36-3.15l1.14-.58Z"/>
      <path class="cls-1" d="M125.38,1.22h2.56v1.84h4.07v2.16c-1.47,1.62-2.46,2.56-4.07,3.81v5.87h-2.56v-4.23c-1.84,1.01-3.44,1.55-4.64,1.95l-1.23-2.29c5.39-1.39,7.89-3.67,9.24-4.95l-8.07.05v-2.38h4.71v-1.84ZM132.72,12.85c-1.34-1.12-2.48-1.86-4.26-2.74l1.42-1.9c1.71.7,3.12,1.55,4.21,2.37l-1.38,2.27Z"/>
      <path class="cls-1" d="M138.95,10.23h-2.69V1.68h2.69v8.55ZM146.44,8.07c0,2.4-1.01,4.5-2.93,5.47-1.41.72-3.27,1.17-5.52,1.38l-.96-2.45c4.4-.32,6.71-1.06,6.71-4.19V1.44h2.71v6.63Z"/>
      <path class="cls-1" d="M160.27,1.92c-.61,3.33-1.81,5.33-2.75,6.69,2.08,1.57,3.22,2.5,5.06,4.32l-2.15,2.1c-.9-.99-2.38-2.69-4.48-4.51-1.01,1.06-3.14,3.15-6.08,4.42l-1.44-2.13c2.1-.88,3.94-2.11,5.51-3.75,1.47-1.54,2.32-3.02,2.96-4.72h-7.52V1.92h10.9Z"/>
    </g>
  </g>
</svg>