<?xml version="1.0" encoding="UTF-8"?><svg id="_レイヤー_2" xmlns="http://www.w3.org/2000/svg" xmlns:xlink="http://www.w3.org/1999/xlink" viewBox="0 0 200 920"><defs><style>.cls-1{fill:none;}.cls-2{fill:#232323;}.cls-3{clip-path:url(#clippath);}</style><clipPath id="clippath"><rect class="cls-1" width="200" height="920"/></clipPath></defs><g id="bg"><g class="cls-3"><path class="cls-2" d="M127.25,58.95H-4.08v-23.46H127.25V.3h22.08v93.84h-22.08v-35.19Z"/><path class="cls-2" d="M67.22,143.82c3.68-2.3,8.28-6.67,8.28-13.8,0-3.22-1.15-5.52-2.53-6.9-1.15-1.15-2.99-2.07-5.06-2.07-2.53,0-4.14,1.15-5.52,3.22-.92,1.38-1.38,2.76-3.91,7.59l-5.75,11.5c-2.53,5.06-5.06,9.89-8.97,13.57-5.29,5.29-11.27,7.13-17.94,7.13-8.74,0-16.33-3.22-22.08-8.51-8.28-7.59-10.81-17.02-10.81-27.14,0-6.21.92-14.03,6.21-20.93,4.14-5.52,10.81-10.12,17.71-12.42l8.74,18.4c-3.22,1.15-7.36,3.22-9.2,5.29-1.38,1.38-3.68,4.6-3.68,9.89,0,3.45,1.15,7.13,3.22,9.2,1.84,1.84,4.83,3.22,7.59,3.22s5.06-.92,7.36-2.99c2.76-2.76,4.37-5.98,5.98-9.66l3.91-8.28c2.07-4.37,4.6-9.66,8.28-13.34,4.83-5.06,10.12-6.9,16.33-6.9,7.82,0,15.41,2.99,20.7,8.05,4.6,4.37,9.2,11.73,9.2,23.69,0,6.9-1.38,12.42-5.06,17.94-2.07,3.22-5.75,7.59-11.96,11.04l-11.04-16.79Z"/><path class="cls-2" d="M92.75,206.84h-55.43c-5.75,0-12.42.23-17.48,4.14-3.91,2.99-6.67,8.28-6.67,14.72s2.76,11.73,6.67,14.72c5.06,3.91,11.73,4.14,17.48,4.14h55.43v22.54h-56.12c-12.42,0-22.77-1.38-31.74-10.35-8.74-8.74-11.96-20.7-11.96-31.51,0-9.89,2.99-21.85,11.96-30.59,8.97-8.97,19.32-10.35,31.74-10.35h56.12v22.54Z"/><path class="cls-2" d="M81.48,318.15c11.96,9.2,13.8,21.62,13.8,28.75,0,25.53-19.32,47.15-50.83,47.15-26.68,0-51.52-17.02-51.52-46.92,0-6.9,1.61-19.09,13.11-28.98H-4.08v-22.54h167.67v22.54h-82.11ZM43.76,316.77c-20.24,0-30.59,13.11-30.59,27.37,0,16.33,14.03,26.91,30.82,26.91s31.05-10.58,31.05-26.91c0-14.26-10.12-27.37-31.28-27.37Z"/><path class="cls-2" d="M92.75,488.35v22.54H-4.08v-22.54H6.04c-11.5-9.89-13.11-22.08-13.11-28.98,0-29.9,24.84-46.92,51.52-46.92,31.51,0,50.83,21.62,50.83,47.15,0,7.13-1.84,19.55-13.8,28.75h11.27ZM43.99,435.45c-16.79,0-30.82,10.58-30.82,26.91,0,14.26,10.35,27.37,30.59,27.37s31.28-13.11,31.28-27.37c0-16.33-13.8-26.91-31.05-26.91Z"/><path class="cls-2" d="M163.59,561.95H60.32l32.43,31.51v29.9l-40.25-41.63-56.58,44.62v-28.52l41.4-31.74-4.14-4.14H-4.08v-22.54h167.67v22.54Z"/><path class="cls-2" d="M92.75,663.61H-4.08v-22.54h96.83v22.54ZM147.26,652.34c0,8.28-6.21,14.49-14.49,14.49s-14.49-6.21-14.49-14.49,6.21-14.49,14.49-14.49,14.49,6.21,14.49,14.49Z"/><path class="cls-2" d="M88.15,773.31l61.18,59.34v30.82l-69.46-69.23L-4.08,863.93v-31.28l68.08-54.74-4.6-4.6H-4.08v-23.46h153.41v23.46h-61.18Z"/><path class="cls-2" d="M92.75,895.91h-55.43c-5.75,0-12.42.23-17.48,4.14-3.91,2.99-6.67,8.28-6.67,14.72s2.76,11.73,6.67,14.72c5.06,3.91,11.73,4.14,17.48,4.14h55.43v22.54h-56.12c-12.42,0-22.77-1.38-31.74-10.35-8.74-8.74-11.96-20.7-11.96-31.51,0-9.89,2.99-21.85,11.96-30.59,8.97-8.97,19.32-10.35,31.74-10.35h56.12v22.54Z"/></g></g></svg>