<?xml version="1.0" encoding="UTF-8"?><svg id="_レイヤー_2" xmlns="http://www.w3.org/2000/svg" viewBox="0 0 65.82 21.19"><defs><style>.cls-1{fill:#dc0000;}</style></defs><g id="_layout"><path class="cls-1" d="M2.9,13.47c-.15,4.44-.48,5.61-.75,6.58l-2.16-1.47c.29-.92.68-2.35.75-5.46l2.16.35ZM.29,9.57c.42.02.55.02,1.25,0,.29-.4.75-.99,1.03-1.43-.51-.57-1.54-1.74-2.53-2.49l1.3-2.84c.26.2.33.26.46.35.51-.97.92-1.89,1.3-2.93l2.75.57c-1.01,2.2-2.16,3.89-2.27,4.07.18.2.29.31.68.75.81-1.3,1.47-2.35,2.02-3.39l2.46.9c-1.43,2.49-4.05,5.9-4.33,6.27.64-.04.95-.07,1.87-.11-.2-.57-.29-.84-.48-1.32l1.96-.73c.44,1.01.73,1.78,1.19,3.59v-4.29h5.39v4.27h.97v-4.27h5.5v4.93h-4.51v.84h4.93v2.86h-3.32c.35.37,1.78,1.83,3.7,2.82l-1.54,2.86c-.62-.46-2.33-1.67-3.76-3.79v4.11h-2.99v-3.83c-1.19,1.43-2.77,2.6-3.94,3.41l-1.72-2.79c.11-.04.13-.04.2-.09l-1.21.22c0-1.63-.02-2.82-.24-4.69l1.89-.29c.22,1.41.33,2.93.4,4.36,1.14-.59,2.09-1.3,3.32-2.31h-3.39v-2.86h4.69v-.84h-4.2l.11.44-2.13.75c-.09-.53-.11-.68-.15-.92-.13.02-.81.09-.99.11v9.33h-2.51v-9.02c-.99.11-2.55.29-2.95.33l-.2-2.93ZM19.98.88v4.93h-10.12V.88h10.12ZM10.96,8.56v.97h1.32v-.97h-1.32ZM12.81,2.9v1.06h4.05v-1.06h-4.05ZM17.32,8.56v.97h1.32v-.97h-1.32Z"/><path class="cls-1" d="M39.37,17.18h4.22v3.26h-20.9v-3.26h2.53V1.61c4.16.04,10.91-.29,16.06-1.61l1.47,3.37c-2.18.44-5.59,1.08-14.19,1.32v2.53h14.06v3.17h-3.26v6.8ZM36.07,10.39h-7.5v6.8h7.5v-6.8Z"/><path class="cls-1" d="M51.49,10.19l-1.25,2.13c-.31-.46-.37-.59-.44-.73v9.59h-3.04v-7c-.64,1.78-.99,2.4-1.56,3.21l-.92-4.58c1.21-1.8,1.83-3.61,2.24-5.88h-1.91v-3.01h2.16V.29h3.04v3.65h1.63v3.01h-1.63v.42c.48.77.9,1.41,1.58,2.07v-1.78h3.28c.15-.31.2-.4.42-.86h-2.68v-2h3.43c.11-.37.13-.51.22-.84h-4.31V1.34h4.66c.02-.44.02-.64.02-1.06h3.08c-.04.55-.04.64-.11,1.06h5.48v2.62h-5.92c-.09.4-.13.53-.2.84h5.43v2h-2.42c.22.46.29.62.42.86h3.21v2.53h-1.5c.62.62,1.06.99,1.91,1.58l-1.19,3.5c-.53-.37-.73-.55-1.1-.88v6.47h-10.39v-6.65c-.53.46-.99.77-1.47,1.12l-1.54-2.86c1.17-.73,1.8-1.25,2.77-2.29h-1.41ZM56.55,10.19c-.31.48-.46.73-.77,1.17h5.19c-.22-.35-.4-.62-.7-1.17h-3.72ZM60.49,13.73h-4.31v1.17h4.31v-1.17ZM60.49,17.05h-4.31v1.28h4.31v-1.28ZM59.21,7.77c-.11-.31-.15-.46-.31-.97h-.92c-.04.11-.26.64-.4.97h1.63Z"/></g></svg>