<?xml version="1.0" encoding="UTF-8"?>
<svg id="_レイヤー_2" data-name="レイヤー 2" xmlns="http://www.w3.org/2000/svg" viewBox="0 0 186 60">
  <defs>
    <style>
      .cls-1 {
        fill: #dc0000;
      }
    </style>
  </defs>
  <g id="_layout">
    <g>
      <path class="cls-1" d="M184,2v56H2V2h182M186,0H0v60h186V0h0Z"/>
      <g>
        <path class="cls-1" d="M80.31,19.45v9.79h.55c.84,0,1.53-.16,2.07-.47.53-.32.99-.85,1.36-1.6.37-.75.61-1.76.72-3.04h.49v11.97h-.49c-.18-2.26-.66-3.75-1.46-4.47-.79-.72-1.69-1.08-2.69-1.08h-.55v7.29c0,1.22.05,1.98.16,2.29.11.3.32.57.63.8.31.23.74.34,1.27.34h.63v.65h-9.97v-.65h.63c.55,0,1-.12,1.34-.37.24-.16.43-.45.56-.84.1-.28.15-1.02.15-2.21v-15.68c0-1.22-.05-1.98-.15-2.29-.1-.3-.31-.57-.63-.8s-.74-.34-1.27-.34h-.63v-.65h16.09v6.84h-.58c-.13-1.61-.47-2.79-1.01-3.57s-1.32-1.32-2.34-1.63c-.56-.18-1.6-.26-3.12-.26h-1.77Z"/>
        <path class="cls-1" d="M95.91,39.49c-1.6,1.77-3.04,2.65-4.32,2.65-.75,0-1.37-.31-1.87-.92-.5-.62-.75-1.39-.75-2.31,0-1.25.43-2.38,1.29-3.38s2.74-2.33,5.64-4v-1.65c0-1.24-.05-2.02-.16-2.35-.11-.32-.31-.6-.61-.84-.3-.24-.64-.36-1.01-.36-.61,0-1.11.17-1.5.51-.24.21-.37.46-.37.74,0,.25.13.55.39.91.36.5.53.99.53,1.46,0,.57-.17,1.06-.51,1.47-.34.4-.79.61-1.34.61-.59,0-1.08-.22-1.48-.67s-.6-.97-.6-1.56c0-.84.27-1.65.8-2.42.53-.77,1.28-1.36,2.24-1.77.96-.41,1.95-.62,2.98-.62,1.25,0,2.23.33,2.96.99.73.66,1.2,1.38,1.41,2.15.13.49.2,1.62.2,3.39v6.38c0,.75.02,1.22.07,1.42s.12.34.21.43.2.14.32.14c.24,0,.49-.22.75-.65l.42.42c-.47.87-.95,1.5-1.46,1.89s-1.07.59-1.71.59c-.75,0-1.34-.22-1.76-.66s-.68-1.1-.77-2ZM95.91,38.21v-5.5c-1.13.83-1.98,1.72-2.53,2.67-.37.63-.55,1.27-.55,1.92,0,.54.15,1.01.46,1.42.23.32.56.47.98.47.47,0,1.01-.33,1.63-.98Z"/>
        <path class="cls-1" d="M107.82,18.08v15.68l3.05-3.74c.63-.76,1.02-1.31,1.17-1.65.15-.34.23-.67.23-.98s-.1-.58-.31-.79-.61-.36-1.21-.46v-.65h5.89v.65c-.56.04-1.05.2-1.48.5s-1.25,1.2-2.48,2.7l-1.43,1.76,3.09,5.66c1.25,2.3,1.99,3.59,2.22,3.87.32.4.72.62,1.21.67v.63h-6.79v-.63c.3,0,.52-.07.65-.21s.2-.29.2-.46c0-.27-.2-.77-.59-1.49l-2.6-4.76-.84,1.04v2.95c0,1.25.09,2.04.28,2.35s.57.51,1.15.59v.63h-6.79v-.63c.55-.07.95-.29,1.18-.67.16-.26.24-1.01.24-2.27v-16.7c0-1.24-.09-2.02-.27-2.32-.18-.3-.56-.5-1.15-.6v-.65h5.36Z"/>
        <path class="cls-1" d="M129.06,33.11h-7.21c.08,2.18.55,3.9,1.39,5.17.65.97,1.42,1.46,2.33,1.46.56,0,1.07-.2,1.53-.59.46-.39.95-1.1,1.48-2.12l.48.39c-.71,1.82-1.5,3.1-2.36,3.86-.86.76-1.86,1.13-3,1.13-1.95,0-3.43-.94-4.43-2.81-.81-1.51-1.21-3.39-1.21-5.62,0-2.74.59-4.92,1.78-6.55s2.58-2.43,4.17-2.43c1.33,0,2.49.68,3.47,2.05.98,1.37,1.51,3.39,1.58,6.07ZM125.6,31.93c0-1.89-.08-3.18-.25-3.88s-.42-1.24-.77-1.6c-.2-.21-.46-.32-.79-.32-.49,0-.89.3-1.2.9-.55,1.04-.83,2.47-.83,4.29v.62h3.83Z"/>
      </g>
      <g>
        <path class="cls-1" d="M60.96,24.53c-.64-.61-1.54-.97-2.53-.97h-9.94l2.44-2.64-1.43-1.43-4.73,5.08,5.41,4.99,1.45-1.45-2.8-2.53h9.6c.87,0,1.54.67,1.54,1.54l-.03,5.23h2.06v-5.35c0-1-.39-1.86-1.04-2.47Z"/>
        <path class="cls-1" d="M54.06,32.63l2.64,2.63h-10.13c-.85,0-1.54-.69-1.54-1.54v-5.25h-.16s-1.87.01-1.87.01v5.24c0,1.96,1.6,3.56,3.56,3.56h9.31l-1.82,1.78,1.44,1.43,4.48-4.83-4.48-4.47-1.43,1.43Z"/>
      </g>
    </g>
  </g>
</svg>