<?xml version="1.0" encoding="UTF-8"?>
<svg id="_レイヤー_2" data-name="レイヤー 2" xmlns="http://www.w3.org/2000/svg" viewBox="0 0 64 64">
  <g id="_layout">
    <g>
      <path d="M44.83,47.8l-.71.53c-3.14,2.32-6.38,3.95-9.65,4.85-2.4.66-4.86,1-7.31,1C14.09,54.18,2.86,44.84.46,31.98L.02,28.27c.01-.39,0-.79,0-1.19-.01-.42-.02-.84,0-1.26C.67,14.54,8.2,4.7,18.77,1.33c2.77-.88,5.6-1.33,8.43-1.33,7.81,0,15.27,3.43,20.47,9.41,5.21,6,7.46,13.69,6.33,21.64-.63,4.47-2.6,9.01-5.52,12.79l-.16.2-.19,1.1,15.87,15.78-3.08,3.08-16.09-16.2ZM27.1,4.32C14.52,4.32,4.3,14.54,4.3,27.1s10.23,22.78,22.8,22.78,22.8-10.22,22.8-22.78S39.67,4.32,27.1,4.32Z"/>
      <polygon points="29.51 24.74 29.51 14.12 24.66 14.12 24.66 24.74 14.14 24.74 14.14 29.47 24.66 29.47 24.66 40.09 29.51 40.09 29.51 29.47 40.02 29.47 40.02 24.74 29.51 24.74"/>
    </g>
  </g>
</svg>