<?xml version="1.0" encoding="UTF-8"?>
<svg id="_レイヤー_2" data-name="レイヤー_2" xmlns="http://www.w3.org/2000/svg" xmlns:xlink="http://www.w3.org/1999/xlink" viewBox="0 0 200 920">
  <defs>
    <style>
      .cls-1 {
        fill: none;
      }

      .cls-2 {
        fill: #232323;
      }

      .cls-3 {
        clip-path: url(#clippath);
      }
    </style>
    <clipPath id="clippath">
      <rect class="cls-1" width="200" height="920"/>
    </clipPath>
  </defs>
  <g id="bg">
    <g class="cls-3">
      <g>
        <path class="cls-2" d="M32.95,106.56V41.01L-4.08,24.22V-1.08l162.38,76.36L-4.08,147.96v-25.3l37.03-16.1ZM55.03,97.13l51.98-22.77-51.98-23.69v46.46Z"/>
        <path class="cls-2" d="M11.1,187.06l81.65-41.4v27.14l-56.58,27.6,56.58,28.06v25.3L-56.75,176.71v-25.3L11.1,187.06Z"/>
        <path class="cls-2" d="M92.75,335.41v22.54H-4.08v-22.54H6.04c-11.5-9.89-13.11-22.08-13.11-28.98,0-29.9,24.84-46.92,51.52-46.92,31.51,0,50.83,21.62,50.83,47.15,0,7.13-1.84,19.55-13.8,28.75h11.27ZM43.99,282.51c-16.79,0-30.82,10.58-30.82,26.91,0,14.26,10.35,27.37,30.59,27.37s31.28-13.11,31.28-27.37c0-16.33-13.8-26.91-31.05-26.91Z"/>
        <path class="cls-2" d="M163.59,409.01H60.32l32.43,31.51v29.9l-40.25-41.63-56.58,44.62v-28.52l41.4-31.74-4.14-4.14H-4.08v-22.54h167.67v22.54Z"/>
        <path class="cls-2" d="M92.75,558.96v22.54H-4.08v-22.54H6.04c-11.5-9.89-13.11-22.08-13.11-28.98,0-29.9,24.84-46.92,51.52-46.92,31.51,0,50.83,21.62,50.83,47.15,0,7.13-1.84,19.55-13.8,28.75h11.27ZM43.99,506.07c-16.79,0-30.82,10.58-30.82,26.91,0,14.26,10.35,27.37,30.59,27.37s31.28-13.11,31.28-27.37c0-16.33-13.8-26.91-31.05-26.91Z"/>
        <path class="cls-2" d="M115.29,733.99c3.45-1.38,6.67-3.45,9.66-6.9,3.91-4.83,5.52-9.89,5.52-16.56,0-14.26-8.51-21.62-18.4-21.62-4.6,0-12.65,1.61-18.63,16.56l-6.21,15.41c-11.5,28.29-27.6,36.11-45.08,36.11-29.21,0-49.22-20.7-49.22-49.45,0-17.71,6.67-28.29,15.41-36.11,9.2-8.28,19.32-11.96,29.9-12.88l5.06,23.23c-7.59,0-14.72,2.76-19.55,6.44-5.52,4.37-9.2,10.81-9.2,20.01,0,14.26,10.35,25.3,25.76,25.3s22.08-11.96,26.22-22.08l6.21-14.72c5.29-12.65,15.87-31.28,38.87-31.28,20.7,0,40.48,16.1,40.48,44.85,0,16.56-6.21,25.99-10.35,30.82-3.68,4.14-8.97,8.51-15.41,11.73l-11.04-18.86Z"/>
        <path class="cls-2" d="M92.75,853.13v22.54H-4.08v-22.54H6.04c-11.5-9.89-13.11-22.08-13.11-28.98,0-29.9,24.84-46.92,51.52-46.92,31.51,0,50.83,21.62,50.83,47.15,0,7.13-1.84,19.55-13.8,28.75h11.27ZM43.99,800.23c-16.79,0-30.82,10.58-30.82,26.91,0,14.26,10.35,27.37,30.59,27.37s31.28-13.11,31.28-27.37c0-16.33-13.8-26.91-31.05-26.91Z"/>
        <path class="cls-2" d="M92.75,926.73H-56.75v-22.54H92.75v22.54ZM147.26,915.46c0,8.28-6.21,14.49-14.49,14.49s-14.49-6.21-14.49-14.49,6.21-14.49,14.49-14.49,14.49,6.21,14.49,14.49Z"/>
      </g>
    </g>
  </g>
</svg>