<?xml version="1.0" encoding="UTF-8"?>
<svg id="_レイヤー_2" data-name="レイヤー_2" xmlns="http://www.w3.org/2000/svg" viewBox="0 0 163.05 20.4">
  <defs>
    <style>
      .cls-1 {
        fill: #dc0000;
      }
    </style>
  </defs>
  <g id="_x5F_layout">
    <g>
      <path class="cls-1" d="M0,17.58c6.07-2.27,6.75-6.31,6.71-10.61h3.61c-.02.9-.04,1.47-.15,2.53,2.22-1.17,3.37-2.22,4.16-4.14H0v-3.37h18.75c-.75,5.66-2.97,8.14-6.49,10.21l-2.16-2.2c-.37,3.01-1.28,7.35-7.81,10.39l-2.29-2.82Z"/>
      <path class="cls-1" d="M31.07,19.93l-3.7.4-1.56-11.05-4.84.73-.53-3.45,4.88-.66-.59-4.2,3.67-.55.59,4.25,10.32-1.39c-.13,6.78-3.01,9.09-5.41,10.76l-2.6-2.31c1.65-.84,3.32-2.46,3.81-4.53l-5.63.84,1.58,11.18Z"/>
      <path class="cls-1" d="M40.92,17.56c5.35-2.97,6.12-7.11,6.51-9.22h-5.52v-3.3h5.9c.09-1.12.11-1.8.11-3.65l3.63.04c-.04,1.43-.09,2.11-.2,3.61h7.64v3.52c0,2.4-.15,7.31-.95,9.29-.9,2.27-3.06,2.27-4.29,2.27-1.56,0-2.6-.15-3.17-.24l-.2-3.5c.7.11,1.76.26,2.86.26,1.36,0,1.61-.31,1.83-1.25.18-.84.42-3.78.42-5.88v-1.17h-4.51c-.51,2.66-1.52,8.05-7.66,11.9l-2.4-2.68Z"/>
      <path class="cls-1" d="M75.96,10.83c0,1.8-1.45,3.3-3.3,3.3s-3.3-1.47-3.3-3.3,1.52-3.3,3.3-3.3,3.3,1.45,3.3,3.3Z"/>
      <path class="cls-1" d="M104.26,5.13v3.32h-3.34v1.85c0,6.23-3.78,9.04-10.63,10.01l-1.3-3.26c7.9-.79,8.36-4.42,8.36-6.78v-1.83h-5.52v5.1h-3.54v-5.1h-3.19v-3.32h3.19V1.5h3.54v3.63h5.52V1.45h3.56v3.67h3.34Z"/>
      <path class="cls-1" d="M112.74,12.43c-2.38-1.45-5-2.24-6.4-2.68l1.23-2.88c1.17.26,3.67.86,6.54,2.46l-1.36,3.1ZM107.63,16.33c7.06-.64,11.33-2.44,13.99-11.07l3.04,2.2c-3.15,8.56-7.83,11.57-16.26,12.65l-.77-3.78ZM114.7,7.13c-2.49-1.32-4.84-2-6.62-2.51l1.25-2.84c3.17.59,5.74,1.78,6.78,2.27l-1.41,3.08ZM120.81.04c.92,1.36,1.34,2.35,2.07,4.22l-1.8.88c-.59-1.8-1.03-2.77-1.96-4.31l1.69-.79ZM124.31,0c.88,1.41,1.32,2.49,1.96,4.29l-1.83.84c-.55-1.87-.92-2.71-1.85-4.36l1.71-.77Z"/>
      <path class="cls-1" d="M128.71,13.99v-2.88h9.33v-2.49h-9.68v-2.97h13v14.02h-13.2v-3.04h9.88v-2.64h-9.33Z"/>
      <path class="cls-1" d="M163.05,4.36v1.03c0,11.71-7.42,14.35-13.99,14.92l-1.17-3.28c3.34-.29,11.35-1.01,11.42-9.42h-9.99v4.51h-3.41v-7.77h6.69V1.34h3.52v3.01h6.93Z"/>
    </g>
  </g>
</svg>