<?xml version="1.0" encoding="UTF-8"?><svg id="_レイヤー_2" xmlns="http://www.w3.org/2000/svg" xmlns:xlink="http://www.w3.org/1999/xlink" viewBox="0 0 200 920"><defs><style>.cls-1{fill:none;}.cls-2{fill:#232323;}.cls-3{clip-path:url(#clippath);}</style><clipPath id="clippath"><rect class="cls-1" width="200" height="920"/></clipPath></defs><g id="bg"><g class="cls-3"><path class="cls-2" d="M127.25,58.95H-4.08v-23.46H127.25V.3h22.08v93.84h-22.08v-35.19Z"/><path class="cls-2" d="M92.75,106.1v22.54h-8.74c2.99,2.53,6.21,6.21,8.05,9.43,2.53,4.37,3.22,8.74,3.22,13.8,0,5.52-.92,11.5-4.6,17.71l-20.47-9.2c3.22-5.06,3.45-9.2,3.45-11.5,0-4.83-.69-9.66-5.29-14.03-6.67-6.21-15.87-6.21-22.31-6.21H-4.08v-22.54h96.83Z"/><path class="cls-2" d="M92.75,202.7h-55.43c-5.75,0-12.42.23-17.48,4.14-3.91,2.99-6.67,8.28-6.67,14.72s2.76,11.73,6.67,14.72c5.06,3.91,11.73,4.14,17.48,4.14h55.43v22.54h-56.12c-12.42,0-22.77-1.38-31.74-10.35-8.74-8.74-11.96-20.7-11.96-31.51,0-9.89,2.99-21.85,11.96-30.59,8.97-8.97,19.32-10.35,31.74-10.35h56.12v22.54Z"/><path class="cls-2" d="M18,378.18c-7.36-4.14-13.8-10.12-17.71-16.33-5.06-7.82-7.36-18.17-7.36-28.52,0-12.88,3.22-23.46,12.42-32.66,9.2-9.2,22.54-14.26,37.03-14.26s29.44,5.29,39.79,15.41c8.05,8.05,13.11,18.63,13.11,32.43,0,15.41-6.67,25.3-12.65,31.05-12.88,12.42-30.82,13.57-40.94,13.57h-2.76v-69.46c-6.9.46-14.72,3.45-19.55,8.28-5.29,5.29-6.21,11.73-6.21,17.25,0,6.21,1.38,10.81,4.83,15.41,2.99,3.91,6.9,6.9,10.58,8.97l-10.58,18.86ZM57.33,355.88c5.29-.92,9.89-3.45,13.11-6.9,2.76-2.99,5.52-7.82,5.52-15.18,0-7.82-3.22-12.88-6.21-15.87-2.99-3.22-7.59-5.75-12.42-6.9v44.85Z"/><path class="cls-2" d="M149.33,487.43c0,18.63-2.3,30.59-8.97,40.48-11.27,16.79-29.44,18.17-36.11,18.17-22.08,0-38.18-13.57-42.78-34.04l-65.55,47.84v-28.29l62.79-43.93v-4.14H-4.08v-23.46h153.41v27.37ZM78.95,483.52v7.36c0,6.44.69,32.66,25.07,32.66,21.62,0,23.69-20.47,23.69-31.97v-8.05h-48.76Z"/><path class="cls-2" d="M92.75,601.28H-4.08v-22.54h96.83v22.54ZM147.26,590.01c0,8.28-6.21,14.49-14.49,14.49s-14.49-6.21-14.49-14.49,6.21-14.49,14.49-14.49,14.49,6.21,14.49,14.49Z"/><path class="cls-2" d="M163.59,700.64v22.54H-4.08v-22.54H6.04c-11.5-9.89-13.11-22.08-13.11-28.98,0-29.9,24.84-46.92,51.52-46.92,31.51,0,50.83,21.62,50.83,47.15,0,7.13-1.84,19.55-13.8,28.75h82.11ZM43.99,647.74c-16.79,0-30.82,10.58-30.82,26.91,0,14.26,10.35,27.37,30.59,27.37s31.28-13.11,31.28-27.37c0-16.33-13.8-26.91-31.05-26.91Z"/><path class="cls-2" d="M18,838.41c-7.36-4.14-13.8-10.12-17.71-16.33-5.06-7.82-7.36-18.17-7.36-28.52,0-12.88,3.22-23.46,12.42-32.66,9.2-9.2,22.54-14.26,37.03-14.26s29.44,5.29,39.79,15.41c8.05,8.05,13.11,18.63,13.11,32.43,0,15.41-6.67,25.3-12.65,31.05-12.88,12.42-30.82,13.57-40.94,13.57h-2.76v-69.46c-6.9.46-14.72,3.45-19.55,8.28-5.29,5.29-6.21,11.73-6.21,17.25,0,6.21,1.38,10.81,4.83,15.41,2.99,3.91,6.9,6.9,10.58,8.97l-10.58,18.86ZM57.33,816.1c5.29-.92,9.89-3.45,13.11-6.9,2.76-2.99,5.52-7.82,5.52-15.18,0-7.82-3.22-12.88-6.21-15.87-2.99-3.22-7.59-5.75-12.42-6.9v44.85Z"/><path class="cls-2" d="M92.75,862.56v22.54h-8.74c2.99,2.53,6.21,6.21,8.05,9.43,2.53,4.37,3.22,8.74,3.22,13.8,0,5.52-.92,11.5-4.6,17.71l-20.47-9.2c3.22-5.06,3.45-9.2,3.45-11.5,0-4.83-.69-9.66-5.29-14.03-6.67-6.21-15.87-6.21-22.31-6.21H-4.08v-22.54h96.83Z"/></g></g></svg>