<?xml version="1.0" encoding="UTF-8"?><svg id="_レイヤー_2" xmlns="http://www.w3.org/2000/svg" viewBox="0 0 99.69 21.8"><defs><style>.cls-1{fill:#dc0000;}</style></defs><g id="_layout"><path class="cls-1" d="M18.99,21.8c-2.2-.42-4.95-1.25-6.89-2.42l2.09-1.78h-7.57l1.8,1.74c-1.83,1.19-4.55,2.05-6.65,2.46l-1.78-2.93c2.53-.33,3.72-.55,5.39-1.28H0v-2.88h20.71v2.88h-5.3c1.63.68,3.54,1.1,5.3,1.28l-1.72,2.93ZM20.59,4.53h-8.58v.86h6.84v8.6H1.87V5.39h6.8v-.86H.11V1.74h8.56V.68h3.34v1.06h8.58v2.79ZM15.58,7.15H5.15v.79h10.43v-.79ZM15.58,9.29H5.15v.81h10.43v-.81ZM15.58,11.4H5.15v.81h10.43v-.81Z"/><path class="cls-1" d="M39.76,7.55c-.31,3.23-1.36,7.66-4.64,9.99-2.6,1.85-6.56,2.71-9.79,2.95l-1.06-3.3c6.01-.31,10.14-1.65,11.31-6.4h-13.53v-3.23h17.71ZM38.37,2.31v3.21h-14.72v-3.21h14.72Z"/><path class="cls-1" d="M54.39,20.44h-3.74v-8.78c-3.3,1.92-5.77,2.73-7.04,3.17l-1.76-3.1c4.55-1.47,10.56-4.18,15.67-10.34l3.1,2.18c-1.5,1.65-3.1,3.32-6.23,5.65v11.22Z"/><path class="cls-1" d="M61.4,17.67c4.8-.9,7.46-3.26,8.54-4.22-2.55-1.96-4.03-2.75-5.21-3.34-.86.79-1.45,1.28-2.35,1.85l-2.31-2.66c2.9-1.74,4.51-3.89,5.59-6.38h8.78l3.01,3.78c-.75,3.08-2.99,11.42-14.21,14.15l-1.83-3.17ZM67.98,6.09c-.62.95-.88,1.28-1.25,1.76,2.27.99,3.98,2.02,5.3,3.04.7-1.12,1.32-2.33,1.98-4.8h-6.03ZM76.23.92c1.1,1.21,1.76,2.27,2.66,3.87l-1.5,1.12c-.84-1.65-1.34-2.51-2.57-3.96l1.41-1.03ZM79,0c1.1,1.23,1.63,2.13,2.64,3.92l-1.52,1.1c-.81-1.67-1.39-2.57-2.53-3.98l1.41-1.03Z"/><path class="cls-1" d="M99.69,9.29v3.63h-18.83v-3.63h18.83Z"/></g></svg>