<?xml version="1.0" encoding="UTF-8"?>
<svg id="_レイヤー_2" data-name="レイヤー_2" xmlns="http://www.w3.org/2000/svg" viewBox="0 0 60.41 20">
  <defs>
    <style>
      .cls-1 {
        fill: #dc0000;
      }
    </style>
  </defs>
  <g id="_x5F_layout">
    <g>
      <path class="cls-1" d="M8.32,10.41c0,2.35-1.76,4.15-4.16,4.15S0,12.76,0,10.41s1.76-4.15,4.16-4.15,4.16,1.8,4.16,4.15ZM7.1,10.41c0-1.77-1.22-3.02-2.94-3.02s-2.94,1.25-2.94,3.02,1.22,3.02,2.94,3.02,2.94-1.25,2.94-3.02Z"/>
      <path class="cls-1" d="M11.5,10.43v3.97h-1.18v-3.97h-.5v-1.08h.5v-1.75c0-.78.2-1.27.49-1.58.22-.23.59-.49,1.2-.49.25,0,.5.04.76.14v1.16c-.24-.14-.4-.18-.56-.18-.14,0-.36.02-.52.19-.06.06-.19.24-.19.6v1.91h1.27v1.08h-1.27Z"/>
      <path class="cls-1" d="M15.49,10.43v3.97h-1.18v-3.97h-.41v-1.08h.41v-1.68c0-.48.01-.95.31-1.38.26-.37.78-.78,1.75-.78,1.16,0,1.57.5,1.75.78.3.48.31.9.31,1.38v.35h-1.18v-.22c0-.22.01-.52-.14-.78-.18-.3-.46-.38-.74-.38-.4,0-.62.17-.74.38-.06.1-.14.3-.14.78v1.55h1.27v1.08h-1.27ZM18.44,9.35v5.05h-1.18v-5.05h1.18Z"/>
      <path class="cls-1" d="M24.38,10.9c-.54-.53-1.07-.62-1.43-.62-.55,0-.9.23-1.12.44-.22.22-.43.6-.43,1.16s.23.98.46,1.21c.26.25.64.41,1.07.41.48,0,1.04-.19,1.45-.65v1.31c-.29.18-.76.4-1.54.4-.84,0-1.44-.24-1.92-.74-.36-.37-.72-.97-.72-1.89s.4-1.58.77-1.96c.4-.4,1.03-.74,2.03-.74.38,0,.84.06,1.38.36v1.32Z"/>
      <path class="cls-1" d="M26.7,6.51c.43,0,.76.32.76.76s-.32.75-.76.75-.75-.32-.75-.75.32-.76.75-.76ZM27.29,9.35v5.05h-1.18v-5.05h1.18Z"/>
      <path class="cls-1" d="M32.95,9.35h1.18v5.05h-1.18v-.53c-.52.6-1.15.68-1.51.68-1.56,0-2.45-1.3-2.45-2.69,0-1.64,1.13-2.65,2.46-2.65.37,0,1.02.1,1.5.72v-.59ZM30.19,11.89c0,.88.55,1.61,1.4,1.61.74,0,1.43-.54,1.43-1.59s-.68-1.63-1.43-1.63c-.85,0-1.4.72-1.4,1.62Z"/>
      <path class="cls-1" d="M37.29,5.66v8.74h-1.18V5.66h1.18Z"/>
    </g>
    <path class="cls-1" d="M52.49,8.47L59.77,0h-1.73l-6.33,7.35-5.05-7.35h-5.83l7.64,11.12-7.64,8.88h1.73l6.68-7.77,5.34,7.77h5.83l-7.92-11.53h0ZM50.12,11.22l-.77-1.11-6.16-8.81h2.65l4.97,7.11.77,1.11,6.46,9.24h-2.65l-5.27-7.54h0Z"/>
  </g>
</svg>