<?xml version="1.0" encoding="UTF-8"?>
<svg id="_レイヤー_2" data-name="レイヤー_2" xmlns="http://www.w3.org/2000/svg" xmlns:xlink="http://www.w3.org/1999/xlink" viewBox="0 0 244 49.32">
  <defs>
    <style>
      .cls-2 {
        fill: #DC0000;
      }
    </style>
    <filter id="drop-shadow-1" filterUnits="userSpaceOnUse">
      <feOffset dx="0" dy="0"/>
      <feGaussianBlur result="blur" stdDeviation="2.25"/>
      <feFlood flood-color="#000" flood-opacity=".5"/>
      <feComposite in2="blur" operator="in"/>
      <feComposite in="SourceGraphic"/>
    </filter>
  </defs>
  <g id="_x5F_layout">
    <g class="cls-1">
      <g>
        <path class="cls-2" d="M195.88,0h-19.25v1.17h.76c.64,0,1.15.21,1.52.62s.63.89.75,1.44c.12.55.19,1.92.19,4.11v28.22c0,2.15-.06,3.48-.19,3.99-.16.72-.38,1.22-.67,1.52-.4.44-.94.66-1.6.66h-.76v1.17h11.93v-1.17h-.76c-.64,0-1.15-.21-1.52-.62s-.63-.89-.76-1.44c-.13-.55-.19-1.92-.19-4.11v-13.13h.66c1.2,0,2.27.65,3.22,1.95.95,1.3,1.53,3.98,1.74,8.05h.59V10.88h-.59c-.13,2.3-.42,4.12-.87,5.47-.44,1.35-.98,2.31-1.62,2.88-.64.57-1.46.85-2.47.85h-.66V2.47h2.12c1.82,0,3.06.16,3.74.47,1.22.57,2.16,1.55,2.8,2.94.64,1.39,1.05,3.53,1.2,6.42h.69V0Z"/>
        <path class="cls-2" d="M209.59,39.26c-.15,0-.28-.08-.39-.25-.11-.17-.2-.43-.25-.78-.06-.35-.08-1.2-.08-2.55v-11.48c0-3.18-.08-5.22-.24-6.11-.26-1.39-.82-2.68-1.69-3.88-.87-1.19-2.05-1.79-3.54-1.79-1.23,0-2.42.37-3.57,1.11-1.14.74-2.04,1.8-2.68,3.18-.64,1.38-.96,2.83-.96,4.35,0,1.08.24,2.01.72,2.82.48.8,1.07,1.2,1.77,1.2.66,0,1.2-.36,1.61-1.09.41-.73.61-1.61.61-2.64,0-.84-.21-1.72-.64-2.63-.31-.65-.47-1.2-.47-1.65,0-.51.15-.95.44-1.33.47-.61,1.07-.92,1.8-.92.45,0,.85.22,1.21.65.36.43.6.94.73,1.52.13.58.19,1.99.19,4.22v2.97c-3.47,3-5.72,5.39-6.75,7.2-1.03,1.8-1.55,3.83-1.55,6.09,0,1.67.3,3.05.89,4.16.59,1.11,1.34,1.66,2.24,1.66,1.53,0,3.25-1.59,5.17-4.78.11,1.6.42,2.8.93,3.59.5.79,1.21,1.19,2.1,1.19.76,0,1.44-.35,2.04-1.06.6-.71,1.18-1.84,1.74-3.4l-.5-.76c-.3.78-.6,1.17-.89,1.17ZM204.17,36.22c-.74,1.18-1.39,1.77-1.95,1.77-.5,0-.9-.28-1.18-.85-.37-.74-.56-1.59-.56-2.56,0-1.16.22-2.31.66-3.45.66-1.71,1.67-3.31,3.03-4.81v9.9Z"/>
        <path class="cls-2" d="M229.25,40.56c-.28-.51-1.17-2.83-2.66-6.96l-3.7-10.19,1.72-3.16c1.47-2.7,2.46-4.32,2.96-4.86.5-.54,1.09-.84,1.77-.9v-1.17h-7.05v1.17c.72.17,1.2.44,1.45.82s.37.85.37,1.42-.09,1.16-.28,1.77c-.19.61-.65,1.6-1.4,2.97l-3.65,6.74V0h-6.41v1.17c.7.17,1.15.53,1.37,1.08.22.55.33,1.94.33,4.18v30.06c0,2.26-.1,3.62-.29,4.08-.28.68-.75,1.08-1.41,1.2v1.14h8.13v-1.14c-.7-.15-1.16-.5-1.38-1.06-.22-.56-.34-1.97-.34-4.22v-5.31l1.01-1.87,3.11,8.57c.47,1.31.71,2.2.71,2.69,0,.3-.08.57-.24.82-.16.25-.42.38-.78.38v1.14h8.13v-1.14c-.58-.08-1.07-.49-1.45-1.2Z"/>
        <path class="cls-2" d="M242.11,16.12c-1.17-2.46-2.56-3.69-4.15-3.69-1.91,0-3.57,1.46-4.99,4.38-1.42,2.92-2.13,6.85-2.13,11.78,0,4.03.48,7.4,1.45,10.12,1.2,3.37,2.97,5.06,5.3,5.06,1.36,0,2.55-.68,3.58-2.04,1.03-1.36,1.97-3.67,2.83-6.94l-.57-.7c-.63,1.83-1.22,3.11-1.77,3.81-.55.71-1.16,1.06-1.83,1.06-1.09,0-2.02-.88-2.79-2.63-1.01-2.28-1.56-5.38-1.67-9.3h8.63c-.09-4.83-.72-8.47-1.89-10.93ZM235.28,24.93v-1.11c0-3.27.33-5.84.99-7.72.37-1.08.85-1.61,1.43-1.61.39,0,.71.19.94.57.41.65.72,1.61.92,2.88.2,1.27.29,3.6.29,6.99h-4.58Z"/>
        <path class="cls-2" d="M54.22,19.15h-4.12c-2.12,0-3.85,1.72-3.85,3.85v16.04c0,2.12,1.72,3.85,3.85,3.85h4.12c2.12,0,3.85-1.69,3.85-3.76v-2.99h-4.27v2.7h-3.26v-6.27h7.54v-9.56c0-2.12-1.72-3.85-3.85-3.85ZM50.53,28.5v-5.28h3.26v5.28h-3.26Z"/>
        <path class="cls-2" d="M104.2,19.15h-7.96v23.73h4.27v-19.68h3.26v4.92h4.27v-5.14c0-2.12-1.72-3.85-3.85-3.85Z"/>
        <path class="cls-2" d="M134.81,19.15h-7.96v23.73h4.27v-19.68h3.26v19.68h4.27v-19.89c0-2.12-1.72-3.85-3.85-3.85Z"/>
        <path class="cls-2" d="M74.39,19.15h-4.12c-2.12,0-3.85,1.73-3.85,3.85v6.21c0,2.12,1.72,3.85,3.85,3.85h3.69v5.78h-3.26v-2.67h-4.27v2.89c0,2.12,1.72,3.85,3.85,3.85h4.12c2.12,0,3.85-1.73,3.85-3.85v-6.21c0-2.12-1.72-3.85-3.85-3.85h-3.69v-5.78h3.26v2.67h4.27v-2.89c0-2.12-1.72-3.85-3.85-3.85Z"/>
        <path class="cls-2" d="M24.32,19.15h-4.12c-2.12,0-3.85,1.58-3.85,3.53v3.2h4.27v-2.67h3.26v5.78h-2.19c-2.95,0-5.34,2.57-5.34,5.23v3.44c0,2.94,2.24,5.22,5.18,5.22h6.62v-19.89c0-2.12-1.72-3.85-3.85-3.85ZM23.89,38.83h-2.19c-.58,0-1.07-.49-1.07-1.07v-3.64c0-.58.49-1.07,1.07-1.07h2.19v5.78Z"/>
        <path class="cls-2" d="M150.25,19.15h-3.69c-2.12,0-3.85,1.72-3.85,3.85v8.98c0,2.09,1.68,3.8,3.77,3.84v1.75c-2.08.04-3.77,1.75-3.77,3.84v4.07c0,2.12,1.72,3.85,3.85,3.85h4.12c2.12,0,3.85-1.72,3.85-3.85v-4.07c0-2.09-1.68-3.8-3.77-3.84v-1.75c2.08-.04,3.77-1.75,3.77-3.84v-14.32h-4.27v1.5ZM150.25,45.27h-3.26v-3.64h3.26v3.64ZM150.25,31.98h-3.26v-8.76h3.26v8.76Z"/>
        <polygon class="cls-2" points="0 9.43 0 13.49 0 18.38 0 22.42 0 26.48 0 36.63 0 45.19 4.59 40.59 4.59 36.63 4.59 26.48 12.75 26.48 12.75 22.42 4.59 22.42 4.59 14 4.59 13.49 12.75 13.49 14.43 13.49 14.43 9.43 12.75 9.43 0 9.43"/>
        <path class="cls-2" d="M118.94,19.15h-4.12c-2.12,0-3.85,1.58-3.85,3.53v3.2h4.27v-2.67h3.26v5.78h-2.19c-2.95,0-5.34,2.57-5.34,5.23v3.44c0,2.94,2.24,5.22,5.18,5.22h6.62v-19.89c0-2.12-1.72-3.85-3.85-3.85ZM118.52,38.83h-2.19c-.58,0-1.07-.49-1.07-1.07v-3.64c0-.58.49-1.07,1.07-1.07h2.19v5.78Z"/>
        <path class="cls-2" d="M166.55,19.15h-4.12c-2.12,0-3.85,1.72-3.85,3.85v16.04c0,2.12,1.72,3.85,3.85,3.85h4.12c2.12,0,3.85-1.69,3.85-3.76v-2.99h-4.27v2.7h-3.26v-6.27h7.54v-9.56c0-2.12-1.72-3.85-3.85-3.85ZM162.85,28.5v-5.28h3.26v5.28h-3.26Z"/>
        <polygon class="cls-2" points="89.18 10.37 84.91 14.64 84.91 19.15 80.79 19.15 80.79 23.21 84.91 23.21 84.91 45.03 89.18 40.75 89.18 23.21 93.3 23.21 93.3 19.15 89.18 19.15 89.18 10.37"/>
        <polygon class="cls-2" points="39.36 10.37 35.08 14.64 35.08 19.15 30.96 19.15 30.96 23.21 35.08 23.21 35.08 45.03 39.36 40.75 39.36 23.21 43.48 23.21 43.48 19.15 39.36 19.15 39.36 10.37"/>
      </g>
    </g>
  </g>
</svg>